%FSLAX25Y25*%
%MOIN*%
G70*
G01*
G75*
G04 Layer_Color=65535*
G04:AMPARAMS|DCode=10|XSize=41.34mil|YSize=47.24mil|CornerRadius=10.34mil|HoleSize=0mil|Usage=FLASHONLY|Rotation=270.000|XOffset=0mil|YOffset=0mil|HoleType=Round|Shape=RoundedRectangle|*
%AMROUNDEDRECTD10*
21,1,0.04134,0.02658,0,0,270.0*
21,1,0.02067,0.04724,0,0,270.0*
1,1,0.02067,-0.01329,-0.01034*
1,1,0.02067,-0.01329,0.01034*
1,1,0.02067,0.01329,0.01034*
1,1,0.02067,0.01329,-0.01034*
%
%ADD10ROUNDEDRECTD10*%
G04:AMPARAMS|DCode=11|XSize=21.65mil|YSize=39.37mil|CornerRadius=5.41mil|HoleSize=0mil|Usage=FLASHONLY|Rotation=270.000|XOffset=0mil|YOffset=0mil|HoleType=Round|Shape=RoundedRectangle|*
%AMROUNDEDRECTD11*
21,1,0.02165,0.02854,0,0,270.0*
21,1,0.01083,0.03937,0,0,270.0*
1,1,0.01083,-0.01427,-0.00541*
1,1,0.01083,-0.01427,0.00541*
1,1,0.01083,0.01427,0.00541*
1,1,0.01083,0.01427,-0.00541*
%
%ADD11ROUNDEDRECTD11*%
G04:AMPARAMS|DCode=12|XSize=41.34mil|YSize=47.24mil|CornerRadius=10.34mil|HoleSize=0mil|Usage=FLASHONLY|Rotation=180.000|XOffset=0mil|YOffset=0mil|HoleType=Round|Shape=RoundedRectangle|*
%AMROUNDEDRECTD12*
21,1,0.04134,0.02658,0,0,180.0*
21,1,0.02067,0.04724,0,0,180.0*
1,1,0.02067,-0.01034,0.01329*
1,1,0.02067,0.01034,0.01329*
1,1,0.02067,0.01034,-0.01329*
1,1,0.02067,-0.01034,-0.01329*
%
%ADD12ROUNDEDRECTD12*%
%ADD13R,0.03189X0.06299*%
%ADD14R,0.08268X0.11811*%
%ADD15R,0.07087X0.07087*%
%ADD16O,0.00984X0.03543*%
%ADD17O,0.03543X0.00984*%
G04:AMPARAMS|DCode=18|XSize=145.67mil|YSize=59.06mil|CornerRadius=14.76mil|HoleSize=0mil|Usage=FLASHONLY|Rotation=180.000|XOffset=0mil|YOffset=0mil|HoleType=Round|Shape=RoundedRectangle|*
%AMROUNDEDRECTD18*
21,1,0.14567,0.02953,0,0,180.0*
21,1,0.11614,0.05906,0,0,180.0*
1,1,0.02953,-0.05807,0.01476*
1,1,0.02953,0.05807,0.01476*
1,1,0.02953,0.05807,-0.01476*
1,1,0.02953,-0.05807,-0.01476*
%
%ADD18ROUNDEDRECTD18*%
G04:AMPARAMS|DCode=19|XSize=98.43mil|YSize=196.85mil|CornerRadius=24.61mil|HoleSize=0mil|Usage=FLASHONLY|Rotation=180.000|XOffset=0mil|YOffset=0mil|HoleType=Round|Shape=RoundedRectangle|*
%AMROUNDEDRECTD19*
21,1,0.09843,0.14764,0,0,180.0*
21,1,0.04921,0.19685,0,0,180.0*
1,1,0.04921,-0.02461,0.07382*
1,1,0.04921,0.02461,0.07382*
1,1,0.04921,0.02461,-0.07382*
1,1,0.04921,-0.02461,-0.07382*
%
%ADD19ROUNDEDRECTD19*%
%ADD20C,0.05906*%
G04:AMPARAMS|DCode=21|XSize=11.81mil|YSize=47.24mil|CornerRadius=2.95mil|HoleSize=0mil|Usage=FLASHONLY|Rotation=180.000|XOffset=0mil|YOffset=0mil|HoleType=Round|Shape=RoundedRectangle|*
%AMROUNDEDRECTD21*
21,1,0.01181,0.04134,0,0,180.0*
21,1,0.00591,0.04724,0,0,180.0*
1,1,0.00591,-0.00295,0.02067*
1,1,0.00591,0.00295,0.02067*
1,1,0.00591,0.00295,-0.02067*
1,1,0.00591,-0.00295,-0.02067*
%
%ADD21ROUNDEDRECTD21*%
G04:AMPARAMS|DCode=22|XSize=11.81mil|YSize=47.24mil|CornerRadius=2.95mil|HoleSize=0mil|Usage=FLASHONLY|Rotation=90.000|XOffset=0mil|YOffset=0mil|HoleType=Round|Shape=RoundedRectangle|*
%AMROUNDEDRECTD22*
21,1,0.01181,0.04134,0,0,90.0*
21,1,0.00591,0.04724,0,0,90.0*
1,1,0.00591,0.02067,0.00295*
1,1,0.00591,0.02067,-0.00295*
1,1,0.00591,-0.02067,-0.00295*
1,1,0.00591,-0.02067,0.00295*
%
%ADD22ROUNDEDRECTD22*%
%ADD23C,0.01575*%
%ADD24C,0.00787*%
%ADD25C,0.01181*%
%ADD26C,0.01969*%
%ADD27C,0.03150*%
%ADD28C,0.02362*%
%ADD29C,0.02756*%
%ADD30C,0.00394*%
%ADD31C,0.00394*%
%ADD32O,0.06299X0.07087*%
G04:AMPARAMS|DCode=33|XSize=37.4mil|YSize=37.4mil|CornerRadius=9.35mil|HoleSize=0mil|Usage=FLASHONLY|Rotation=180.000|XOffset=0mil|YOffset=0mil|HoleType=Round|Shape=RoundedRectangle|*
%AMROUNDEDRECTD33*
21,1,0.03740,0.01870,0,0,180.0*
21,1,0.01870,0.03740,0,0,180.0*
1,1,0.01870,-0.00935,0.00935*
1,1,0.01870,0.00935,0.00935*
1,1,0.01870,0.00935,-0.00935*
1,1,0.01870,-0.00935,-0.00935*
%
%ADD33ROUNDEDRECTD33*%
%ADD34C,0.03740*%
%ADD35C,0.02362*%
%ADD36C,0.03937*%
%ADD37C,0.01969*%
%ADD38C,0.00984*%
%ADD39C,0.01000*%
G36*
X21654Y296017D02*
X19642D01*
X19611Y296024D01*
X19568D01*
X19524Y296030D01*
X19413Y296048D01*
X19289Y296079D01*
X19165Y296123D01*
X19048Y296184D01*
X18936Y296265D01*
X18930D01*
X18924Y296277D01*
X18893Y296308D01*
X18849Y296358D01*
X18800Y296432D01*
X18757Y296519D01*
X18713Y296618D01*
X18682Y296735D01*
X18670Y296797D01*
Y296865D01*
Y296871D01*
Y296878D01*
Y296915D01*
X18682Y296971D01*
X18695Y297039D01*
X18720Y297119D01*
X18750Y297206D01*
X18800Y297292D01*
X18862Y297379D01*
X18868Y297385D01*
X18887Y297404D01*
X18911Y297429D01*
X18955Y297460D01*
X19004Y297497D01*
X19066Y297534D01*
X19140Y297571D01*
X19227Y297608D01*
X19221D01*
X19208Y297614D01*
X19190D01*
X19165Y297627D01*
X19103Y297645D01*
X19023Y297676D01*
X18936Y297720D01*
X18843Y297775D01*
X18763Y297837D01*
X18688Y297912D01*
X18682Y297924D01*
X18664Y297949D01*
X18633Y297998D01*
X18602Y298060D01*
X18571Y298134D01*
X18540Y298227D01*
X18521Y298332D01*
X18515Y298450D01*
Y298462D01*
Y298493D01*
X18521Y298543D01*
X18528Y298605D01*
X18546Y298679D01*
X18565Y298760D01*
X18596Y298840D01*
X18639Y298920D01*
X18645Y298927D01*
X18664Y298958D01*
X18688Y298995D01*
X18726Y299038D01*
X18775Y299094D01*
X18837Y299149D01*
X18905Y299205D01*
X18980Y299255D01*
X18986D01*
X19004Y299267D01*
X19035Y299279D01*
X19079Y299298D01*
X19134Y299317D01*
X19202Y299335D01*
X19283Y299348D01*
X19376Y299366D01*
X19388D01*
X19407Y299372D01*
X19431D01*
X19493Y299378D01*
X19568Y299385D01*
X19648Y299397D01*
X19722Y299403D01*
X19790Y299410D01*
X21654D01*
Y296017D01*
D02*
G37*
G36*
X9236Y296853D02*
X10307D01*
Y296017D01*
X7119D01*
Y296853D01*
X8190D01*
Y299410D01*
X9236D01*
Y296853D01*
D02*
G37*
G36*
X21873Y182953D02*
X20840Y182390D01*
X20833Y182384D01*
X20809Y182371D01*
X20771Y182353D01*
X20734Y182328D01*
X20648Y182266D01*
X20610Y182229D01*
X20580Y182198D01*
X20573Y182192D01*
X20567Y182180D01*
X20555Y182155D01*
X20536Y182124D01*
X20524Y182087D01*
X20511Y182043D01*
X20505Y181994D01*
X20499Y181938D01*
Y181851D01*
X21873D01*
Y180799D01*
X18481D01*
Y182545D01*
Y182551D01*
Y182570D01*
Y182594D01*
Y182625D01*
Y182669D01*
X18487Y182712D01*
X18494Y182823D01*
X18500Y182941D01*
X18518Y183065D01*
X18537Y183182D01*
X18568Y183288D01*
X18574Y183300D01*
X18586Y183331D01*
X18605Y183380D01*
X18636Y183436D01*
X18679Y183504D01*
X18735Y183572D01*
X18797Y183641D01*
X18877Y183702D01*
X18890Y183709D01*
X18914Y183727D01*
X18964Y183752D01*
X19032Y183783D01*
X19113Y183814D01*
X19205Y183838D01*
X19311Y183857D01*
X19428Y183863D01*
X19478D01*
X19527Y183857D01*
X19595Y183851D01*
X19670Y183832D01*
X19750Y183814D01*
X19837Y183783D01*
X19917Y183739D01*
X19923Y183733D01*
X19948Y183721D01*
X19985Y183690D01*
X20035Y183653D01*
X20084Y183603D01*
X20140Y183548D01*
X20196Y183479D01*
X20245Y183405D01*
X20252Y183399D01*
X20258Y183380D01*
X20276Y183350D01*
X20295Y183312D01*
X20313Y183257D01*
X20338Y183195D01*
X20357Y183121D01*
X20381Y183040D01*
Y183046D01*
X20394Y183071D01*
X20406Y183102D01*
X20419Y183145D01*
X20462Y183232D01*
X20481Y183275D01*
X20505Y183312D01*
X20511Y183325D01*
X20524Y183337D01*
X20542Y183356D01*
X20567Y183380D01*
X20598Y183405D01*
X20635Y183442D01*
X20685Y183479D01*
X20691Y183486D01*
X20709Y183498D01*
X20734Y183517D01*
X20759Y183541D01*
X20833Y183591D01*
X20864Y183609D01*
X20895Y183628D01*
X21873Y184142D01*
Y182953D01*
D02*
G37*
G36*
Y185510D02*
X19620D01*
X19626Y185497D01*
X19651Y185473D01*
X19682Y185423D01*
X19725Y185368D01*
X19769Y185299D01*
X19818Y185219D01*
X19868Y185138D01*
X19911Y185058D01*
X19917Y185046D01*
X19930Y185021D01*
X19948Y184971D01*
X19973Y184909D01*
X20004Y184829D01*
X20041Y184742D01*
X20072Y184637D01*
X20109Y184519D01*
X19342D01*
Y184526D01*
X19335Y184538D01*
X19323Y184563D01*
X19317Y184600D01*
X19298Y184637D01*
X19280Y184687D01*
X19236Y184792D01*
X19181Y184909D01*
X19119Y185033D01*
X19051Y185157D01*
X18970Y185262D01*
Y185268D01*
X18958Y185275D01*
X18933Y185306D01*
X18883Y185355D01*
X18815Y185417D01*
X18741Y185485D01*
X18648Y185553D01*
X18543Y185621D01*
X18425Y185683D01*
Y186463D01*
X21873D01*
Y185510D01*
D02*
G37*
G36*
X5522Y299459D02*
X5559D01*
X5659Y299447D01*
X5770Y299434D01*
X5888Y299410D01*
X6005Y299372D01*
X6111Y299329D01*
X6123Y299323D01*
X6154Y299304D01*
X6203Y299273D01*
X6259Y299230D01*
X6333Y299174D01*
X6401Y299106D01*
X6476Y299026D01*
X6544Y298933D01*
X6550Y298927D01*
X6562Y298896D01*
X6587Y298858D01*
X6612Y298797D01*
X6643Y298728D01*
X6674Y298642D01*
X6705Y298537D01*
X6729Y298425D01*
Y298419D01*
Y298413D01*
X6736Y298394D01*
X6742Y298370D01*
X6748Y298301D01*
X6760Y298209D01*
X6773Y298103D01*
X6785Y297980D01*
X6791Y297843D01*
X6797Y297701D01*
Y297689D01*
Y297658D01*
Y297608D01*
X6791Y297546D01*
X6785Y297466D01*
X6779Y297373D01*
X6767Y297274D01*
X6754Y297169D01*
X6711Y296946D01*
X6649Y296723D01*
X6612Y296618D01*
X6562Y296519D01*
X6513Y296432D01*
X6451Y296352D01*
X6445Y296345D01*
X6432Y296333D01*
X6414Y296314D01*
X6383Y296290D01*
X6346Y296259D01*
X6302Y296228D01*
X6247Y296191D01*
X6185Y296153D01*
X6117Y296123D01*
X6036Y296085D01*
X5949Y296055D01*
X5857Y296024D01*
X5751Y295999D01*
X5640Y295980D01*
X5516Y295968D01*
X5386Y295962D01*
X5331D01*
X5269Y295968D01*
X5188Y295974D01*
X5102Y295980D01*
X5009Y295999D01*
X4916Y296017D01*
X4829Y296048D01*
X4817Y296055D01*
X4792Y296061D01*
X4749Y296085D01*
X4699Y296110D01*
X4643Y296141D01*
X4581Y296178D01*
X4526Y296222D01*
X4470Y296271D01*
X4464Y296277D01*
X4445Y296296D01*
X4421Y296321D01*
X4390Y296358D01*
X4352Y296395D01*
X4315Y296444D01*
X4247Y296556D01*
X4241Y296562D01*
X4235Y296581D01*
X4216Y296612D01*
X4198Y296655D01*
X4179Y296704D01*
X4161Y296766D01*
X4136Y296828D01*
X4117Y296902D01*
Y296909D01*
X4111Y296921D01*
X4105Y296940D01*
X4099Y296971D01*
X4092Y297002D01*
X4086Y297045D01*
X4068Y297144D01*
X4049Y297262D01*
X4031Y297392D01*
X4024Y297540D01*
X4018Y297689D01*
Y297701D01*
Y297732D01*
Y297775D01*
X4024Y297837D01*
X4031Y297918D01*
X4037Y298004D01*
X4043Y298097D01*
X4055Y298202D01*
X4092Y298425D01*
X4148Y298648D01*
X4185Y298753D01*
X4229Y298858D01*
X4278Y298951D01*
X4334Y299038D01*
X4340Y299044D01*
X4346Y299057D01*
X4365Y299075D01*
X4396Y299106D01*
X4433Y299137D01*
X4476Y299174D01*
X4526Y299211D01*
X4588Y299249D01*
X4656Y299292D01*
X4736Y299329D01*
X4823Y299366D01*
X4922Y299397D01*
X5027Y299428D01*
X5145Y299447D01*
X5275Y299459D01*
X5411Y299465D01*
X5485D01*
X5522Y299459D01*
D02*
G37*
G36*
X-69144Y234895D02*
X-70116D01*
X-71404Y236777D01*
Y234895D01*
X-72394D01*
Y238287D01*
X-71404D01*
X-70129Y236418D01*
Y238287D01*
X-69144D01*
Y234895D01*
D02*
G37*
G36*
X16448Y299459D02*
X16503Y299453D01*
X16565D01*
X16640Y299440D01*
X16788Y299422D01*
X16943Y299391D01*
X17104Y299348D01*
X17252Y299286D01*
X17259D01*
X17271Y299279D01*
X17290Y299267D01*
X17314Y299249D01*
X17382Y299205D01*
X17469Y299143D01*
X17568Y299069D01*
X17667Y298964D01*
X17772Y298846D01*
X17865Y298710D01*
Y298704D01*
X17878Y298691D01*
X17884Y298667D01*
X17902Y298636D01*
X17921Y298599D01*
X17940Y298555D01*
X17958Y298499D01*
X17977Y298438D01*
X18001Y298370D01*
X18020Y298295D01*
X18039Y298215D01*
X18057Y298122D01*
X18082Y297930D01*
X18094Y297720D01*
Y297707D01*
Y297682D01*
X18088Y297639D01*
Y297583D01*
X18082Y297515D01*
X18069Y297435D01*
X18057Y297342D01*
X18039Y297249D01*
X18014Y297144D01*
X17983Y297039D01*
X17946Y296933D01*
X17902Y296822D01*
X17847Y296717D01*
X17785Y296612D01*
X17717Y296519D01*
X17636Y296426D01*
X17630Y296420D01*
X17612Y296407D01*
X17587Y296382D01*
X17550Y296352D01*
X17500Y296321D01*
X17444Y296277D01*
X17376Y296234D01*
X17302Y296191D01*
X17215Y296147D01*
X17116Y296110D01*
X17011Y296067D01*
X16893Y296036D01*
X16770Y296005D01*
X16633Y295980D01*
X16491Y295968D01*
X16342Y295962D01*
X16262D01*
X16206Y295968D01*
X16132Y295974D01*
X16052Y295986D01*
X15959Y295999D01*
X15866Y296017D01*
X15761Y296042D01*
X15655Y296073D01*
X15544Y296110D01*
X15439Y296153D01*
X15334Y296209D01*
X15228Y296271D01*
X15135Y296339D01*
X15043Y296420D01*
X15036Y296426D01*
X15024Y296438D01*
X14999Y296469D01*
X14968Y296500D01*
X14937Y296550D01*
X14894Y296605D01*
X14851Y296673D01*
X14807Y296748D01*
X14764Y296834D01*
X14727Y296927D01*
X14684Y297032D01*
X14653Y297144D01*
X14622Y297268D01*
X14597Y297398D01*
X14585Y297540D01*
X14578Y297689D01*
Y297695D01*
Y297713D01*
Y297744D01*
Y297788D01*
X14585Y297837D01*
X14591Y297899D01*
X14597Y297961D01*
X14603Y298035D01*
X14628Y298190D01*
X14665Y298351D01*
X14715Y298512D01*
X14783Y298667D01*
Y298673D01*
X14789Y298685D01*
X14801Y298704D01*
X14820Y298728D01*
X14863Y298797D01*
X14931Y298883D01*
X15012Y298976D01*
X15111Y299075D01*
X15222Y299168D01*
X15358Y299255D01*
X15364D01*
X15377Y299261D01*
X15395Y299273D01*
X15426Y299286D01*
X15463Y299304D01*
X15507Y299323D01*
X15556Y299341D01*
X15618Y299360D01*
X15686Y299378D01*
X15755Y299397D01*
X15915Y299434D01*
X16101Y299459D01*
X16305Y299465D01*
X16398D01*
X16448Y299459D01*
D02*
G37*
G36*
X12499D02*
X12554Y299453D01*
X12616D01*
X12690Y299440D01*
X12839Y299422D01*
X12994Y299391D01*
X13155Y299348D01*
X13303Y299286D01*
X13309D01*
X13322Y299279D01*
X13340Y299267D01*
X13365Y299249D01*
X13433Y299205D01*
X13520Y299143D01*
X13619Y299069D01*
X13718Y298964D01*
X13823Y298846D01*
X13916Y298710D01*
Y298704D01*
X13928Y298691D01*
X13935Y298667D01*
X13953Y298636D01*
X13972Y298599D01*
X13990Y298555D01*
X14009Y298499D01*
X14028Y298438D01*
X14052Y298370D01*
X14071Y298295D01*
X14089Y298215D01*
X14108Y298122D01*
X14133Y297930D01*
X14145Y297720D01*
Y297707D01*
Y297682D01*
X14139Y297639D01*
Y297583D01*
X14133Y297515D01*
X14120Y297435D01*
X14108Y297342D01*
X14089Y297249D01*
X14065Y297144D01*
X14034Y297039D01*
X13996Y296933D01*
X13953Y296822D01*
X13897Y296717D01*
X13836Y296612D01*
X13768Y296519D01*
X13687Y296426D01*
X13681Y296420D01*
X13662Y296407D01*
X13637Y296382D01*
X13600Y296352D01*
X13551Y296321D01*
X13495Y296277D01*
X13427Y296234D01*
X13353Y296191D01*
X13266Y296147D01*
X13167Y296110D01*
X13062Y296067D01*
X12944Y296036D01*
X12820Y296005D01*
X12684Y295980D01*
X12542Y295968D01*
X12393Y295962D01*
X12313D01*
X12257Y295968D01*
X12183Y295974D01*
X12102Y295986D01*
X12009Y295999D01*
X11917Y296017D01*
X11811Y296042D01*
X11706Y296073D01*
X11595Y296110D01*
X11490Y296153D01*
X11384Y296209D01*
X11279Y296271D01*
X11186Y296339D01*
X11093Y296420D01*
X11087Y296426D01*
X11075Y296438D01*
X11050Y296469D01*
X11019Y296500D01*
X10988Y296550D01*
X10945Y296605D01*
X10902Y296673D01*
X10858Y296748D01*
X10815Y296834D01*
X10778Y296927D01*
X10734Y297032D01*
X10703Y297144D01*
X10672Y297268D01*
X10648Y297398D01*
X10635Y297540D01*
X10629Y297689D01*
Y297695D01*
Y297713D01*
Y297744D01*
Y297788D01*
X10635Y297837D01*
X10642Y297899D01*
X10648Y297961D01*
X10654Y298035D01*
X10679Y298190D01*
X10716Y298351D01*
X10765Y298512D01*
X10833Y298667D01*
Y298673D01*
X10840Y298685D01*
X10852Y298704D01*
X10871Y298728D01*
X10914Y298797D01*
X10982Y298883D01*
X11062Y298976D01*
X11162Y299075D01*
X11273Y299168D01*
X11409Y299255D01*
X11415D01*
X11428Y299261D01*
X11446Y299273D01*
X11477Y299286D01*
X11514Y299304D01*
X11558Y299323D01*
X11607Y299341D01*
X11669Y299360D01*
X11737Y299378D01*
X11805Y299397D01*
X11966Y299434D01*
X12152Y299459D01*
X12356Y299465D01*
X12449D01*
X12499Y299459D01*
D02*
G37*
G36*
X46303Y295033D02*
X45207D01*
X44446Y297478D01*
X43690Y295033D01*
X42626D01*
X43889Y298425D01*
X45021D01*
X46303Y295033D01*
D02*
G37*
G36*
X-37332Y256347D02*
X-38286D01*
Y258600D01*
X-38298Y258594D01*
X-38323Y258569D01*
X-38372Y258538D01*
X-38428Y258495D01*
X-38496Y258452D01*
X-38576Y258402D01*
X-38657Y258352D01*
X-38737Y258309D01*
X-38750Y258303D01*
X-38775Y258291D01*
X-38824Y258272D01*
X-38886Y258247D01*
X-38967Y258216D01*
X-39053Y258179D01*
X-39158Y258148D01*
X-39276Y258111D01*
Y258879D01*
X-39270D01*
X-39257Y258885D01*
X-39233Y258897D01*
X-39195Y258903D01*
X-39158Y258922D01*
X-39109Y258941D01*
X-39004Y258984D01*
X-38886Y259040D01*
X-38762Y259102D01*
X-38638Y259170D01*
X-38533Y259250D01*
X-38527D01*
X-38521Y259262D01*
X-38490Y259287D01*
X-38440Y259337D01*
X-38378Y259405D01*
X-38310Y259479D01*
X-38242Y259572D01*
X-38174Y259677D01*
X-38112Y259795D01*
X-37332D01*
Y256347D01*
D02*
G37*
G36*
X-41083Y259733D02*
X-40972Y259727D01*
X-40854Y259720D01*
X-40731Y259702D01*
X-40613Y259683D01*
X-40508Y259652D01*
X-40495Y259646D01*
X-40464Y259634D01*
X-40415Y259615D01*
X-40359Y259584D01*
X-40291Y259541D01*
X-40223Y259485D01*
X-40155Y259423D01*
X-40093Y259343D01*
X-40087Y259331D01*
X-40068Y259306D01*
X-40044Y259256D01*
X-40013Y259188D01*
X-39982Y259108D01*
X-39957Y259015D01*
X-39938Y258910D01*
X-39932Y258792D01*
Y258780D01*
Y258742D01*
X-39938Y258693D01*
X-39944Y258625D01*
X-39963Y258551D01*
X-39982Y258470D01*
X-40013Y258383D01*
X-40056Y258303D01*
X-40062Y258297D01*
X-40075Y258272D01*
X-40105Y258235D01*
X-40143Y258185D01*
X-40192Y258136D01*
X-40248Y258080D01*
X-40316Y258024D01*
X-40390Y257975D01*
X-40396Y257969D01*
X-40415Y257962D01*
X-40446Y257944D01*
X-40483Y257925D01*
X-40539Y257907D01*
X-40601Y257882D01*
X-40675Y257863D01*
X-40755Y257839D01*
X-40749D01*
X-40724Y257826D01*
X-40694Y257814D01*
X-40650Y257802D01*
X-40563Y257758D01*
X-40520Y257740D01*
X-40483Y257715D01*
X-40471Y257709D01*
X-40458Y257696D01*
X-40440Y257678D01*
X-40415Y257653D01*
X-40390Y257622D01*
X-40353Y257585D01*
X-40316Y257535D01*
X-40310Y257529D01*
X-40297Y257511D01*
X-40279Y257486D01*
X-40254Y257461D01*
X-40205Y257387D01*
X-40186Y257356D01*
X-40167Y257325D01*
X-39654Y256347D01*
X-40842D01*
X-41405Y257381D01*
X-41412Y257387D01*
X-41424Y257412D01*
X-41442Y257449D01*
X-41467Y257486D01*
X-41529Y257573D01*
X-41566Y257610D01*
X-41597Y257641D01*
X-41603Y257647D01*
X-41616Y257653D01*
X-41640Y257665D01*
X-41671Y257684D01*
X-41709Y257696D01*
X-41752Y257709D01*
X-41802Y257715D01*
X-41857Y257721D01*
X-41944D01*
Y256347D01*
X-42996D01*
Y259739D01*
X-41127D01*
X-41083Y259733D01*
D02*
G37*
G36*
X22576Y265033D02*
X22657Y265027D01*
X22743Y265021D01*
X22836Y265002D01*
X22929Y264984D01*
X23016Y264952D01*
X23028Y264946D01*
X23053Y264940D01*
X23096Y264915D01*
X23146Y264891D01*
X23202Y264860D01*
X23264Y264823D01*
X23319Y264779D01*
X23375Y264730D01*
X23381Y264723D01*
X23400Y264705D01*
X23424Y264680D01*
X23455Y264643D01*
X23493Y264606D01*
X23530Y264556D01*
X23598Y264445D01*
X23604Y264439D01*
X23610Y264420D01*
X23629Y264389D01*
X23647Y264346D01*
X23666Y264296D01*
X23684Y264234D01*
X23709Y264173D01*
X23728Y264098D01*
Y264092D01*
X23734Y264080D01*
X23740Y264061D01*
X23746Y264030D01*
X23753Y263999D01*
X23759Y263956D01*
X23777Y263857D01*
X23796Y263739D01*
X23814Y263609D01*
X23821Y263461D01*
X23827Y263312D01*
Y263300D01*
Y263269D01*
Y263226D01*
X23821Y263164D01*
X23814Y263083D01*
X23808Y262997D01*
X23802Y262904D01*
X23790Y262798D01*
X23753Y262576D01*
X23697Y262353D01*
X23660Y262247D01*
X23616Y262142D01*
X23567Y262049D01*
X23511Y261963D01*
X23505Y261957D01*
X23499Y261944D01*
X23480Y261926D01*
X23449Y261895D01*
X23412Y261864D01*
X23369Y261827D01*
X23319Y261789D01*
X23257Y261752D01*
X23189Y261709D01*
X23109Y261672D01*
X23022Y261635D01*
X22923Y261604D01*
X22818Y261573D01*
X22700Y261554D01*
X22570Y261542D01*
X22434Y261536D01*
X22360D01*
X22323Y261542D01*
X22285D01*
X22186Y261554D01*
X22075Y261567D01*
X21957Y261591D01*
X21840Y261629D01*
X21734Y261672D01*
X21722Y261678D01*
X21691Y261697D01*
X21642Y261727D01*
X21586Y261771D01*
X21512Y261827D01*
X21444Y261895D01*
X21369Y261975D01*
X21301Y262068D01*
X21295Y262074D01*
X21283Y262105D01*
X21258Y262142D01*
X21233Y262204D01*
X21202Y262272D01*
X21171Y262359D01*
X21140Y262464D01*
X21115Y262576D01*
Y262582D01*
Y262588D01*
X21109Y262607D01*
X21103Y262631D01*
X21097Y262699D01*
X21085Y262792D01*
X21072Y262897D01*
X21060Y263021D01*
X21054Y263157D01*
X21047Y263300D01*
Y263312D01*
Y263343D01*
Y263393D01*
X21054Y263455D01*
X21060Y263535D01*
X21066Y263628D01*
X21078Y263727D01*
X21091Y263832D01*
X21134Y264055D01*
X21196Y264278D01*
X21233Y264383D01*
X21283Y264482D01*
X21332Y264569D01*
X21394Y264649D01*
X21400Y264655D01*
X21413Y264668D01*
X21431Y264686D01*
X21462Y264711D01*
X21499Y264742D01*
X21543Y264773D01*
X21598Y264810D01*
X21660Y264847D01*
X21728Y264878D01*
X21809Y264915D01*
X21895Y264946D01*
X21988Y264977D01*
X22094Y265002D01*
X22205Y265021D01*
X22329Y265033D01*
X22459Y265039D01*
X22514D01*
X22576Y265033D01*
D02*
G37*
G36*
X-34169Y256347D02*
X-35122D01*
Y258600D01*
X-35135Y258594D01*
X-35160Y258569D01*
X-35209Y258538D01*
X-35265Y258495D01*
X-35333Y258452D01*
X-35413Y258402D01*
X-35494Y258352D01*
X-35574Y258309D01*
X-35587Y258303D01*
X-35612Y258291D01*
X-35661Y258272D01*
X-35723Y258247D01*
X-35803Y258216D01*
X-35890Y258179D01*
X-35995Y258148D01*
X-36113Y258111D01*
Y258879D01*
X-36107D01*
X-36094Y258885D01*
X-36070Y258897D01*
X-36032Y258903D01*
X-35995Y258922D01*
X-35946Y258941D01*
X-35840Y258984D01*
X-35723Y259040D01*
X-35599Y259102D01*
X-35475Y259170D01*
X-35370Y259250D01*
X-35364D01*
X-35358Y259262D01*
X-35327Y259287D01*
X-35277Y259337D01*
X-35215Y259405D01*
X-35147Y259479D01*
X-35079Y259572D01*
X-35011Y259677D01*
X-34949Y259795D01*
X-34169D01*
Y256347D01*
D02*
G37*
G36*
X47993Y298475D02*
X48042D01*
X48141Y298468D01*
X48259Y298456D01*
X48382Y298438D01*
X48500Y298413D01*
X48612Y298376D01*
X48624Y298370D01*
X48655Y298357D01*
X48704Y298332D01*
X48766Y298295D01*
X48834Y298252D01*
X48909Y298196D01*
X48983Y298134D01*
X49051Y298060D01*
X49057Y298048D01*
X49082Y298023D01*
X49113Y297979D01*
X49150Y297918D01*
X49193Y297837D01*
X49231Y297750D01*
X49274Y297645D01*
X49311Y297534D01*
X48370Y297404D01*
Y297416D01*
X48358Y297447D01*
X48345Y297497D01*
X48327Y297559D01*
X48277Y297689D01*
X48240Y297750D01*
X48203Y297800D01*
X48197Y297806D01*
X48184Y297819D01*
X48153Y297831D01*
X48123Y297849D01*
X48079Y297874D01*
X48024Y297887D01*
X47968Y297899D01*
X47900Y297905D01*
X47869D01*
X47832Y297899D01*
X47788Y297887D01*
X47739Y297874D01*
X47683Y297849D01*
X47633Y297812D01*
X47584Y297769D01*
X47578Y297763D01*
X47565Y297744D01*
X47541Y297713D01*
X47516Y297670D01*
X47497Y297621D01*
X47473Y297552D01*
X47460Y297478D01*
X47454Y297398D01*
Y297385D01*
Y297360D01*
X47460Y297317D01*
X47466Y297262D01*
X47485Y297206D01*
X47504Y297144D01*
X47534Y297088D01*
X47578Y297032D01*
X47584Y297026D01*
X47603Y297014D01*
X47627Y296989D01*
X47664Y296964D01*
X47714Y296946D01*
X47770Y296921D01*
X47838Y296909D01*
X47912Y296902D01*
X47955D01*
X47993Y296909D01*
X48036Y296915D01*
X48085Y296927D01*
X48147Y296940D01*
X48215Y296958D01*
X48172Y296290D01*
X48129D01*
X48085Y296296D01*
X48017D01*
X47980Y296290D01*
X47937Y296284D01*
X47894Y296271D01*
X47838Y296246D01*
X47788Y296222D01*
X47739Y296184D01*
X47733Y296178D01*
X47720Y296166D01*
X47695Y296141D01*
X47671Y296104D01*
X47652Y296067D01*
X47627Y296017D01*
X47615Y295962D01*
X47609Y295906D01*
Y295900D01*
Y295881D01*
X47615Y295850D01*
X47621Y295819D01*
X47633Y295776D01*
X47646Y295739D01*
X47671Y295695D01*
X47702Y295658D01*
X47708Y295652D01*
X47720Y295646D01*
X47739Y295627D01*
X47770Y295609D01*
X47807Y295596D01*
X47850Y295578D01*
X47900Y295572D01*
X47962Y295565D01*
X47986D01*
X48017Y295572D01*
X48061Y295578D01*
X48104Y295590D01*
X48147Y295609D01*
X48191Y295634D01*
X48234Y295671D01*
X48240Y295677D01*
X48252Y295689D01*
X48265Y295714D01*
X48290Y295751D01*
X48308Y295801D01*
X48333Y295856D01*
X48352Y295931D01*
X48370Y296017D01*
X49262Y295863D01*
Y295856D01*
X49255Y295844D01*
X49249Y295819D01*
X49243Y295795D01*
X49224Y295757D01*
X49212Y295714D01*
X49169Y295621D01*
X49113Y295516D01*
X49039Y295405D01*
X48952Y295299D01*
X48841Y295206D01*
X48834D01*
X48828Y295194D01*
X48810Y295188D01*
X48779Y295169D01*
X48748Y295151D01*
X48711Y295132D01*
X48661Y295113D01*
X48605Y295089D01*
X48550Y295070D01*
X48482Y295052D01*
X48407Y295033D01*
X48327Y295015D01*
X48240Y294996D01*
X48147Y294990D01*
X47943Y294977D01*
X47881D01*
X47832Y294984D01*
X47776D01*
X47714Y294990D01*
X47646Y294996D01*
X47572Y295008D01*
X47411Y295039D01*
X47256Y295083D01*
X47101Y295145D01*
X47039Y295182D01*
X46977Y295225D01*
X46971D01*
X46965Y295237D01*
X46928Y295268D01*
X46885Y295324D01*
X46829Y295398D01*
X46773Y295485D01*
X46724Y295590D01*
X46693Y295714D01*
X46687Y295782D01*
X46680Y295850D01*
Y295863D01*
Y295887D01*
X46687Y295931D01*
X46693Y295980D01*
X46711Y296042D01*
X46730Y296110D01*
X46761Y296178D01*
X46804Y296246D01*
X46810Y296252D01*
X46829Y296277D01*
X46854Y296308D01*
X46891Y296352D01*
X46940Y296395D01*
X47002Y296451D01*
X47076Y296506D01*
X47163Y296556D01*
X47157D01*
X47132Y296562D01*
X47095Y296574D01*
X47052Y296587D01*
X46959Y296624D01*
X46909Y296642D01*
X46866Y296667D01*
X46860Y296673D01*
X46841Y296686D01*
X46810Y296711D01*
X46773Y296742D01*
X46730Y296779D01*
X46687Y296828D01*
X46643Y296884D01*
X46606Y296946D01*
X46600Y296952D01*
X46587Y296977D01*
X46575Y297014D01*
X46556Y297057D01*
X46538Y297119D01*
X46519Y297187D01*
X46513Y297262D01*
X46507Y297348D01*
Y297354D01*
Y297360D01*
Y297398D01*
X46513Y297453D01*
X46525Y297528D01*
X46544Y297621D01*
X46575Y297713D01*
X46612Y297812D01*
X46668Y297918D01*
X46674Y297930D01*
X46699Y297961D01*
X46730Y298010D01*
X46779Y298072D01*
X46847Y298141D01*
X46922Y298209D01*
X47008Y298277D01*
X47114Y298339D01*
X47120D01*
X47126Y298345D01*
X47144Y298351D01*
X47169Y298363D01*
X47194Y298370D01*
X47231Y298382D01*
X47318Y298407D01*
X47429Y298438D01*
X47559Y298456D01*
X47714Y298475D01*
X47881Y298481D01*
X47955D01*
X47993Y298475D01*
D02*
G37*
G36*
X41140D02*
X41190D01*
X41289Y298468D01*
X41406Y298456D01*
X41530Y298438D01*
X41648Y298413D01*
X41759Y298376D01*
X41772Y298370D01*
X41803Y298357D01*
X41852Y298332D01*
X41914Y298295D01*
X41982Y298252D01*
X42056Y298196D01*
X42131Y298134D01*
X42199Y298060D01*
X42205Y298048D01*
X42230Y298023D01*
X42261Y297979D01*
X42298Y297918D01*
X42341Y297837D01*
X42378Y297750D01*
X42422Y297645D01*
X42459Y297534D01*
X41518Y297404D01*
Y297416D01*
X41505Y297447D01*
X41493Y297497D01*
X41475Y297559D01*
X41425Y297689D01*
X41388Y297750D01*
X41351Y297800D01*
X41344Y297806D01*
X41332Y297819D01*
X41301Y297831D01*
X41270Y297849D01*
X41227Y297874D01*
X41171Y297887D01*
X41115Y297899D01*
X41047Y297905D01*
X41016D01*
X40979Y297899D01*
X40936Y297887D01*
X40886Y297874D01*
X40831Y297849D01*
X40781Y297812D01*
X40732Y297769D01*
X40725Y297763D01*
X40713Y297744D01*
X40688Y297713D01*
X40664Y297670D01*
X40645Y297621D01*
X40620Y297552D01*
X40608Y297478D01*
X40602Y297398D01*
Y297385D01*
Y297360D01*
X40608Y297317D01*
X40614Y297262D01*
X40633Y297206D01*
X40651Y297144D01*
X40682Y297088D01*
X40725Y297032D01*
X40732Y297026D01*
X40750Y297014D01*
X40775Y296989D01*
X40812Y296964D01*
X40862Y296946D01*
X40917Y296921D01*
X40986Y296909D01*
X41060Y296902D01*
X41103D01*
X41140Y296909D01*
X41184Y296915D01*
X41233Y296927D01*
X41295Y296940D01*
X41363Y296958D01*
X41320Y296290D01*
X41276D01*
X41233Y296296D01*
X41165D01*
X41128Y296290D01*
X41085Y296284D01*
X41041Y296271D01*
X40986Y296246D01*
X40936Y296222D01*
X40886Y296184D01*
X40880Y296178D01*
X40868Y296166D01*
X40843Y296141D01*
X40818Y296104D01*
X40800Y296067D01*
X40775Y296017D01*
X40763Y295962D01*
X40756Y295906D01*
Y295900D01*
Y295881D01*
X40763Y295850D01*
X40769Y295819D01*
X40781Y295776D01*
X40794Y295739D01*
X40818Y295695D01*
X40849Y295658D01*
X40856Y295652D01*
X40868Y295646D01*
X40886Y295627D01*
X40917Y295609D01*
X40955Y295596D01*
X40998Y295578D01*
X41047Y295572D01*
X41109Y295565D01*
X41134D01*
X41165Y295572D01*
X41208Y295578D01*
X41252Y295590D01*
X41295Y295609D01*
X41338Y295634D01*
X41382Y295671D01*
X41388Y295677D01*
X41400Y295689D01*
X41413Y295714D01*
X41437Y295751D01*
X41456Y295801D01*
X41481Y295856D01*
X41499Y295931D01*
X41518Y296017D01*
X42409Y295863D01*
Y295856D01*
X42403Y295844D01*
X42397Y295819D01*
X42391Y295795D01*
X42372Y295757D01*
X42360Y295714D01*
X42316Y295621D01*
X42261Y295516D01*
X42186Y295405D01*
X42100Y295299D01*
X41988Y295206D01*
X41982D01*
X41976Y295194D01*
X41957Y295188D01*
X41926Y295169D01*
X41895Y295151D01*
X41858Y295132D01*
X41809Y295113D01*
X41753Y295089D01*
X41697Y295070D01*
X41629Y295052D01*
X41555Y295033D01*
X41475Y295015D01*
X41388Y294996D01*
X41295Y294990D01*
X41091Y294977D01*
X41029D01*
X40979Y294984D01*
X40924D01*
X40862Y294990D01*
X40794Y294996D01*
X40719Y295008D01*
X40558Y295039D01*
X40404Y295083D01*
X40249Y295145D01*
X40187Y295182D01*
X40125Y295225D01*
X40119D01*
X40113Y295237D01*
X40075Y295268D01*
X40032Y295324D01*
X39977Y295398D01*
X39921Y295485D01*
X39871Y295590D01*
X39840Y295714D01*
X39834Y295782D01*
X39828Y295850D01*
Y295863D01*
Y295887D01*
X39834Y295931D01*
X39840Y295980D01*
X39859Y296042D01*
X39878Y296110D01*
X39908Y296178D01*
X39952Y296246D01*
X39958Y296252D01*
X39977Y296277D01*
X40001Y296308D01*
X40038Y296352D01*
X40088Y296395D01*
X40150Y296451D01*
X40224Y296506D01*
X40311Y296556D01*
X40305D01*
X40280Y296562D01*
X40243Y296574D01*
X40199Y296587D01*
X40106Y296624D01*
X40057Y296642D01*
X40014Y296667D01*
X40007Y296673D01*
X39989Y296686D01*
X39958Y296711D01*
X39921Y296742D01*
X39878Y296779D01*
X39834Y296828D01*
X39791Y296884D01*
X39754Y296946D01*
X39748Y296952D01*
X39735Y296977D01*
X39723Y297014D01*
X39704Y297057D01*
X39686Y297119D01*
X39667Y297187D01*
X39661Y297262D01*
X39655Y297348D01*
Y297354D01*
Y297360D01*
Y297398D01*
X39661Y297453D01*
X39673Y297528D01*
X39692Y297621D01*
X39723Y297713D01*
X39760Y297812D01*
X39816Y297918D01*
X39822Y297930D01*
X39847Y297961D01*
X39878Y298010D01*
X39927Y298072D01*
X39995Y298141D01*
X40069Y298209D01*
X40156Y298277D01*
X40261Y298339D01*
X40267D01*
X40274Y298345D01*
X40292Y298351D01*
X40317Y298363D01*
X40342Y298370D01*
X40379Y298382D01*
X40466Y298407D01*
X40577Y298438D01*
X40707Y298456D01*
X40862Y298475D01*
X41029Y298481D01*
X41103D01*
X41140Y298475D01*
D02*
G37*
G36*
X-16542Y210112D02*
X-16486D01*
X-16424Y210105D01*
X-16356Y210099D01*
X-16282Y210087D01*
X-16121Y210056D01*
X-15966Y210013D01*
X-15811Y209951D01*
X-15749Y209914D01*
X-15687Y209870D01*
X-15681D01*
X-15675Y209858D01*
X-15638Y209827D01*
X-15595Y209771D01*
X-15539Y209697D01*
X-15483Y209610D01*
X-15434Y209505D01*
X-15403Y209381D01*
X-15397Y209313D01*
X-15390Y209245D01*
Y209233D01*
Y209208D01*
X-15397Y209165D01*
X-15403Y209115D01*
X-15421Y209053D01*
X-15440Y208985D01*
X-15471Y208917D01*
X-15514Y208849D01*
X-15520Y208843D01*
X-15539Y208818D01*
X-15564Y208787D01*
X-15601Y208744D01*
X-15650Y208700D01*
X-15712Y208645D01*
X-15787Y208589D01*
X-15873Y208540D01*
X-15867D01*
X-15842Y208533D01*
X-15805Y208521D01*
X-15762Y208508D01*
X-15669Y208471D01*
X-15619Y208453D01*
X-15576Y208428D01*
X-15570Y208422D01*
X-15551Y208410D01*
X-15520Y208385D01*
X-15483Y208354D01*
X-15440Y208317D01*
X-15397Y208267D01*
X-15353Y208211D01*
X-15316Y208150D01*
X-15310Y208143D01*
X-15297Y208119D01*
X-15285Y208081D01*
X-15267Y208038D01*
X-15248Y207976D01*
X-15229Y207908D01*
X-15223Y207834D01*
X-15217Y207747D01*
Y207741D01*
Y207735D01*
Y207698D01*
X-15223Y207642D01*
X-15236Y207568D01*
X-15254Y207475D01*
X-15285Y207382D01*
X-15322Y207283D01*
X-15378Y207178D01*
X-15384Y207165D01*
X-15409Y207134D01*
X-15440Y207085D01*
X-15489Y207023D01*
X-15558Y206955D01*
X-15632Y206887D01*
X-15718Y206819D01*
X-15824Y206757D01*
X-15830D01*
X-15836Y206751D01*
X-15855Y206744D01*
X-15879Y206732D01*
X-15904Y206726D01*
X-15941Y206713D01*
X-16028Y206689D01*
X-16139Y206658D01*
X-16269Y206639D01*
X-16424Y206621D01*
X-16591Y206614D01*
X-16666D01*
X-16703Y206621D01*
X-16752D01*
X-16851Y206627D01*
X-16969Y206639D01*
X-17093Y206658D01*
X-17210Y206682D01*
X-17322Y206720D01*
X-17334Y206726D01*
X-17365Y206738D01*
X-17414Y206763D01*
X-17476Y206800D01*
X-17545Y206843D01*
X-17619Y206899D01*
X-17693Y206961D01*
X-17761Y207035D01*
X-17767Y207048D01*
X-17792Y207072D01*
X-17823Y207116D01*
X-17860Y207178D01*
X-17903Y207258D01*
X-17941Y207345D01*
X-17984Y207450D01*
X-18021Y207561D01*
X-17080Y207691D01*
Y207679D01*
X-17068Y207648D01*
X-17055Y207599D01*
X-17037Y207537D01*
X-16987Y207407D01*
X-16950Y207345D01*
X-16913Y207295D01*
X-16907Y207289D01*
X-16894Y207277D01*
X-16864Y207264D01*
X-16833Y207246D01*
X-16789Y207221D01*
X-16734Y207209D01*
X-16678Y207196D01*
X-16610Y207190D01*
X-16579D01*
X-16542Y207196D01*
X-16498Y207209D01*
X-16449Y207221D01*
X-16393Y207246D01*
X-16344Y207283D01*
X-16294Y207326D01*
X-16288Y207332D01*
X-16275Y207351D01*
X-16251Y207382D01*
X-16226Y207425D01*
X-16207Y207475D01*
X-16183Y207543D01*
X-16170Y207617D01*
X-16164Y207698D01*
Y207710D01*
Y207735D01*
X-16170Y207778D01*
X-16176Y207834D01*
X-16195Y207890D01*
X-16214Y207951D01*
X-16245Y208007D01*
X-16288Y208063D01*
X-16294Y208069D01*
X-16313Y208081D01*
X-16337Y208106D01*
X-16375Y208131D01*
X-16424Y208150D01*
X-16480Y208174D01*
X-16548Y208187D01*
X-16622Y208193D01*
X-16666D01*
X-16703Y208187D01*
X-16746Y208180D01*
X-16795Y208168D01*
X-16857Y208156D01*
X-16926Y208137D01*
X-16882Y208806D01*
X-16839D01*
X-16795Y208799D01*
X-16727D01*
X-16690Y208806D01*
X-16647Y208812D01*
X-16604Y208824D01*
X-16548Y208849D01*
X-16498Y208874D01*
X-16449Y208911D01*
X-16443Y208917D01*
X-16430Y208929D01*
X-16406Y208954D01*
X-16381Y208991D01*
X-16362Y209029D01*
X-16337Y209078D01*
X-16325Y209134D01*
X-16319Y209189D01*
Y209196D01*
Y209214D01*
X-16325Y209245D01*
X-16331Y209276D01*
X-16344Y209319D01*
X-16356Y209357D01*
X-16381Y209400D01*
X-16412Y209437D01*
X-16418Y209443D01*
X-16430Y209449D01*
X-16449Y209468D01*
X-16480Y209487D01*
X-16517Y209499D01*
X-16560Y209518D01*
X-16610Y209524D01*
X-16672Y209530D01*
X-16696D01*
X-16727Y209524D01*
X-16771Y209518D01*
X-16814Y209505D01*
X-16857Y209487D01*
X-16901Y209462D01*
X-16944Y209425D01*
X-16950Y209418D01*
X-16963Y209406D01*
X-16975Y209381D01*
X-17000Y209344D01*
X-17018Y209295D01*
X-17043Y209239D01*
X-17062Y209165D01*
X-17080Y209078D01*
X-17972Y209233D01*
Y209239D01*
X-17965Y209251D01*
X-17959Y209276D01*
X-17953Y209301D01*
X-17934Y209338D01*
X-17922Y209381D01*
X-17879Y209474D01*
X-17823Y209579D01*
X-17749Y209691D01*
X-17662Y209796D01*
X-17551Y209889D01*
X-17545D01*
X-17538Y209901D01*
X-17520Y209908D01*
X-17489Y209926D01*
X-17458Y209945D01*
X-17421Y209963D01*
X-17371Y209982D01*
X-17315Y210006D01*
X-17260Y210025D01*
X-17192Y210044D01*
X-17117Y210062D01*
X-17037Y210081D01*
X-16950Y210099D01*
X-16857Y210105D01*
X-16653Y210118D01*
X-16591D01*
X-16542Y210112D01*
D02*
G37*
G36*
X-18535Y208038D02*
Y208032D01*
Y208026D01*
Y207989D01*
X-18541Y207933D01*
X-18547Y207859D01*
X-18560Y207766D01*
X-18578Y207673D01*
X-18603Y207574D01*
X-18634Y207469D01*
X-18640Y207456D01*
X-18653Y207425D01*
X-18671Y207376D01*
X-18708Y207314D01*
X-18745Y207240D01*
X-18801Y207159D01*
X-18857Y207079D01*
X-18931Y207004D01*
X-18937Y206998D01*
X-18968Y206973D01*
X-19005Y206936D01*
X-19055Y206893D01*
X-19117Y206850D01*
X-19191Y206806D01*
X-19265Y206763D01*
X-19346Y206726D01*
X-19352D01*
X-19358Y206720D01*
X-19377Y206713D01*
X-19401Y206707D01*
X-19463Y206689D01*
X-19556Y206670D01*
X-19661Y206651D01*
X-19785Y206633D01*
X-19928Y206621D01*
X-20082Y206614D01*
X-20175D01*
X-20243Y206621D01*
X-20324D01*
X-20417Y206633D01*
X-20516Y206639D01*
X-20627Y206651D01*
X-20640D01*
X-20677Y206658D01*
X-20732Y206664D01*
X-20794Y206682D01*
X-20875Y206695D01*
X-20955Y206720D01*
X-21036Y206751D01*
X-21116Y206782D01*
X-21122Y206788D01*
X-21147Y206800D01*
X-21184Y206825D01*
X-21234Y206856D01*
X-21289Y206899D01*
X-21351Y206949D01*
X-21413Y207004D01*
X-21475Y207072D01*
X-21481Y207079D01*
X-21500Y207103D01*
X-21531Y207147D01*
X-21562Y207196D01*
X-21599Y207252D01*
X-21636Y207320D01*
X-21673Y207394D01*
X-21698Y207469D01*
Y207475D01*
X-21704Y207481D01*
Y207500D01*
X-21710Y207524D01*
X-21729Y207586D01*
X-21741Y207661D01*
X-21760Y207747D01*
X-21779Y207846D01*
X-21785Y207945D01*
X-21791Y208038D01*
Y210062D01*
X-20745D01*
Y207995D01*
Y207982D01*
Y207951D01*
X-20739Y207896D01*
X-20726Y207834D01*
X-20708Y207766D01*
X-20683Y207698D01*
X-20646Y207623D01*
X-20596Y207561D01*
X-20590Y207555D01*
X-20565Y207537D01*
X-20534Y207512D01*
X-20485Y207487D01*
X-20423Y207456D01*
X-20349Y207432D01*
X-20262Y207413D01*
X-20163Y207407D01*
X-20120D01*
X-20070Y207413D01*
X-20008Y207425D01*
X-19940Y207444D01*
X-19866Y207469D01*
X-19798Y207506D01*
X-19736Y207555D01*
X-19730Y207561D01*
X-19711Y207586D01*
X-19686Y207617D01*
X-19655Y207667D01*
X-19631Y207729D01*
X-19606Y207809D01*
X-19587Y207896D01*
X-19581Y207995D01*
Y210062D01*
X-18535D01*
Y208038D01*
D02*
G37*
G36*
X20976Y190258D02*
X21038Y190251D01*
X21112Y190233D01*
X21192Y190214D01*
X21273Y190183D01*
X21360Y190146D01*
X21372Y190140D01*
X21397Y190128D01*
X21434Y190103D01*
X21483Y190066D01*
X21539Y190022D01*
X21595Y189973D01*
X21650Y189917D01*
X21700Y189855D01*
X21706Y189849D01*
X21719Y189824D01*
X21737Y189787D01*
X21768Y189738D01*
X21793Y189676D01*
X21824Y189608D01*
X21848Y189521D01*
X21873Y189428D01*
Y189416D01*
X21879Y189385D01*
X21892Y189335D01*
X21898Y189267D01*
X21910Y189187D01*
X21923Y189094D01*
X21929Y188995D01*
Y188890D01*
Y188883D01*
Y188865D01*
Y188840D01*
Y188803D01*
X21923Y188753D01*
Y188704D01*
X21910Y188586D01*
X21898Y188450D01*
X21879Y188314D01*
X21848Y188178D01*
X21805Y188060D01*
X21799Y188048D01*
X21780Y188011D01*
X21749Y187961D01*
X21706Y187899D01*
X21657Y187831D01*
X21588Y187757D01*
X21514Y187689D01*
X21428Y187627D01*
X21415Y187621D01*
X21384Y187602D01*
X21335Y187583D01*
X21267Y187559D01*
X21186Y187528D01*
X21093Y187509D01*
X20988Y187491D01*
X20877Y187484D01*
X20827D01*
X20771Y187491D01*
X20697Y187503D01*
X20617Y187515D01*
X20536Y187540D01*
X20449Y187577D01*
X20369Y187621D01*
X20357Y187627D01*
X20332Y187645D01*
X20295Y187676D01*
X20252Y187726D01*
X20196Y187788D01*
X20146Y187856D01*
X20090Y187949D01*
X20047Y188048D01*
X20041Y188035D01*
X20029Y188011D01*
X20004Y187973D01*
X19973Y187924D01*
X19930Y187874D01*
X19886Y187819D01*
X19837Y187769D01*
X19787Y187726D01*
X19781Y187720D01*
X19750Y187707D01*
X19713Y187682D01*
X19657Y187658D01*
X19589Y187633D01*
X19509Y187608D01*
X19422Y187596D01*
X19329Y187590D01*
X19286D01*
X19261Y187596D01*
X19224Y187602D01*
X19181Y187608D01*
X19082Y187639D01*
X18976Y187689D01*
X18914Y187720D01*
X18859Y187757D01*
X18803Y187800D01*
X18741Y187856D01*
X18685Y187918D01*
X18636Y187986D01*
Y187992D01*
X18630Y187998D01*
X18617Y188017D01*
X18605Y188042D01*
X18586Y188073D01*
X18568Y188116D01*
X18549Y188159D01*
X18531Y188209D01*
X18494Y188326D01*
X18456Y188469D01*
X18432Y188630D01*
X18425Y188815D01*
Y188821D01*
Y188846D01*
Y188883D01*
X18432Y188927D01*
Y188982D01*
X18438Y189050D01*
X18444Y189119D01*
X18456Y189199D01*
X18487Y189360D01*
X18537Y189527D01*
X18599Y189688D01*
X18642Y189756D01*
X18685Y189824D01*
Y189831D01*
X18698Y189837D01*
X18735Y189874D01*
X18791Y189929D01*
X18865Y189991D01*
X18958Y190047D01*
X19069Y190103D01*
X19193Y190140D01*
X19261Y190146D01*
X19335Y190152D01*
X19373D01*
X19416Y190146D01*
X19471Y190134D01*
X19540Y190121D01*
X19614Y190097D01*
X19688Y190066D01*
X19762Y190022D01*
X19769Y190016D01*
X19787Y190004D01*
X19818Y189979D01*
X19855Y189948D01*
X19899Y189905D01*
X19942Y189849D01*
X19998Y189787D01*
X20047Y189713D01*
Y189719D01*
X20053Y189725D01*
X20072Y189756D01*
X20103Y189806D01*
X20140Y189868D01*
X20190Y189936D01*
X20252Y190004D01*
X20320Y190072D01*
X20400Y190128D01*
X20412Y190134D01*
X20437Y190146D01*
X20481Y190171D01*
X20542Y190196D01*
X20610Y190220D01*
X20697Y190245D01*
X20784Y190258D01*
X20883Y190264D01*
X20926D01*
X20976Y190258D01*
D02*
G37*
G36*
X-5292Y185704D02*
X-7545D01*
X-7539Y185691D01*
X-7514Y185667D01*
X-7483Y185617D01*
X-7440Y185561D01*
X-7397Y185493D01*
X-7347Y185413D01*
X-7298Y185332D01*
X-7254Y185252D01*
X-7248Y185239D01*
X-7236Y185215D01*
X-7217Y185165D01*
X-7192Y185103D01*
X-7162Y185023D01*
X-7124Y184936D01*
X-7093Y184831D01*
X-7056Y184713D01*
X-7824D01*
Y184719D01*
X-7830Y184732D01*
X-7842Y184757D01*
X-7849Y184794D01*
X-7867Y184831D01*
X-7886Y184880D01*
X-7929Y184986D01*
X-7985Y185103D01*
X-8047Y185227D01*
X-8115Y185351D01*
X-8195Y185456D01*
Y185462D01*
X-8208Y185468D01*
X-8232Y185499D01*
X-8282Y185549D01*
X-8350Y185611D01*
X-8424Y185679D01*
X-8517Y185747D01*
X-8622Y185815D01*
X-8740Y185877D01*
Y186657D01*
X-5292D01*
Y185704D01*
D02*
G37*
G36*
Y183147D02*
X-6326Y182584D01*
X-6332Y182578D01*
X-6357Y182565D01*
X-6394Y182547D01*
X-6431Y182522D01*
X-6518Y182460D01*
X-6555Y182423D01*
X-6586Y182392D01*
X-6592Y182386D01*
X-6598Y182373D01*
X-6611Y182349D01*
X-6629Y182318D01*
X-6642Y182281D01*
X-6654Y182237D01*
X-6660Y182188D01*
X-6666Y182132D01*
Y182045D01*
X-5292D01*
Y180993D01*
X-8684D01*
Y182739D01*
Y182745D01*
Y182763D01*
Y182788D01*
Y182819D01*
Y182862D01*
X-8678Y182906D01*
X-8672Y183017D01*
X-8666Y183135D01*
X-8647Y183259D01*
X-8629Y183376D01*
X-8598Y183481D01*
X-8591Y183494D01*
X-8579Y183525D01*
X-8561Y183574D01*
X-8529Y183630D01*
X-8486Y183698D01*
X-8431Y183766D01*
X-8369Y183834D01*
X-8288Y183896D01*
X-8276Y183902D01*
X-8251Y183921D01*
X-8201Y183946D01*
X-8133Y183977D01*
X-8053Y184008D01*
X-7960Y184032D01*
X-7855Y184051D01*
X-7737Y184057D01*
X-7688D01*
X-7638Y184051D01*
X-7570Y184045D01*
X-7496Y184026D01*
X-7415Y184008D01*
X-7329Y183977D01*
X-7248Y183933D01*
X-7242Y183927D01*
X-7217Y183915D01*
X-7180Y183884D01*
X-7131Y183847D01*
X-7081Y183797D01*
X-7025Y183741D01*
X-6970Y183673D01*
X-6920Y183599D01*
X-6914Y183593D01*
X-6908Y183574D01*
X-6889Y183543D01*
X-6871Y183506D01*
X-6852Y183450D01*
X-6827Y183389D01*
X-6809Y183314D01*
X-6784Y183234D01*
Y183240D01*
X-6772Y183265D01*
X-6759Y183296D01*
X-6747Y183339D01*
X-6703Y183426D01*
X-6685Y183469D01*
X-6660Y183506D01*
X-6654Y183519D01*
X-6642Y183531D01*
X-6623Y183549D01*
X-6598Y183574D01*
X-6567Y183599D01*
X-6530Y183636D01*
X-6481Y183673D01*
X-6474Y183679D01*
X-6456Y183692D01*
X-6431Y183710D01*
X-6406Y183735D01*
X-6332Y183785D01*
X-6301Y183803D01*
X-6270Y183822D01*
X-5292Y184336D01*
Y183147D01*
D02*
G37*
G36*
X12649Y185119D02*
X10396D01*
X10402Y185107D01*
X10427Y185082D01*
X10458Y185033D01*
X10501Y184977D01*
X10544Y184909D01*
X10594Y184828D01*
X10644Y184748D01*
X10687Y184667D01*
X10693Y184655D01*
X10706Y184630D01*
X10724Y184581D01*
X10749Y184519D01*
X10780Y184438D01*
X10817Y184352D01*
X10848Y184247D01*
X10885Y184129D01*
X10117D01*
Y184135D01*
X10111Y184147D01*
X10099Y184172D01*
X10093Y184209D01*
X10074Y184247D01*
X10056Y184296D01*
X10012Y184401D01*
X9956Y184519D01*
X9895Y184643D01*
X9826Y184766D01*
X9746Y184872D01*
Y184878D01*
X9734Y184884D01*
X9709Y184915D01*
X9659Y184965D01*
X9591Y185026D01*
X9517Y185094D01*
X9424Y185163D01*
X9319Y185231D01*
X9201Y185293D01*
Y186073D01*
X12649D01*
Y185119D01*
D02*
G37*
G36*
X-6369Y190457D02*
X-6283Y190445D01*
X-6190Y190420D01*
X-6084Y190396D01*
X-5967Y190352D01*
X-5855Y190297D01*
X-5849D01*
X-5843Y190290D01*
X-5806Y190266D01*
X-5750Y190228D01*
X-5682Y190179D01*
X-5608Y190111D01*
X-5534Y190030D01*
X-5459Y189938D01*
X-5391Y189832D01*
Y189826D01*
X-5385Y189820D01*
X-5379Y189801D01*
X-5366Y189777D01*
X-5354Y189752D01*
X-5342Y189715D01*
X-5317Y189628D01*
X-5286Y189517D01*
X-5261Y189381D01*
X-5243Y189232D01*
X-5236Y189065D01*
Y189059D01*
Y189052D01*
Y189034D01*
Y189009D01*
X-5243Y188947D01*
Y188867D01*
X-5249Y188780D01*
X-5261Y188681D01*
X-5280Y188582D01*
X-5298Y188489D01*
X-5305Y188477D01*
X-5311Y188452D01*
X-5323Y188409D01*
X-5348Y188353D01*
X-5373Y188285D01*
X-5404Y188217D01*
X-5484Y188081D01*
X-5490Y188074D01*
X-5509Y188056D01*
X-5534Y188025D01*
X-5571Y187981D01*
X-5608Y187938D01*
X-5657Y187895D01*
X-5769Y187808D01*
X-5775Y187802D01*
X-5800Y187790D01*
X-5831Y187771D01*
X-5880Y187752D01*
X-5936Y187722D01*
X-6004Y187697D01*
X-6084Y187666D01*
X-6171Y187641D01*
X-6276Y188594D01*
X-6264D01*
X-6239Y188601D01*
X-6196Y188613D01*
X-6146Y188625D01*
X-6091Y188644D01*
X-6035Y188675D01*
X-5979Y188706D01*
X-5930Y188749D01*
X-5923Y188755D01*
X-5911Y188774D01*
X-5893Y188799D01*
X-5874Y188836D01*
X-5849Y188879D01*
X-5831Y188935D01*
X-5818Y188997D01*
X-5812Y189059D01*
Y189065D01*
Y189090D01*
X-5818Y189127D01*
X-5831Y189176D01*
X-5849Y189226D01*
X-5874Y189281D01*
X-5911Y189337D01*
X-5961Y189387D01*
X-5967Y189393D01*
X-5992Y189405D01*
X-6023Y189430D01*
X-6072Y189455D01*
X-6134Y189473D01*
X-6208Y189498D01*
X-6295Y189511D01*
X-6400Y189517D01*
X-6450D01*
X-6505Y189511D01*
X-6567Y189498D01*
X-6642Y189486D01*
X-6716Y189461D01*
X-6784Y189430D01*
X-6846Y189387D01*
X-6852Y189381D01*
X-6871Y189362D01*
X-6889Y189337D01*
X-6920Y189294D01*
X-6945Y189244D01*
X-6963Y189189D01*
X-6982Y189114D01*
X-6988Y189040D01*
Y189034D01*
Y189015D01*
X-6982Y188990D01*
Y188953D01*
X-6957Y188873D01*
X-6945Y188823D01*
X-6920Y188774D01*
Y188768D01*
X-6908Y188755D01*
X-6895Y188737D01*
X-6877Y188712D01*
X-6852Y188681D01*
X-6821Y188644D01*
X-6784Y188607D01*
X-6741Y188563D01*
X-6858Y187765D01*
X-8684Y188062D01*
Y190303D01*
X-7929D01*
Y188780D01*
X-7422Y188700D01*
X-7428Y188706D01*
X-7434Y188724D01*
X-7446Y188761D01*
X-7465Y188799D01*
X-7483Y188848D01*
X-7502Y188904D01*
X-7533Y189015D01*
Y189022D01*
X-7539Y189040D01*
X-7545Y189071D01*
X-7552Y189114D01*
X-7558Y189158D01*
X-7564Y189207D01*
X-7570Y189319D01*
Y189325D01*
Y189343D01*
Y189368D01*
X-7564Y189405D01*
Y189449D01*
X-7552Y189498D01*
X-7533Y189610D01*
X-7496Y189746D01*
X-7440Y189882D01*
X-7403Y189950D01*
X-7366Y190018D01*
X-7316Y190080D01*
X-7261Y190142D01*
X-7254Y190148D01*
X-7248Y190154D01*
X-7230Y190173D01*
X-7205Y190191D01*
X-7174Y190216D01*
X-7137Y190241D01*
X-7050Y190303D01*
X-6939Y190365D01*
X-6803Y190414D01*
X-6654Y190451D01*
X-6573Y190457D01*
X-6487Y190464D01*
X-6431D01*
X-6369Y190457D01*
D02*
G37*
G36*
X3566Y185891D02*
X1313D01*
X1319Y185879D01*
X1344Y185854D01*
X1375Y185804D01*
X1418Y185749D01*
X1462Y185681D01*
X1511Y185600D01*
X1561Y185520D01*
X1604Y185439D01*
X1610Y185427D01*
X1623Y185402D01*
X1641Y185353D01*
X1666Y185291D01*
X1697Y185210D01*
X1734Y185124D01*
X1765Y185018D01*
X1802Y184901D01*
X1034D01*
Y184907D01*
X1028Y184919D01*
X1016Y184944D01*
X1010Y184981D01*
X991Y185018D01*
X972Y185068D01*
X929Y185173D01*
X874Y185291D01*
X812Y185415D01*
X744Y185538D01*
X663Y185644D01*
Y185650D01*
X651Y185656D01*
X626Y185687D01*
X576Y185736D01*
X508Y185798D01*
X434Y185866D01*
X341Y185934D01*
X236Y186003D01*
X118Y186065D01*
Y186844D01*
X3566D01*
Y185891D01*
D02*
G37*
G36*
Y183335D02*
X2532Y182771D01*
X2526Y182765D01*
X2502Y182753D01*
X2464Y182734D01*
X2427Y182710D01*
X2341Y182648D01*
X2303Y182610D01*
X2272Y182580D01*
X2266Y182573D01*
X2260Y182561D01*
X2248Y182536D01*
X2229Y182505D01*
X2217Y182468D01*
X2204Y182425D01*
X2198Y182375D01*
X2192Y182319D01*
Y182233D01*
X3566D01*
Y181181D01*
X174D01*
Y182926D01*
Y182932D01*
Y182951D01*
Y182976D01*
Y183007D01*
Y183050D01*
X180Y183093D01*
X186Y183205D01*
X193Y183322D01*
X211Y183446D01*
X230Y183564D01*
X261Y183669D01*
X267Y183681D01*
X279Y183712D01*
X298Y183762D01*
X329Y183818D01*
X372Y183886D01*
X428Y183954D01*
X490Y184022D01*
X570Y184084D01*
X583Y184090D01*
X607Y184108D01*
X657Y184133D01*
X725Y184164D01*
X805Y184195D01*
X898Y184220D01*
X1003Y184238D01*
X1121Y184245D01*
X1171D01*
X1220Y184238D01*
X1288Y184232D01*
X1362Y184214D01*
X1443Y184195D01*
X1530Y184164D01*
X1610Y184121D01*
X1616Y184115D01*
X1641Y184102D01*
X1678Y184071D01*
X1728Y184034D01*
X1777Y183985D01*
X1833Y183929D01*
X1889Y183861D01*
X1938Y183787D01*
X1944Y183780D01*
X1951Y183762D01*
X1969Y183731D01*
X1988Y183694D01*
X2006Y183638D01*
X2031Y183576D01*
X2050Y183502D01*
X2074Y183421D01*
Y183428D01*
X2087Y183452D01*
X2099Y183483D01*
X2111Y183527D01*
X2155Y183613D01*
X2173Y183657D01*
X2198Y183694D01*
X2204Y183706D01*
X2217Y183719D01*
X2235Y183737D01*
X2260Y183762D01*
X2291Y183787D01*
X2328Y183824D01*
X2378Y183861D01*
X2384Y183867D01*
X2402Y183879D01*
X2427Y183898D01*
X2452Y183923D01*
X2526Y183972D01*
X2557Y183991D01*
X2588Y184009D01*
X3566Y184523D01*
Y183335D01*
D02*
G37*
G36*
X9907Y189861D02*
X9913Y189848D01*
X9932Y189830D01*
X9956Y189805D01*
X10025Y189737D01*
X10111Y189656D01*
X10210Y189558D01*
X10334Y189458D01*
X10464Y189353D01*
X10600Y189260D01*
X10606Y189254D01*
X10619Y189248D01*
X10644Y189236D01*
X10681Y189211D01*
X10724Y189186D01*
X10774Y189161D01*
X10835Y189130D01*
X10897Y189093D01*
X10972Y189056D01*
X11052Y189019D01*
X11225Y188945D01*
X11417Y188870D01*
X11622Y188802D01*
X11628D01*
X11640Y188796D01*
X11665Y188790D01*
X11696Y188777D01*
X11739Y188771D01*
X11789Y188759D01*
X11844Y188740D01*
X11913Y188728D01*
X11987Y188716D01*
X12061Y188697D01*
X12241Y188672D01*
X12432Y188641D01*
X12649Y188623D01*
Y187682D01*
X12637D01*
X12612Y187688D01*
X12569Y187694D01*
X12513Y187700D01*
X12439Y187713D01*
X12358Y187725D01*
X12265Y187744D01*
X12166Y187762D01*
X12055Y187787D01*
X11943Y187812D01*
X11714Y187874D01*
X11479Y187942D01*
X11368Y187985D01*
X11263Y188029D01*
X11256D01*
X11238Y188041D01*
X11207Y188053D01*
X11163Y188072D01*
X11114Y188103D01*
X11052Y188134D01*
X10978Y188171D01*
X10897Y188214D01*
X10811Y188264D01*
X10718Y188320D01*
X10619Y188381D01*
X10514Y188450D01*
X10408Y188524D01*
X10291Y188604D01*
X10173Y188691D01*
X10056Y188784D01*
Y187112D01*
X9257D01*
Y189867D01*
X9901D01*
X9907Y189861D01*
D02*
G37*
G36*
X2569Y190664D02*
X2656Y190651D01*
X2749Y190633D01*
X2854Y190602D01*
X2960Y190565D01*
X3065Y190509D01*
X3077Y190503D01*
X3108Y190478D01*
X3158Y190441D01*
X3220Y190391D01*
X3288Y190329D01*
X3362Y190255D01*
X3424Y190162D01*
X3486Y190063D01*
X3492Y190051D01*
X3504Y190014D01*
X3529Y189952D01*
X3554Y189871D01*
X3579Y189772D01*
X3603Y189648D01*
X3616Y189512D01*
X3622Y189364D01*
Y189358D01*
Y189339D01*
Y189314D01*
Y189277D01*
X3616Y189234D01*
X3610Y189184D01*
X3597Y189073D01*
X3579Y188943D01*
X3548Y188807D01*
X3504Y188671D01*
X3449Y188547D01*
Y188540D01*
X3442Y188534D01*
X3418Y188497D01*
X3374Y188442D01*
X3312Y188367D01*
X3238Y188293D01*
X3145Y188206D01*
X3028Y188126D01*
X2898Y188051D01*
X2891D01*
X2879Y188045D01*
X2860Y188033D01*
X2829Y188027D01*
X2792Y188008D01*
X2743Y187996D01*
X2693Y187977D01*
X2631Y187965D01*
X2563Y187946D01*
X2483Y187928D01*
X2402Y187915D01*
X2310Y187903D01*
X2217Y187891D01*
X2111Y187878D01*
X2006Y187872D01*
X1802D01*
X1740Y187878D01*
X1666Y187884D01*
X1579Y187891D01*
X1480Y187903D01*
X1375Y187922D01*
X1158Y187965D01*
X1047Y187996D01*
X935Y188033D01*
X830Y188076D01*
X725Y188132D01*
X632Y188188D01*
X545Y188256D01*
X539Y188262D01*
X527Y188274D01*
X508Y188293D01*
X477Y188324D01*
X446Y188367D01*
X409Y188417D01*
X372Y188472D01*
X329Y188534D01*
X292Y188609D01*
X255Y188689D01*
X217Y188776D01*
X186Y188869D01*
X155Y188974D01*
X137Y189085D01*
X125Y189203D01*
X118Y189327D01*
Y189333D01*
Y189345D01*
Y189364D01*
Y189395D01*
X125Y189469D01*
X131Y189556D01*
X143Y189661D01*
X162Y189766D01*
X186Y189871D01*
X217Y189964D01*
X224Y189977D01*
X236Y190001D01*
X255Y190045D01*
X285Y190100D01*
X323Y190162D01*
X372Y190230D01*
X428Y190292D01*
X490Y190354D01*
X496Y190360D01*
X521Y190379D01*
X564Y190410D01*
X613Y190441D01*
X682Y190484D01*
X756Y190521D01*
X849Y190558D01*
X948Y190596D01*
X1059Y189661D01*
X1053D01*
X1028Y189655D01*
X991Y189642D01*
X954Y189630D01*
X861Y189587D01*
X824Y189562D01*
X787Y189531D01*
X781Y189525D01*
X775Y189518D01*
X762Y189500D01*
X744Y189475D01*
X713Y189407D01*
X706Y189364D01*
X700Y189320D01*
Y189308D01*
X706Y189283D01*
X713Y189240D01*
X731Y189190D01*
X756Y189128D01*
X799Y189073D01*
X855Y189011D01*
X935Y188961D01*
X942Y188955D01*
X972Y188949D01*
X1016Y188930D01*
X1047Y188918D01*
X1084Y188912D01*
X1134Y188900D01*
X1183Y188887D01*
X1239Y188875D01*
X1307Y188862D01*
X1381Y188856D01*
X1462Y188844D01*
X1548Y188831D01*
X1647Y188825D01*
X1641Y188831D01*
X1616Y188856D01*
X1585Y188887D01*
X1548Y188930D01*
X1511Y188986D01*
X1468Y189042D01*
X1424Y189104D01*
X1393Y189172D01*
X1387Y189178D01*
X1381Y189203D01*
X1369Y189240D01*
X1350Y189289D01*
X1332Y189351D01*
X1319Y189419D01*
X1313Y189500D01*
X1307Y189580D01*
Y189587D01*
Y189599D01*
Y189624D01*
X1313Y189655D01*
X1319Y189698D01*
X1325Y189741D01*
X1350Y189847D01*
X1387Y189970D01*
X1443Y190100D01*
X1480Y190168D01*
X1523Y190230D01*
X1579Y190292D01*
X1635Y190354D01*
X1641Y190360D01*
X1647Y190366D01*
X1666Y190385D01*
X1691Y190404D01*
X1722Y190428D01*
X1765Y190453D01*
X1808Y190484D01*
X1858Y190515D01*
X1975Y190571D01*
X2118Y190620D01*
X2272Y190657D01*
X2359Y190664D01*
X2452Y190670D01*
X2508D01*
X2569Y190664D01*
D02*
G37*
G36*
X-13630Y182510D02*
X-14664Y181947D01*
X-14670Y181941D01*
X-14695Y181928D01*
X-14732Y181910D01*
X-14769Y181885D01*
X-14856Y181823D01*
X-14893Y181786D01*
X-14924Y181755D01*
X-14930Y181749D01*
X-14936Y181736D01*
X-14949Y181712D01*
X-14967Y181681D01*
X-14980Y181644D01*
X-14992Y181600D01*
X-14998Y181551D01*
X-15005Y181495D01*
Y181408D01*
X-13630D01*
Y180356D01*
X-17023D01*
Y182102D01*
Y182108D01*
Y182126D01*
Y182151D01*
Y182182D01*
Y182225D01*
X-17016Y182269D01*
X-17010Y182380D01*
X-17004Y182498D01*
X-16985Y182622D01*
X-16967Y182739D01*
X-16936Y182844D01*
X-16930Y182857D01*
X-16917Y182888D01*
X-16899Y182937D01*
X-16868Y182993D01*
X-16825Y183061D01*
X-16769Y183129D01*
X-16707Y183197D01*
X-16626Y183259D01*
X-16614Y183265D01*
X-16589Y183284D01*
X-16540Y183309D01*
X-16472Y183340D01*
X-16391Y183371D01*
X-16298Y183395D01*
X-16193Y183414D01*
X-16075Y183420D01*
X-16026D01*
X-15976Y183414D01*
X-15908Y183408D01*
X-15834Y183389D01*
X-15754Y183371D01*
X-15667Y183340D01*
X-15586Y183296D01*
X-15580Y183290D01*
X-15555Y183278D01*
X-15518Y183247D01*
X-15469Y183210D01*
X-15419Y183160D01*
X-15364Y183104D01*
X-15308Y183036D01*
X-15258Y182962D01*
X-15252Y182956D01*
X-15246Y182937D01*
X-15227Y182906D01*
X-15209Y182869D01*
X-15190Y182814D01*
X-15166Y182752D01*
X-15147Y182677D01*
X-15122Y182597D01*
Y182603D01*
X-15110Y182628D01*
X-15098Y182659D01*
X-15085Y182702D01*
X-15042Y182789D01*
X-15023Y182832D01*
X-14998Y182869D01*
X-14992Y182882D01*
X-14980Y182894D01*
X-14961Y182913D01*
X-14936Y182937D01*
X-14906Y182962D01*
X-14868Y182999D01*
X-14819Y183036D01*
X-14813Y183043D01*
X-14794Y183055D01*
X-14769Y183073D01*
X-14745Y183098D01*
X-14670Y183148D01*
X-14639Y183166D01*
X-14608Y183185D01*
X-13630Y183699D01*
Y182510D01*
D02*
G37*
G36*
X-23587Y190258D02*
X-23513Y190245D01*
X-23420Y190227D01*
X-23327Y190196D01*
X-23228Y190158D01*
X-23123Y190103D01*
X-23110Y190097D01*
X-23079Y190072D01*
X-23030Y190041D01*
X-22968Y189991D01*
X-22900Y189923D01*
X-22832Y189849D01*
X-22763Y189762D01*
X-22702Y189657D01*
Y189651D01*
X-22695Y189645D01*
X-22689Y189626D01*
X-22677Y189601D01*
X-22671Y189577D01*
X-22658Y189540D01*
X-22634Y189453D01*
X-22603Y189341D01*
X-22584Y189211D01*
X-22566Y189057D01*
X-22559Y188890D01*
Y188883D01*
Y188871D01*
Y188846D01*
Y188815D01*
X-22566Y188778D01*
Y188729D01*
X-22572Y188630D01*
X-22584Y188512D01*
X-22603Y188388D01*
X-22627Y188271D01*
X-22664Y188159D01*
X-22671Y188147D01*
X-22683Y188116D01*
X-22708Y188066D01*
X-22745Y188004D01*
X-22788Y187936D01*
X-22844Y187862D01*
X-22906Y187788D01*
X-22980Y187720D01*
X-22993Y187714D01*
X-23017Y187689D01*
X-23061Y187658D01*
X-23123Y187621D01*
X-23203Y187577D01*
X-23290Y187540D01*
X-23395Y187497D01*
X-23506Y187460D01*
X-23636Y188401D01*
X-23624D01*
X-23593Y188413D01*
X-23543Y188425D01*
X-23482Y188444D01*
X-23352Y188493D01*
X-23290Y188531D01*
X-23240Y188568D01*
X-23234Y188574D01*
X-23222Y188586D01*
X-23209Y188617D01*
X-23191Y188648D01*
X-23166Y188691D01*
X-23154Y188747D01*
X-23141Y188803D01*
X-23135Y188871D01*
Y188877D01*
Y188902D01*
X-23141Y188939D01*
X-23154Y188982D01*
X-23166Y189032D01*
X-23191Y189088D01*
X-23228Y189137D01*
X-23271Y189187D01*
X-23277Y189193D01*
X-23296Y189205D01*
X-23327Y189230D01*
X-23370Y189255D01*
X-23420Y189273D01*
X-23488Y189298D01*
X-23562Y189311D01*
X-23642Y189317D01*
X-23680D01*
X-23723Y189311D01*
X-23779Y189304D01*
X-23834Y189286D01*
X-23896Y189267D01*
X-23952Y189236D01*
X-24008Y189193D01*
X-24014Y189187D01*
X-24026Y189168D01*
X-24051Y189143D01*
X-24076Y189106D01*
X-24094Y189057D01*
X-24119Y189001D01*
X-24132Y188933D01*
X-24138Y188859D01*
Y188852D01*
Y188840D01*
Y188815D01*
X-24132Y188778D01*
X-24125Y188735D01*
X-24113Y188685D01*
X-24101Y188623D01*
X-24082Y188555D01*
X-24750Y188599D01*
Y188605D01*
Y188611D01*
Y188642D01*
X-24744Y188685D01*
Y188723D01*
Y188729D01*
Y188753D01*
X-24750Y188791D01*
X-24757Y188834D01*
X-24769Y188877D01*
X-24794Y188933D01*
X-24819Y188982D01*
X-24856Y189032D01*
X-24862Y189038D01*
X-24874Y189050D01*
X-24899Y189075D01*
X-24936Y189100D01*
X-24973Y189119D01*
X-25023Y189143D01*
X-25079Y189156D01*
X-25134Y189162D01*
X-25159D01*
X-25190Y189156D01*
X-25221Y189150D01*
X-25264Y189137D01*
X-25301Y189125D01*
X-25345Y189100D01*
X-25382Y189069D01*
X-25388Y189063D01*
X-25394Y189050D01*
X-25413Y189032D01*
X-25431Y189001D01*
X-25444Y188964D01*
X-25462Y188920D01*
X-25469Y188871D01*
X-25475Y188809D01*
Y188803D01*
Y188784D01*
X-25469Y188753D01*
X-25462Y188710D01*
X-25450Y188667D01*
X-25431Y188623D01*
X-25407Y188580D01*
X-25370Y188537D01*
X-25363Y188531D01*
X-25351Y188518D01*
X-25326Y188506D01*
X-25289Y188481D01*
X-25240Y188462D01*
X-25184Y188438D01*
X-25109Y188419D01*
X-25023Y188401D01*
X-25178Y187509D01*
X-25184D01*
X-25196Y187515D01*
X-25221Y187522D01*
X-25246Y187528D01*
X-25283Y187546D01*
X-25326Y187559D01*
X-25419Y187602D01*
X-25524Y187658D01*
X-25636Y187732D01*
X-25741Y187819D01*
X-25834Y187930D01*
Y187936D01*
X-25846Y187943D01*
X-25852Y187961D01*
X-25871Y187992D01*
X-25890Y188023D01*
X-25908Y188060D01*
X-25927Y188110D01*
X-25951Y188165D01*
X-25970Y188221D01*
X-25989Y188289D01*
X-26007Y188363D01*
X-26026Y188444D01*
X-26044Y188531D01*
X-26050Y188623D01*
X-26063Y188828D01*
Y188834D01*
Y188859D01*
Y188890D01*
X-26057Y188939D01*
Y188995D01*
X-26050Y189057D01*
X-26044Y189125D01*
X-26032Y189199D01*
X-26001Y189360D01*
X-25958Y189515D01*
X-25896Y189670D01*
X-25859Y189731D01*
X-25815Y189793D01*
Y189799D01*
X-25803Y189806D01*
X-25772Y189843D01*
X-25716Y189886D01*
X-25642Y189942D01*
X-25555Y189998D01*
X-25450Y190047D01*
X-25326Y190078D01*
X-25258Y190084D01*
X-25190Y190091D01*
X-25153D01*
X-25109Y190084D01*
X-25060Y190078D01*
X-24998Y190059D01*
X-24930Y190041D01*
X-24862Y190010D01*
X-24794Y189967D01*
X-24788Y189961D01*
X-24763Y189942D01*
X-24732Y189917D01*
X-24689Y189880D01*
X-24645Y189831D01*
X-24590Y189769D01*
X-24534Y189694D01*
X-24484Y189608D01*
Y189614D01*
X-24478Y189639D01*
X-24466Y189676D01*
X-24453Y189719D01*
X-24416Y189812D01*
X-24398Y189861D01*
X-24373Y189905D01*
X-24367Y189911D01*
X-24354Y189929D01*
X-24330Y189961D01*
X-24299Y189998D01*
X-24261Y190041D01*
X-24212Y190084D01*
X-24156Y190128D01*
X-24094Y190165D01*
X-24088Y190171D01*
X-24063Y190183D01*
X-24026Y190196D01*
X-23983Y190214D01*
X-23921Y190233D01*
X-23853Y190251D01*
X-23779Y190258D01*
X-23692Y190264D01*
X-23642D01*
X-23587Y190258D01*
D02*
G37*
G36*
X-22615Y185510D02*
X-24868D01*
X-24862Y185497D01*
X-24837Y185473D01*
X-24806Y185423D01*
X-24763Y185368D01*
X-24720Y185299D01*
X-24670Y185219D01*
X-24621Y185138D01*
X-24577Y185058D01*
X-24571Y185046D01*
X-24559Y185021D01*
X-24540Y184971D01*
X-24515Y184909D01*
X-24484Y184829D01*
X-24447Y184742D01*
X-24416Y184637D01*
X-24379Y184520D01*
X-25147D01*
Y184526D01*
X-25153Y184538D01*
X-25165Y184563D01*
X-25171Y184600D01*
X-25190Y184637D01*
X-25209Y184687D01*
X-25252Y184792D01*
X-25308Y184909D01*
X-25370Y185033D01*
X-25438Y185157D01*
X-25518Y185262D01*
Y185268D01*
X-25530Y185275D01*
X-25555Y185306D01*
X-25605Y185355D01*
X-25673Y185417D01*
X-25747Y185485D01*
X-25840Y185553D01*
X-25945Y185621D01*
X-26063Y185683D01*
Y186463D01*
X-22615D01*
Y185510D01*
D02*
G37*
G36*
X-66743Y238337D02*
X-66687D01*
X-66631Y238331D01*
X-66563Y238324D01*
X-66489Y238318D01*
X-66334Y238294D01*
X-66167Y238256D01*
X-66006Y238207D01*
X-65851Y238139D01*
X-65845D01*
X-65833Y238126D01*
X-65814Y238114D01*
X-65790Y238102D01*
X-65721Y238052D01*
X-65635Y237984D01*
X-65542Y237904D01*
X-65443Y237798D01*
X-65350Y237675D01*
X-65263Y237532D01*
Y237526D01*
X-65257Y237514D01*
X-65245Y237489D01*
X-65232Y237458D01*
X-65214Y237421D01*
X-65201Y237378D01*
X-65183Y237322D01*
X-65164Y237260D01*
X-65140Y237198D01*
X-65121Y237124D01*
X-65090Y236963D01*
X-65065Y236783D01*
X-65059Y236591D01*
Y236585D01*
Y236567D01*
Y236536D01*
X-65065Y236498D01*
Y236449D01*
X-65071Y236393D01*
X-65078Y236331D01*
X-65090Y236263D01*
X-65115Y236115D01*
X-65158Y235954D01*
X-65214Y235793D01*
X-65288Y235632D01*
Y235626D01*
X-65301Y235613D01*
X-65313Y235595D01*
X-65331Y235564D01*
X-65381Y235490D01*
X-65455Y235397D01*
X-65554Y235298D01*
X-65666Y235192D01*
X-65802Y235093D01*
X-65957Y235007D01*
X-65963D01*
X-65975Y235000D01*
X-65994Y234988D01*
X-66018Y234982D01*
X-66056Y234970D01*
X-66099Y234951D01*
X-66149Y234939D01*
X-66204Y234920D01*
X-66266Y234908D01*
X-66340Y234895D01*
X-66415Y234877D01*
X-66495Y234864D01*
X-66588Y234852D01*
X-66681Y234846D01*
X-66891Y234840D01*
X-67034D01*
X-67083Y234846D01*
X-67207Y234852D01*
X-67343Y234864D01*
X-67485Y234883D01*
X-67615Y234908D01*
X-67677Y234926D01*
X-67733Y234945D01*
X-67739D01*
X-67746Y234951D01*
X-67783Y234963D01*
X-67832Y234988D01*
X-67894Y235019D01*
X-67968Y235062D01*
X-68049Y235118D01*
X-68123Y235186D01*
X-68197Y235261D01*
X-68204Y235273D01*
X-68228Y235298D01*
X-68259Y235347D01*
X-68303Y235409D01*
X-68346Y235483D01*
X-68396Y235576D01*
X-68439Y235681D01*
X-68476Y235799D01*
X-67467Y235979D01*
Y235972D01*
X-67455Y235948D01*
X-67436Y235910D01*
X-67417Y235867D01*
X-67387Y235824D01*
X-67349Y235774D01*
X-67300Y235731D01*
X-67250Y235688D01*
X-67244Y235681D01*
X-67225Y235669D01*
X-67188Y235657D01*
X-67145Y235632D01*
X-67089Y235613D01*
X-67027Y235601D01*
X-66953Y235589D01*
X-66866Y235582D01*
X-66836D01*
X-66811Y235589D01*
X-66749Y235595D01*
X-66668Y235613D01*
X-66582Y235638D01*
X-66489Y235681D01*
X-66396Y235743D01*
X-66316Y235824D01*
X-66309Y235836D01*
X-66285Y235867D01*
X-66254Y235929D01*
X-66217Y236010D01*
X-66173Y236115D01*
X-66161Y236177D01*
X-66142Y236245D01*
X-66130Y236319D01*
X-66118Y236399D01*
X-66111Y236486D01*
Y236579D01*
Y236585D01*
Y236604D01*
Y236629D01*
X-66118Y236666D01*
Y236715D01*
X-66124Y236765D01*
X-66136Y236882D01*
X-66161Y237012D01*
X-66198Y237142D01*
X-66247Y237266D01*
X-66278Y237316D01*
X-66316Y237365D01*
X-66328Y237378D01*
X-66353Y237402D01*
X-66402Y237439D01*
X-66470Y237483D01*
X-66551Y237526D01*
X-66650Y237563D01*
X-66768Y237588D01*
X-66897Y237600D01*
X-66959D01*
X-67003Y237594D01*
X-67058Y237588D01*
X-67114Y237582D01*
X-67232Y237551D01*
X-67238D01*
X-67263Y237538D01*
X-67294Y237526D01*
X-67337Y237508D01*
X-67393Y237489D01*
X-67455Y237458D01*
X-67529Y237421D01*
X-67603Y237378D01*
Y237056D01*
X-66897D01*
Y236350D01*
X-68519D01*
Y237798D01*
X-68513Y237805D01*
X-68501Y237811D01*
X-68476Y237829D01*
X-68439Y237848D01*
X-68402Y237873D01*
X-68352Y237904D01*
X-68241Y237972D01*
X-68111Y238040D01*
X-67968Y238114D01*
X-67826Y238182D01*
X-67690Y238232D01*
X-67684D01*
X-67671Y238238D01*
X-67653Y238244D01*
X-67628Y238250D01*
X-67591Y238256D01*
X-67554Y238269D01*
X-67504Y238275D01*
X-67455Y238287D01*
X-67331Y238306D01*
X-67182Y238324D01*
X-67021Y238337D01*
X-66842Y238343D01*
X-66786D01*
X-66743Y238337D01*
D02*
G37*
G36*
X-73100Y234895D02*
X-74728D01*
X-74771Y234901D01*
X-74814D01*
X-74920Y234914D01*
X-75043Y234926D01*
X-75167Y234951D01*
X-75291Y234982D01*
X-75402Y235025D01*
X-75409D01*
X-75415Y235032D01*
X-75452Y235050D01*
X-75502Y235075D01*
X-75570Y235118D01*
X-75644Y235168D01*
X-75724Y235229D01*
X-75799Y235304D01*
X-75873Y235384D01*
X-75879Y235397D01*
X-75904Y235428D01*
X-75935Y235471D01*
X-75978Y235539D01*
X-76021Y235619D01*
X-76065Y235712D01*
X-76102Y235818D01*
X-76139Y235929D01*
Y235935D01*
X-76145Y235941D01*
Y235960D01*
X-76152Y235985D01*
X-76164Y236047D01*
X-76183Y236127D01*
X-76201Y236226D01*
X-76213Y236338D01*
X-76220Y236455D01*
X-76226Y236585D01*
Y236591D01*
Y236610D01*
Y236635D01*
Y236672D01*
X-76220Y236721D01*
Y236771D01*
X-76207Y236895D01*
X-76195Y237025D01*
X-76170Y237167D01*
X-76139Y237303D01*
X-76096Y237427D01*
Y237433D01*
X-76090Y237439D01*
X-76071Y237476D01*
X-76046Y237532D01*
X-76009Y237600D01*
X-75960Y237681D01*
X-75898Y237761D01*
X-75830Y237848D01*
X-75749Y237928D01*
X-75737Y237935D01*
X-75712Y237959D01*
X-75669Y237997D01*
X-75613Y238040D01*
X-75539Y238083D01*
X-75464Y238126D01*
X-75378Y238170D01*
X-75285Y238201D01*
X-75279D01*
X-75273Y238207D01*
X-75254D01*
X-75229Y238213D01*
X-75161Y238226D01*
X-75074Y238244D01*
X-74982Y238263D01*
X-74870Y238275D01*
X-74765Y238281D01*
X-74654Y238287D01*
X-73100D01*
Y234895D01*
D02*
G37*
G36*
X-14262Y189492D02*
X-13630D01*
Y188669D01*
X-14262D01*
Y186948D01*
X-15036D01*
X-17078Y188669D01*
Y189492D01*
X-14992D01*
Y189920D01*
X-14262D01*
Y189492D01*
D02*
G37*
G36*
X-13630Y185067D02*
X-15884D01*
X-15877Y185054D01*
X-15853Y185029D01*
X-15822Y184980D01*
X-15778Y184924D01*
X-15735Y184856D01*
X-15686Y184776D01*
X-15636Y184695D01*
X-15593Y184615D01*
X-15586Y184602D01*
X-15574Y184578D01*
X-15555Y184528D01*
X-15531Y184466D01*
X-15500Y184386D01*
X-15463Y184299D01*
X-15432Y184194D01*
X-15395Y184076D01*
X-16162D01*
Y184082D01*
X-16168Y184095D01*
X-16181Y184120D01*
X-16187Y184157D01*
X-16206Y184194D01*
X-16224Y184243D01*
X-16267Y184349D01*
X-16323Y184466D01*
X-16385Y184590D01*
X-16453Y184714D01*
X-16533Y184819D01*
Y184825D01*
X-16546Y184831D01*
X-16571Y184862D01*
X-16620Y184912D01*
X-16688Y184974D01*
X-16763Y185042D01*
X-16855Y185110D01*
X-16961Y185178D01*
X-17078Y185240D01*
Y186020D01*
X-13630D01*
Y185067D01*
D02*
G37*
G36*
X-22615Y182953D02*
X-23649Y182390D01*
X-23655Y182384D01*
X-23680Y182371D01*
X-23717Y182353D01*
X-23754Y182328D01*
X-23841Y182266D01*
X-23878Y182229D01*
X-23909Y182198D01*
X-23915Y182192D01*
X-23921Y182180D01*
X-23933Y182155D01*
X-23952Y182124D01*
X-23964Y182087D01*
X-23977Y182044D01*
X-23983Y181994D01*
X-23989Y181938D01*
Y181852D01*
X-22615D01*
Y180799D01*
X-26007D01*
Y182545D01*
Y182551D01*
Y182570D01*
Y182594D01*
Y182625D01*
Y182669D01*
X-26001Y182712D01*
X-25995Y182823D01*
X-25989Y182941D01*
X-25970Y183065D01*
X-25951Y183182D01*
X-25920Y183288D01*
X-25914Y183300D01*
X-25902Y183331D01*
X-25883Y183380D01*
X-25852Y183436D01*
X-25809Y183504D01*
X-25753Y183572D01*
X-25691Y183641D01*
X-25611Y183702D01*
X-25599Y183709D01*
X-25574Y183727D01*
X-25524Y183752D01*
X-25456Y183783D01*
X-25376Y183814D01*
X-25283Y183839D01*
X-25178Y183857D01*
X-25060Y183863D01*
X-25010D01*
X-24961Y183857D01*
X-24893Y183851D01*
X-24819Y183832D01*
X-24738Y183814D01*
X-24652Y183783D01*
X-24571Y183739D01*
X-24565Y183733D01*
X-24540Y183721D01*
X-24503Y183690D01*
X-24453Y183653D01*
X-24404Y183603D01*
X-24348Y183548D01*
X-24293Y183479D01*
X-24243Y183405D01*
X-24237Y183399D01*
X-24231Y183380D01*
X-24212Y183350D01*
X-24193Y183312D01*
X-24175Y183257D01*
X-24150Y183195D01*
X-24132Y183121D01*
X-24107Y183040D01*
Y183046D01*
X-24094Y183071D01*
X-24082Y183102D01*
X-24070Y183145D01*
X-24026Y183232D01*
X-24008Y183275D01*
X-23983Y183312D01*
X-23977Y183325D01*
X-23964Y183337D01*
X-23946Y183356D01*
X-23921Y183380D01*
X-23890Y183405D01*
X-23853Y183442D01*
X-23803Y183479D01*
X-23797Y183486D01*
X-23779Y183498D01*
X-23754Y183517D01*
X-23729Y183541D01*
X-23655Y183591D01*
X-23624Y183609D01*
X-23593Y183628D01*
X-22615Y184142D01*
Y182953D01*
D02*
G37*
G36*
X12649Y182563D02*
X11615Y182000D01*
X11609Y181993D01*
X11584Y181981D01*
X11547Y181962D01*
X11510Y181938D01*
X11423Y181876D01*
X11386Y181839D01*
X11355Y181808D01*
X11349Y181801D01*
X11343Y181789D01*
X11331Y181764D01*
X11312Y181733D01*
X11300Y181696D01*
X11287Y181653D01*
X11281Y181603D01*
X11275Y181548D01*
Y181461D01*
X12649D01*
Y180409D01*
X9257D01*
Y182154D01*
Y182160D01*
Y182179D01*
Y182204D01*
Y182235D01*
Y182278D01*
X9263Y182321D01*
X9269Y182433D01*
X9276Y182550D01*
X9294Y182674D01*
X9313Y182792D01*
X9344Y182897D01*
X9350Y182909D01*
X9362Y182940D01*
X9381Y182990D01*
X9412Y183046D01*
X9455Y183114D01*
X9511Y183182D01*
X9573Y183250D01*
X9653Y183312D01*
X9665Y183318D01*
X9690Y183336D01*
X9740Y183361D01*
X9808Y183392D01*
X9888Y183423D01*
X9981Y183448D01*
X10086Y183466D01*
X10204Y183473D01*
X10254D01*
X10303Y183466D01*
X10371Y183460D01*
X10446Y183442D01*
X10526Y183423D01*
X10613Y183392D01*
X10693Y183349D01*
X10699Y183343D01*
X10724Y183330D01*
X10761Y183299D01*
X10811Y183262D01*
X10860Y183213D01*
X10916Y183157D01*
X10972Y183089D01*
X11021Y183015D01*
X11027Y183008D01*
X11033Y182990D01*
X11052Y182959D01*
X11071Y182922D01*
X11089Y182866D01*
X11114Y182804D01*
X11133Y182730D01*
X11157Y182649D01*
Y182656D01*
X11170Y182680D01*
X11182Y182711D01*
X11195Y182755D01*
X11238Y182841D01*
X11256Y182885D01*
X11281Y182922D01*
X11287Y182934D01*
X11300Y182947D01*
X11318Y182965D01*
X11343Y182990D01*
X11374Y183015D01*
X11411Y183052D01*
X11461Y183089D01*
X11467Y183095D01*
X11485Y183107D01*
X11510Y183126D01*
X11535Y183151D01*
X11609Y183200D01*
X11640Y183219D01*
X11671Y183238D01*
X12649Y183751D01*
Y182563D01*
D02*
G37*
G36*
X16275Y264977D02*
X16386Y264971D01*
X16504Y264965D01*
X16628Y264946D01*
X16745Y264928D01*
X16851Y264897D01*
X16863Y264891D01*
X16894Y264878D01*
X16943Y264860D01*
X16999Y264829D01*
X17067Y264785D01*
X17135Y264730D01*
X17203Y264668D01*
X17265Y264587D01*
X17271Y264575D01*
X17290Y264550D01*
X17315Y264501D01*
X17346Y264433D01*
X17377Y264352D01*
X17402Y264259D01*
X17420Y264154D01*
X17426Y264036D01*
Y264024D01*
Y263987D01*
X17420Y263937D01*
X17414Y263869D01*
X17395Y263795D01*
X17377Y263715D01*
X17346Y263628D01*
X17302Y263547D01*
X17296Y263541D01*
X17284Y263516D01*
X17253Y263479D01*
X17216Y263430D01*
X17166Y263380D01*
X17111Y263324D01*
X17042Y263269D01*
X16968Y263219D01*
X16962Y263213D01*
X16943Y263207D01*
X16913Y263188D01*
X16875Y263170D01*
X16820Y263151D01*
X16758Y263126D01*
X16683Y263108D01*
X16603Y263083D01*
X16609D01*
X16634Y263071D01*
X16665Y263058D01*
X16708Y263046D01*
X16795Y263003D01*
X16838Y262984D01*
X16875Y262959D01*
X16888Y262953D01*
X16900Y262941D01*
X16919Y262922D01*
X16943Y262897D01*
X16968Y262866D01*
X17005Y262829D01*
X17042Y262780D01*
X17049Y262774D01*
X17061Y262755D01*
X17080Y262730D01*
X17104Y262705D01*
X17154Y262631D01*
X17173Y262600D01*
X17191Y262569D01*
X17705Y261591D01*
X16516D01*
X15953Y262625D01*
X15947Y262631D01*
X15935Y262656D01*
X15916Y262693D01*
X15891Y262730D01*
X15829Y262817D01*
X15792Y262854D01*
X15761Y262885D01*
X15755Y262891D01*
X15743Y262897D01*
X15718Y262910D01*
X15687Y262928D01*
X15650Y262941D01*
X15606Y262953D01*
X15557Y262959D01*
X15501Y262965D01*
X15415D01*
Y261591D01*
X14362D01*
Y264984D01*
X16232D01*
X16275Y264977D01*
D02*
G37*
G36*
X-8035Y45415D02*
X-9087D01*
Y46790D01*
X-10238D01*
Y45415D01*
X-11284D01*
Y48808D01*
X-10238D01*
Y47625D01*
X-9087D01*
Y48808D01*
X-8035D01*
Y45415D01*
D02*
G37*
G36*
X33287Y247221D02*
X33361Y247209D01*
X33442Y247197D01*
X33522Y247172D01*
X33609Y247135D01*
X33689Y247091D01*
X33702Y247085D01*
X33726Y247067D01*
X33764Y247036D01*
X33807Y246986D01*
X33863Y246924D01*
X33912Y246856D01*
X33968Y246763D01*
X34011Y246664D01*
X34017Y246677D01*
X34030Y246701D01*
X34054Y246739D01*
X34085Y246788D01*
X34129Y246838D01*
X34172Y246893D01*
X34222Y246943D01*
X34271Y246986D01*
X34277Y246992D01*
X34308Y247005D01*
X34345Y247029D01*
X34401Y247054D01*
X34469Y247079D01*
X34550Y247104D01*
X34636Y247116D01*
X34729Y247122D01*
X34773D01*
X34797Y247116D01*
X34834Y247110D01*
X34878Y247104D01*
X34977Y247073D01*
X35082Y247023D01*
X35144Y246992D01*
X35200Y246955D01*
X35255Y246912D01*
X35317Y246856D01*
X35373Y246794D01*
X35422Y246726D01*
Y246720D01*
X35429Y246714D01*
X35441Y246695D01*
X35453Y246670D01*
X35472Y246639D01*
X35491Y246596D01*
X35509Y246553D01*
X35528Y246503D01*
X35565Y246386D01*
X35602Y246243D01*
X35627Y246082D01*
X35633Y245897D01*
Y245890D01*
Y245866D01*
Y245829D01*
X35627Y245785D01*
Y245730D01*
X35620Y245661D01*
X35614Y245593D01*
X35602Y245513D01*
X35571Y245352D01*
X35522Y245185D01*
X35460Y245024D01*
X35416Y244956D01*
X35373Y244888D01*
Y244882D01*
X35361Y244875D01*
X35323Y244838D01*
X35268Y244782D01*
X35193Y244721D01*
X35100Y244665D01*
X34989Y244609D01*
X34865Y244572D01*
X34797Y244566D01*
X34723Y244560D01*
X34686D01*
X34642Y244566D01*
X34587Y244578D01*
X34519Y244591D01*
X34444Y244615D01*
X34370Y244646D01*
X34296Y244690D01*
X34290Y244696D01*
X34271Y244708D01*
X34240Y244733D01*
X34203Y244764D01*
X34160Y244807D01*
X34116Y244863D01*
X34061Y244925D01*
X34011Y244999D01*
Y244993D01*
X34005Y244987D01*
X33986Y244956D01*
X33955Y244906D01*
X33918Y244844D01*
X33869Y244776D01*
X33807Y244708D01*
X33739Y244640D01*
X33658Y244584D01*
X33646Y244578D01*
X33621Y244566D01*
X33578Y244541D01*
X33516Y244516D01*
X33448Y244492D01*
X33361Y244467D01*
X33274Y244454D01*
X33176Y244448D01*
X33132D01*
X33083Y244454D01*
X33021Y244461D01*
X32946Y244479D01*
X32866Y244498D01*
X32785Y244529D01*
X32699Y244566D01*
X32686Y244572D01*
X32662Y244584D01*
X32625Y244609D01*
X32575Y244646D01*
X32519Y244690D01*
X32464Y244739D01*
X32408Y244795D01*
X32358Y244857D01*
X32352Y244863D01*
X32340Y244888D01*
X32321Y244925D01*
X32290Y244974D01*
X32265Y245036D01*
X32235Y245104D01*
X32210Y245191D01*
X32185Y245284D01*
Y245296D01*
X32179Y245327D01*
X32166Y245377D01*
X32160Y245445D01*
X32148Y245525D01*
X32135Y245618D01*
X32129Y245717D01*
Y245822D01*
Y245829D01*
Y245847D01*
Y245872D01*
Y245909D01*
X32135Y245959D01*
Y246008D01*
X32148Y246126D01*
X32160Y246262D01*
X32179Y246398D01*
X32210Y246534D01*
X32253Y246652D01*
X32259Y246664D01*
X32278Y246701D01*
X32309Y246751D01*
X32352Y246813D01*
X32402Y246881D01*
X32470Y246955D01*
X32544Y247023D01*
X32631Y247085D01*
X32643Y247091D01*
X32674Y247110D01*
X32724Y247129D01*
X32792Y247153D01*
X32872Y247184D01*
X32965Y247203D01*
X33070Y247221D01*
X33182Y247228D01*
X33231D01*
X33287Y247221D01*
D02*
G37*
G36*
X33968Y250880D02*
X34023D01*
X34098Y250873D01*
X34178Y250861D01*
X34265Y250849D01*
X34364Y250830D01*
X34469Y250805D01*
X34574Y250774D01*
X34680Y250744D01*
X34791Y250700D01*
X34896Y250644D01*
X34995Y250589D01*
X35094Y250521D01*
X35181Y250440D01*
X35187Y250434D01*
X35200Y250422D01*
X35224Y250391D01*
X35249Y250360D01*
X35286Y250310D01*
X35323Y250255D01*
X35367Y250193D01*
X35410Y250112D01*
X35447Y250032D01*
X35491Y249933D01*
X35528Y249827D01*
X35565Y249716D01*
X35590Y249592D01*
X35614Y249462D01*
X35627Y249320D01*
X35633Y249171D01*
Y249165D01*
Y249140D01*
Y249109D01*
X35627Y249066D01*
Y249010D01*
X35620Y248948D01*
X35614Y248880D01*
X35602Y248806D01*
X35571Y248639D01*
X35522Y248472D01*
X35460Y248311D01*
X35416Y248236D01*
X35373Y248162D01*
Y248156D01*
X35361Y248144D01*
X35348Y248125D01*
X35323Y248100D01*
X35299Y248069D01*
X35261Y248032D01*
X35224Y247995D01*
X35175Y247952D01*
X35125Y247908D01*
X35063Y247865D01*
X35002Y247816D01*
X34927Y247772D01*
X34847Y247729D01*
X34766Y247686D01*
X34673Y247649D01*
X34574Y247611D01*
X34370Y248540D01*
X34376D01*
X34395Y248546D01*
X34426Y248558D01*
X34457Y248571D01*
X34531Y248608D01*
X34562Y248626D01*
X34593Y248645D01*
X34599Y248651D01*
X34611Y248657D01*
X34636Y248682D01*
X34661Y248707D01*
X34723Y248775D01*
X34779Y248862D01*
X34785Y248868D01*
X34791Y248880D01*
X34803Y248911D01*
X34816Y248942D01*
X34828Y248986D01*
X34834Y249035D01*
X34847Y249091D01*
Y249147D01*
Y249153D01*
Y249165D01*
Y249184D01*
X34841Y249202D01*
X34834Y249270D01*
X34810Y249351D01*
X34779Y249437D01*
X34723Y249530D01*
X34655Y249617D01*
X34605Y249654D01*
X34556Y249691D01*
X34543Y249697D01*
X34519Y249716D01*
X34463Y249734D01*
X34395Y249759D01*
X34302Y249790D01*
X34191Y249809D01*
X34054Y249827D01*
X33893Y249833D01*
X33801D01*
X33757Y249827D01*
X33702D01*
X33584Y249815D01*
X33460Y249790D01*
X33330Y249765D01*
X33213Y249722D01*
X33163Y249697D01*
X33120Y249666D01*
X33114Y249660D01*
X33089Y249636D01*
X33058Y249592D01*
X33021Y249543D01*
X32977Y249475D01*
X32946Y249388D01*
X32922Y249295D01*
X32915Y249184D01*
Y249177D01*
Y249171D01*
Y249134D01*
X32922Y249078D01*
X32934Y249010D01*
X32959Y248936D01*
X32984Y248862D01*
X33027Y248787D01*
X33083Y248726D01*
X33089Y248719D01*
X33114Y248701D01*
X33151Y248670D01*
X33206Y248639D01*
X33274Y248602D01*
X33361Y248565D01*
X33460Y248527D01*
X33578Y248497D01*
X33293Y247580D01*
X33287D01*
X33274Y247587D01*
X33256Y247593D01*
X33231Y247599D01*
X33157Y247618D01*
X33070Y247655D01*
X32965Y247692D01*
X32860Y247747D01*
X32754Y247803D01*
X32649Y247878D01*
X32637Y247884D01*
X32606Y247915D01*
X32563Y247958D01*
X32501Y248014D01*
X32439Y248088D01*
X32377Y248168D01*
X32315Y248268D01*
X32259Y248373D01*
Y248379D01*
X32253Y248385D01*
X32247Y248404D01*
X32241Y248422D01*
X32216Y248490D01*
X32197Y248577D01*
X32173Y248682D01*
X32148Y248812D01*
X32135Y248961D01*
X32129Y249122D01*
Y249128D01*
Y249147D01*
Y249177D01*
Y249215D01*
X32135Y249264D01*
Y249314D01*
X32142Y249376D01*
X32148Y249444D01*
X32166Y249586D01*
X32197Y249741D01*
X32235Y249889D01*
X32284Y250032D01*
Y250038D01*
X32290Y250044D01*
X32303Y250063D01*
X32315Y250087D01*
X32358Y250155D01*
X32414Y250236D01*
X32495Y250329D01*
X32587Y250434D01*
X32705Y250533D01*
X32847Y250632D01*
X32854D01*
X32866Y250644D01*
X32891Y250657D01*
X32922Y250669D01*
X32959Y250688D01*
X33008Y250712D01*
X33064Y250737D01*
X33132Y250756D01*
X33200Y250781D01*
X33281Y250805D01*
X33367Y250824D01*
X33460Y250849D01*
X33559Y250861D01*
X33665Y250873D01*
X33887Y250886D01*
X33924D01*
X33968Y250880D01*
D02*
G37*
G36*
X-6041Y48857D02*
X-5986D01*
X-5924Y48851D01*
X-5856Y48845D01*
X-5781Y48832D01*
X-5621Y48801D01*
X-5466Y48758D01*
X-5311Y48696D01*
X-5249Y48659D01*
X-5187Y48616D01*
X-5181D01*
X-5175Y48603D01*
X-5138Y48572D01*
X-5094Y48517D01*
X-5039Y48443D01*
X-4983Y48356D01*
X-4933Y48251D01*
X-4902Y48127D01*
X-4896Y48059D01*
X-4890Y47991D01*
Y47978D01*
Y47953D01*
X-4896Y47910D01*
X-4902Y47861D01*
X-4921Y47799D01*
X-4940Y47731D01*
X-4971Y47662D01*
X-5014Y47594D01*
X-5020Y47588D01*
X-5039Y47563D01*
X-5063Y47532D01*
X-5100Y47489D01*
X-5150Y47446D01*
X-5212Y47390D01*
X-5286Y47334D01*
X-5373Y47285D01*
X-5367D01*
X-5342Y47279D01*
X-5305Y47266D01*
X-5262Y47254D01*
X-5169Y47217D01*
X-5119Y47198D01*
X-5076Y47174D01*
X-5070Y47167D01*
X-5051Y47155D01*
X-5020Y47130D01*
X-4983Y47099D01*
X-4940Y47062D01*
X-4896Y47013D01*
X-4853Y46957D01*
X-4816Y46895D01*
X-4810Y46889D01*
X-4797Y46864D01*
X-4785Y46827D01*
X-4766Y46784D01*
X-4748Y46722D01*
X-4729Y46654D01*
X-4723Y46579D01*
X-4717Y46493D01*
Y46486D01*
Y46480D01*
Y46443D01*
X-4723Y46387D01*
X-4735Y46313D01*
X-4754Y46220D01*
X-4785Y46127D01*
X-4822Y46028D01*
X-4878Y45923D01*
X-4884Y45911D01*
X-4909Y45880D01*
X-4940Y45830D01*
X-4989Y45768D01*
X-5057Y45700D01*
X-5131Y45632D01*
X-5218Y45564D01*
X-5323Y45502D01*
X-5330D01*
X-5336Y45496D01*
X-5354Y45490D01*
X-5379Y45477D01*
X-5404Y45471D01*
X-5441Y45459D01*
X-5528Y45434D01*
X-5639Y45403D01*
X-5769Y45385D01*
X-5924Y45366D01*
X-6091Y45360D01*
X-6165D01*
X-6202Y45366D01*
X-6252D01*
X-6351Y45372D01*
X-6469Y45385D01*
X-6592Y45403D01*
X-6710Y45428D01*
X-6821Y45465D01*
X-6834Y45471D01*
X-6865Y45484D01*
X-6914Y45508D01*
X-6976Y45546D01*
X-7044Y45589D01*
X-7119Y45645D01*
X-7193Y45706D01*
X-7261Y45781D01*
X-7267Y45793D01*
X-7292Y45818D01*
X-7323Y45861D01*
X-7360Y45923D01*
X-7403Y46004D01*
X-7440Y46090D01*
X-7484Y46196D01*
X-7521Y46307D01*
X-6580Y46437D01*
Y46424D01*
X-6568Y46394D01*
X-6555Y46344D01*
X-6537Y46282D01*
X-6487Y46152D01*
X-6450Y46090D01*
X-6413Y46041D01*
X-6407Y46035D01*
X-6394Y46022D01*
X-6363Y46010D01*
X-6332Y45991D01*
X-6289Y45966D01*
X-6233Y45954D01*
X-6178Y45942D01*
X-6109Y45935D01*
X-6079D01*
X-6041Y45942D01*
X-5998Y45954D01*
X-5949Y45966D01*
X-5893Y45991D01*
X-5843Y46028D01*
X-5794Y46072D01*
X-5788Y46078D01*
X-5775Y46096D01*
X-5751Y46127D01*
X-5726Y46171D01*
X-5707Y46220D01*
X-5682Y46288D01*
X-5670Y46363D01*
X-5664Y46443D01*
Y46455D01*
Y46480D01*
X-5670Y46524D01*
X-5676Y46579D01*
X-5695Y46635D01*
X-5713Y46697D01*
X-5744Y46753D01*
X-5788Y46808D01*
X-5794Y46815D01*
X-5812Y46827D01*
X-5837Y46852D01*
X-5874Y46876D01*
X-5924Y46895D01*
X-5979Y46920D01*
X-6048Y46932D01*
X-6122Y46938D01*
X-6165D01*
X-6202Y46932D01*
X-6246Y46926D01*
X-6295Y46913D01*
X-6357Y46901D01*
X-6425Y46883D01*
X-6382Y47551D01*
X-6339D01*
X-6295Y47545D01*
X-6227D01*
X-6190Y47551D01*
X-6147Y47557D01*
X-6103Y47570D01*
X-6048Y47594D01*
X-5998Y47619D01*
X-5949Y47656D01*
X-5942Y47662D01*
X-5930Y47675D01*
X-5905Y47700D01*
X-5881Y47737D01*
X-5862Y47774D01*
X-5837Y47824D01*
X-5825Y47879D01*
X-5819Y47935D01*
Y47941D01*
Y47960D01*
X-5825Y47991D01*
X-5831Y48022D01*
X-5843Y48065D01*
X-5856Y48102D01*
X-5881Y48145D01*
X-5911Y48182D01*
X-5918Y48189D01*
X-5930Y48195D01*
X-5949Y48213D01*
X-5979Y48232D01*
X-6017Y48244D01*
X-6060Y48263D01*
X-6109Y48269D01*
X-6171Y48275D01*
X-6196D01*
X-6227Y48269D01*
X-6271Y48263D01*
X-6314Y48251D01*
X-6357Y48232D01*
X-6400Y48207D01*
X-6444Y48170D01*
X-6450Y48164D01*
X-6462Y48151D01*
X-6475Y48127D01*
X-6499Y48090D01*
X-6518Y48040D01*
X-6543Y47984D01*
X-6561Y47910D01*
X-6580Y47824D01*
X-7471Y47978D01*
Y47984D01*
X-7465Y47997D01*
X-7459Y48022D01*
X-7453Y48046D01*
X-7434Y48083D01*
X-7422Y48127D01*
X-7378Y48220D01*
X-7323Y48325D01*
X-7248Y48436D01*
X-7162Y48542D01*
X-7050Y48634D01*
X-7044D01*
X-7038Y48647D01*
X-7019Y48653D01*
X-6989Y48671D01*
X-6957Y48690D01*
X-6920Y48709D01*
X-6871Y48727D01*
X-6815Y48752D01*
X-6759Y48770D01*
X-6691Y48789D01*
X-6617Y48808D01*
X-6537Y48826D01*
X-6450Y48845D01*
X-6357Y48851D01*
X-6153Y48863D01*
X-6091D01*
X-6041Y48857D01*
D02*
G37*
G36*
X-22846Y244348D02*
X-22791D01*
X-22716Y244342D01*
X-22636Y244330D01*
X-22549Y244317D01*
X-22450Y244299D01*
X-22345Y244274D01*
X-22240Y244243D01*
X-22135Y244212D01*
X-22023Y244169D01*
X-21918Y244113D01*
X-21819Y244057D01*
X-21720Y243989D01*
X-21633Y243909D01*
X-21627Y243902D01*
X-21615Y243890D01*
X-21590Y243859D01*
X-21565Y243828D01*
X-21528Y243779D01*
X-21491Y243723D01*
X-21448Y243661D01*
X-21404Y243581D01*
X-21367Y243500D01*
X-21324Y243401D01*
X-21286Y243296D01*
X-21249Y243184D01*
X-21225Y243061D01*
X-21200Y242931D01*
X-21188Y242788D01*
X-21181Y242640D01*
Y242634D01*
Y242609D01*
Y242578D01*
X-21188Y242534D01*
Y242479D01*
X-21194Y242417D01*
X-21200Y242349D01*
X-21212Y242274D01*
X-21243Y242107D01*
X-21293Y241940D01*
X-21355Y241779D01*
X-21398Y241705D01*
X-21441Y241631D01*
Y241625D01*
X-21454Y241612D01*
X-21466Y241594D01*
X-21491Y241569D01*
X-21516Y241538D01*
X-21553Y241501D01*
X-21590Y241464D01*
X-21639Y241420D01*
X-21689Y241377D01*
X-21751Y241334D01*
X-21813Y241284D01*
X-21887Y241241D01*
X-21967Y241197D01*
X-22048Y241154D01*
X-22141Y241117D01*
X-22240Y241080D01*
X-22444Y242008D01*
X-22438D01*
X-22419Y242015D01*
X-22388Y242027D01*
X-22357Y242039D01*
X-22283Y242076D01*
X-22252Y242095D01*
X-22221Y242114D01*
X-22215Y242120D01*
X-22203Y242126D01*
X-22178Y242151D01*
X-22153Y242176D01*
X-22091Y242244D01*
X-22036Y242330D01*
X-22029Y242336D01*
X-22023Y242349D01*
X-22011Y242380D01*
X-21998Y242411D01*
X-21986Y242454D01*
X-21980Y242503D01*
X-21967Y242559D01*
Y242615D01*
Y242621D01*
Y242634D01*
Y242652D01*
X-21974Y242671D01*
X-21980Y242739D01*
X-22005Y242819D01*
X-22036Y242906D01*
X-22091Y242999D01*
X-22159Y243085D01*
X-22209Y243123D01*
X-22258Y243160D01*
X-22271Y243166D01*
X-22296Y243184D01*
X-22351Y243203D01*
X-22419Y243228D01*
X-22512Y243259D01*
X-22624Y243277D01*
X-22760Y243296D01*
X-22921Y243302D01*
X-23013D01*
X-23057Y243296D01*
X-23113D01*
X-23230Y243284D01*
X-23354Y243259D01*
X-23484Y243234D01*
X-23602Y243191D01*
X-23651Y243166D01*
X-23694Y243135D01*
X-23701Y243129D01*
X-23725Y243104D01*
X-23756Y243061D01*
X-23794Y243011D01*
X-23837Y242943D01*
X-23868Y242856D01*
X-23892Y242763D01*
X-23899Y242652D01*
Y242646D01*
Y242640D01*
Y242603D01*
X-23892Y242547D01*
X-23880Y242479D01*
X-23855Y242405D01*
X-23831Y242330D01*
X-23787Y242256D01*
X-23732Y242194D01*
X-23725Y242188D01*
X-23701Y242169D01*
X-23663Y242138D01*
X-23608Y242107D01*
X-23540Y242070D01*
X-23453Y242033D01*
X-23354Y241996D01*
X-23236Y241965D01*
X-23521Y241049D01*
X-23527D01*
X-23540Y241055D01*
X-23558Y241061D01*
X-23583Y241068D01*
X-23657Y241086D01*
X-23744Y241123D01*
X-23849Y241160D01*
X-23954Y241216D01*
X-24060Y241272D01*
X-24165Y241346D01*
X-24177Y241352D01*
X-24208Y241383D01*
X-24251Y241426D01*
X-24313Y241482D01*
X-24375Y241557D01*
X-24437Y241637D01*
X-24499Y241736D01*
X-24555Y241841D01*
Y241847D01*
X-24561Y241854D01*
X-24567Y241872D01*
X-24573Y241891D01*
X-24598Y241959D01*
X-24617Y242045D01*
X-24642Y242151D01*
X-24666Y242281D01*
X-24679Y242429D01*
X-24685Y242590D01*
Y242596D01*
Y242615D01*
Y242646D01*
Y242683D01*
X-24679Y242733D01*
Y242782D01*
X-24672Y242844D01*
X-24666Y242912D01*
X-24648Y243054D01*
X-24617Y243209D01*
X-24580Y243358D01*
X-24530Y243500D01*
Y243506D01*
X-24524Y243513D01*
X-24511Y243531D01*
X-24499Y243556D01*
X-24456Y243624D01*
X-24400Y243704D01*
X-24320Y243797D01*
X-24227Y243902D01*
X-24109Y244002D01*
X-23967Y244101D01*
X-23961D01*
X-23948Y244113D01*
X-23923Y244125D01*
X-23892Y244138D01*
X-23855Y244156D01*
X-23806Y244181D01*
X-23750Y244206D01*
X-23682Y244224D01*
X-23614Y244249D01*
X-23534Y244274D01*
X-23447Y244292D01*
X-23354Y244317D01*
X-23255Y244330D01*
X-23150Y244342D01*
X-22927Y244354D01*
X-22890D01*
X-22846Y244348D01*
D02*
G37*
G36*
X-6867Y262782D02*
X-7901Y262219D01*
X-7907Y262213D01*
X-7932Y262200D01*
X-7969Y262182D01*
X-8006Y262157D01*
X-8093Y262095D01*
X-8130Y262058D01*
X-8161Y262027D01*
X-8167Y262021D01*
X-8173Y262009D01*
X-8185Y261984D01*
X-8204Y261953D01*
X-8216Y261916D01*
X-8229Y261872D01*
X-8235Y261823D01*
X-8241Y261767D01*
Y261681D01*
X-6867D01*
Y260628D01*
X-10259D01*
Y262374D01*
Y262380D01*
Y262399D01*
Y262423D01*
Y262454D01*
Y262498D01*
X-10253Y262541D01*
X-10247Y262652D01*
X-10240Y262770D01*
X-10222Y262894D01*
X-10203Y263011D01*
X-10172Y263117D01*
X-10166Y263129D01*
X-10154Y263160D01*
X-10135Y263210D01*
X-10104Y263265D01*
X-10061Y263333D01*
X-10005Y263401D01*
X-9943Y263470D01*
X-9863Y263531D01*
X-9850Y263538D01*
X-9826Y263556D01*
X-9776Y263581D01*
X-9708Y263612D01*
X-9628Y263643D01*
X-9535Y263667D01*
X-9430Y263686D01*
X-9312Y263692D01*
X-9262D01*
X-9213Y263686D01*
X-9145Y263680D01*
X-9071Y263661D01*
X-8990Y263643D01*
X-8903Y263612D01*
X-8823Y263568D01*
X-8817Y263562D01*
X-8792Y263550D01*
X-8755Y263519D01*
X-8705Y263482D01*
X-8656Y263432D01*
X-8600Y263377D01*
X-8544Y263309D01*
X-8495Y263234D01*
X-8489Y263228D01*
X-8483Y263210D01*
X-8464Y263178D01*
X-8445Y263141D01*
X-8427Y263086D01*
X-8402Y263024D01*
X-8383Y262949D01*
X-8359Y262869D01*
Y262875D01*
X-8346Y262900D01*
X-8334Y262931D01*
X-8322Y262974D01*
X-8278Y263061D01*
X-8260Y263104D01*
X-8235Y263141D01*
X-8229Y263154D01*
X-8216Y263166D01*
X-8198Y263185D01*
X-8173Y263210D01*
X-8142Y263234D01*
X-8105Y263271D01*
X-8055Y263309D01*
X-8049Y263315D01*
X-8031Y263327D01*
X-8006Y263346D01*
X-7981Y263370D01*
X-7907Y263420D01*
X-7876Y263439D01*
X-7845Y263457D01*
X-6867Y263971D01*
Y262782D01*
D02*
G37*
G36*
X-12819Y251192D02*
X-12807Y251198D01*
X-12782Y251223D01*
X-12733Y251254D01*
X-12677Y251297D01*
X-12609Y251340D01*
X-12528Y251390D01*
X-12448Y251439D01*
X-12367Y251483D01*
X-12355Y251489D01*
X-12330Y251501D01*
X-12281Y251520D01*
X-12219Y251544D01*
X-12138Y251575D01*
X-12052Y251613D01*
X-11946Y251644D01*
X-11829Y251681D01*
Y250913D01*
X-11835D01*
X-11847Y250907D01*
X-11872Y250895D01*
X-11909Y250888D01*
X-11946Y250870D01*
X-11996Y250851D01*
X-12101Y250808D01*
X-12219Y250752D01*
X-12343Y250690D01*
X-12466Y250622D01*
X-12572Y250542D01*
X-12578D01*
X-12584Y250529D01*
X-12615Y250505D01*
X-12664Y250455D01*
X-12726Y250387D01*
X-12795Y250313D01*
X-12863Y250220D01*
X-12931Y250115D01*
X-12992Y249997D01*
X-13772D01*
Y253445D01*
X-12819D01*
Y251192D01*
D02*
G37*
G36*
X-22240Y240715D02*
X-22153Y240702D01*
X-22060Y240684D01*
X-21955Y240653D01*
X-21850Y240616D01*
X-21745Y240566D01*
X-21738D01*
X-21732Y240560D01*
X-21701Y240535D01*
X-21652Y240498D01*
X-21590Y240448D01*
X-21522Y240387D01*
X-21448Y240312D01*
X-21379Y240226D01*
X-21324Y240127D01*
Y240120D01*
X-21317Y240114D01*
X-21299Y240077D01*
X-21280Y240015D01*
X-21249Y239935D01*
X-21225Y239829D01*
X-21206Y239712D01*
X-21188Y239576D01*
X-21181Y239421D01*
Y239415D01*
Y239396D01*
Y239371D01*
Y239334D01*
X-21188Y239291D01*
Y239241D01*
X-21206Y239130D01*
X-21225Y239000D01*
X-21256Y238864D01*
X-21299Y238734D01*
X-21361Y238610D01*
Y238604D01*
X-21367Y238598D01*
X-21392Y238561D01*
X-21435Y238505D01*
X-21497Y238431D01*
X-21571Y238350D01*
X-21670Y238270D01*
X-21782Y238189D01*
X-21918Y238115D01*
X-21924D01*
X-21937Y238109D01*
X-21955Y238096D01*
X-21986Y238084D01*
X-22023Y238071D01*
X-22073Y238053D01*
X-22122Y238040D01*
X-22184Y238022D01*
X-22252Y238003D01*
X-22326Y237985D01*
X-22413Y237972D01*
X-22500Y237960D01*
X-22599Y237948D01*
X-22698Y237935D01*
X-22921Y237929D01*
X-23007D01*
X-23069Y237935D01*
X-23144Y237942D01*
X-23230Y237948D01*
X-23329Y237960D01*
X-23435Y237979D01*
X-23651Y238022D01*
X-23763Y238053D01*
X-23874Y238096D01*
X-23979Y238140D01*
X-24084Y238189D01*
X-24177Y238251D01*
X-24264Y238319D01*
X-24270Y238325D01*
X-24283Y238338D01*
X-24301Y238356D01*
X-24332Y238387D01*
X-24363Y238431D01*
X-24394Y238474D01*
X-24437Y238530D01*
X-24474Y238598D01*
X-24511Y238666D01*
X-24549Y238746D01*
X-24586Y238833D01*
X-24617Y238932D01*
X-24648Y239031D01*
X-24666Y239142D01*
X-24679Y239260D01*
X-24685Y239384D01*
Y239390D01*
Y239402D01*
Y239421D01*
Y239452D01*
X-24679Y239526D01*
X-24672Y239619D01*
X-24660Y239718D01*
X-24648Y239829D01*
X-24623Y239935D01*
X-24592Y240027D01*
X-24586Y240040D01*
X-24573Y240065D01*
X-24555Y240108D01*
X-24524Y240164D01*
X-24487Y240219D01*
X-24437Y240287D01*
X-24382Y240349D01*
X-24320Y240411D01*
X-24313Y240418D01*
X-24289Y240436D01*
X-24245Y240467D01*
X-24196Y240498D01*
X-24128Y240535D01*
X-24054Y240579D01*
X-23967Y240616D01*
X-23868Y240647D01*
X-23744Y239712D01*
X-23750D01*
X-23775Y239706D01*
X-23812Y239700D01*
X-23855Y239687D01*
X-23942Y239650D01*
X-23985Y239625D01*
X-24023Y239594D01*
X-24029Y239588D01*
X-24035Y239576D01*
X-24047Y239557D01*
X-24060Y239532D01*
X-24091Y239464D01*
X-24097Y239421D01*
X-24103Y239378D01*
Y239365D01*
X-24097Y239340D01*
X-24091Y239297D01*
X-24072Y239248D01*
X-24047Y239192D01*
X-24010Y239130D01*
X-23954Y239074D01*
X-23880Y239025D01*
X-23874Y239019D01*
X-23843Y239006D01*
X-23794Y238994D01*
X-23763Y238981D01*
X-23725Y238969D01*
X-23682Y238963D01*
X-23626Y238950D01*
X-23571Y238938D01*
X-23503Y238926D01*
X-23428Y238913D01*
X-23348Y238901D01*
X-23261Y238895D01*
X-23162Y238882D01*
X-23168Y238889D01*
X-23193Y238913D01*
X-23224Y238944D01*
X-23261Y238994D01*
X-23298Y239043D01*
X-23342Y239105D01*
X-23379Y239167D01*
X-23416Y239235D01*
X-23422Y239241D01*
X-23428Y239266D01*
X-23441Y239303D01*
X-23453Y239353D01*
X-23472Y239408D01*
X-23484Y239483D01*
X-23490Y239557D01*
X-23496Y239644D01*
Y239650D01*
Y239662D01*
Y239687D01*
X-23490Y239718D01*
X-23484Y239755D01*
X-23478Y239805D01*
X-23453Y239910D01*
X-23416Y240027D01*
X-23360Y240158D01*
X-23323Y240226D01*
X-23280Y240287D01*
X-23230Y240349D01*
X-23175Y240411D01*
X-23168Y240418D01*
X-23162Y240424D01*
X-23144Y240442D01*
X-23119Y240461D01*
X-23082Y240486D01*
X-23044Y240510D01*
X-23001Y240535D01*
X-22952Y240566D01*
X-22834Y240622D01*
X-22692Y240671D01*
X-22537Y240708D01*
X-22450Y240715D01*
X-22357Y240721D01*
X-22302D01*
X-22240Y240715D01*
D02*
G37*
G36*
X-9594Y253494D02*
X-9545D01*
X-9483Y253488D01*
X-9415Y253482D01*
X-9272Y253464D01*
X-9118Y253432D01*
X-8969Y253395D01*
X-8827Y253346D01*
X-8821D01*
X-8814Y253340D01*
X-8796Y253327D01*
X-8771Y253315D01*
X-8703Y253272D01*
X-8622Y253216D01*
X-8529Y253135D01*
X-8424Y253043D01*
X-8325Y252925D01*
X-8226Y252783D01*
Y252776D01*
X-8214Y252764D01*
X-8202Y252739D01*
X-8189Y252708D01*
X-8170Y252671D01*
X-8146Y252622D01*
X-8121Y252566D01*
X-8102Y252498D01*
X-8078Y252430D01*
X-8053Y252349D01*
X-8034Y252263D01*
X-8010Y252170D01*
X-7997Y252071D01*
X-7985Y251965D01*
X-7972Y251743D01*
Y251730D01*
Y251706D01*
X-7979Y251662D01*
Y251606D01*
X-7985Y251532D01*
X-7997Y251452D01*
X-8010Y251365D01*
X-8028Y251266D01*
X-8053Y251161D01*
X-8084Y251056D01*
X-8115Y250950D01*
X-8158Y250839D01*
X-8214Y250734D01*
X-8270Y250635D01*
X-8338Y250536D01*
X-8418Y250449D01*
X-8424Y250443D01*
X-8437Y250430D01*
X-8468Y250406D01*
X-8499Y250381D01*
X-8548Y250344D01*
X-8604Y250307D01*
X-8666Y250263D01*
X-8746Y250220D01*
X-8827Y250183D01*
X-8926Y250139D01*
X-9031Y250102D01*
X-9142Y250065D01*
X-9266Y250040D01*
X-9396Y250016D01*
X-9539Y250003D01*
X-9687Y249997D01*
X-9749D01*
X-9792Y250003D01*
X-9848D01*
X-9910Y250009D01*
X-9978Y250016D01*
X-10052Y250028D01*
X-10219Y250059D01*
X-10386Y250109D01*
X-10548Y250170D01*
X-10622Y250214D01*
X-10696Y250257D01*
X-10702D01*
X-10715Y250269D01*
X-10733Y250282D01*
X-10758Y250307D01*
X-10789Y250331D01*
X-10826Y250368D01*
X-10863Y250406D01*
X-10907Y250455D01*
X-10950Y250505D01*
X-10993Y250567D01*
X-11043Y250628D01*
X-11086Y250703D01*
X-11129Y250783D01*
X-11173Y250864D01*
X-11210Y250957D01*
X-11247Y251056D01*
X-10318Y251260D01*
Y251254D01*
X-10312Y251235D01*
X-10300Y251204D01*
X-10288Y251173D01*
X-10250Y251099D01*
X-10232Y251068D01*
X-10213Y251037D01*
X-10207Y251031D01*
X-10201Y251018D01*
X-10176Y250994D01*
X-10151Y250969D01*
X-10083Y250907D01*
X-9997Y250851D01*
X-9990Y250845D01*
X-9978Y250839D01*
X-9947Y250827D01*
X-9916Y250814D01*
X-9873Y250802D01*
X-9823Y250796D01*
X-9768Y250783D01*
X-9675D01*
X-9656Y250789D01*
X-9588Y250796D01*
X-9508Y250820D01*
X-9421Y250851D01*
X-9328Y250907D01*
X-9241Y250975D01*
X-9204Y251025D01*
X-9167Y251074D01*
X-9161Y251086D01*
X-9142Y251111D01*
X-9124Y251167D01*
X-9099Y251235D01*
X-9068Y251328D01*
X-9049Y251439D01*
X-9031Y251575D01*
X-9025Y251736D01*
Y251743D01*
Y251761D01*
Y251792D01*
Y251829D01*
X-9031Y251873D01*
Y251928D01*
X-9043Y252046D01*
X-9068Y252170D01*
X-9093Y252300D01*
X-9136Y252417D01*
X-9161Y252467D01*
X-9192Y252510D01*
X-9198Y252516D01*
X-9223Y252541D01*
X-9266Y252572D01*
X-9316Y252609D01*
X-9384Y252653D01*
X-9470Y252683D01*
X-9563Y252708D01*
X-9675Y252714D01*
X-9724D01*
X-9780Y252708D01*
X-9848Y252696D01*
X-9922Y252671D01*
X-9997Y252646D01*
X-10071Y252603D01*
X-10133Y252547D01*
X-10139Y252541D01*
X-10158Y252516D01*
X-10188Y252479D01*
X-10219Y252424D01*
X-10257Y252355D01*
X-10294Y252269D01*
X-10331Y252170D01*
X-10362Y252052D01*
X-11278Y252337D01*
Y252343D01*
X-11272Y252355D01*
X-11265Y252374D01*
X-11259Y252399D01*
X-11241Y252473D01*
X-11204Y252560D01*
X-11167Y252665D01*
X-11111Y252770D01*
X-11055Y252875D01*
X-10981Y252981D01*
X-10975Y252993D01*
X-10944Y253024D01*
X-10900Y253067D01*
X-10845Y253129D01*
X-10770Y253191D01*
X-10690Y253253D01*
X-10591Y253315D01*
X-10486Y253371D01*
X-10479D01*
X-10473Y253377D01*
X-10455Y253383D01*
X-10436Y253389D01*
X-10368Y253414D01*
X-10281Y253432D01*
X-10176Y253457D01*
X-10046Y253482D01*
X-9898Y253494D01*
X-9737Y253501D01*
X-9644D01*
X-9594Y253494D01*
D02*
G37*
G36*
X51000Y221737D02*
X51019Y221731D01*
X51044Y221725D01*
X51118Y221706D01*
X51205Y221669D01*
X51310Y221632D01*
X51415Y221576D01*
X51520Y221520D01*
X51626Y221446D01*
X51638Y221440D01*
X51669Y221409D01*
X51712Y221366D01*
X51774Y221310D01*
X51836Y221236D01*
X51898Y221155D01*
X51960Y221056D01*
X52016Y220951D01*
Y220945D01*
X52022Y220939D01*
X52028Y220920D01*
X52034Y220901D01*
X52059Y220833D01*
X52077Y220747D01*
X52102Y220641D01*
X52127Y220512D01*
X52139Y220363D01*
X52145Y220202D01*
Y220196D01*
Y220177D01*
Y220146D01*
Y220109D01*
X52139Y220060D01*
Y220010D01*
X52133Y219948D01*
X52127Y219880D01*
X52108Y219738D01*
X52077Y219583D01*
X52040Y219434D01*
X51991Y219292D01*
Y219286D01*
X51985Y219280D01*
X51972Y219261D01*
X51960Y219236D01*
X51916Y219168D01*
X51861Y219088D01*
X51780Y218995D01*
X51687Y218890D01*
X51570Y218791D01*
X51427Y218692D01*
X51421D01*
X51409Y218679D01*
X51384Y218667D01*
X51353Y218654D01*
X51316Y218636D01*
X51266Y218611D01*
X51211Y218586D01*
X51143Y218568D01*
X51075Y218543D01*
X50994Y218518D01*
X50907Y218500D01*
X50815Y218475D01*
X50716Y218463D01*
X50610Y218450D01*
X50388Y218438D01*
X50350D01*
X50307Y218444D01*
X50251D01*
X50177Y218450D01*
X50097Y218463D01*
X50010Y218475D01*
X49911Y218494D01*
X49806Y218518D01*
X49700Y218549D01*
X49595Y218580D01*
X49484Y218623D01*
X49378Y218679D01*
X49279Y218735D01*
X49180Y218803D01*
X49094Y218883D01*
X49088Y218890D01*
X49075Y218902D01*
X49051Y218933D01*
X49026Y218964D01*
X48989Y219014D01*
X48951Y219069D01*
X48908Y219131D01*
X48865Y219212D01*
X48828Y219292D01*
X48784Y219391D01*
X48747Y219496D01*
X48710Y219608D01*
X48685Y219732D01*
X48660Y219862D01*
X48648Y220004D01*
X48642Y220152D01*
Y220159D01*
Y220183D01*
Y220214D01*
X48648Y220258D01*
Y220313D01*
X48654Y220375D01*
X48660Y220443D01*
X48673Y220518D01*
X48704Y220685D01*
X48753Y220852D01*
X48815Y221013D01*
X48859Y221087D01*
X48902Y221161D01*
Y221168D01*
X48914Y221180D01*
X48927Y221199D01*
X48951Y221223D01*
X48976Y221254D01*
X49013Y221291D01*
X49051Y221329D01*
X49100Y221372D01*
X49150Y221415D01*
X49211Y221459D01*
X49273Y221508D01*
X49348Y221551D01*
X49428Y221595D01*
X49509Y221638D01*
X49601Y221675D01*
X49700Y221712D01*
X49905Y220784D01*
X49898D01*
X49880Y220778D01*
X49849Y220765D01*
X49818Y220753D01*
X49744Y220716D01*
X49713Y220697D01*
X49682Y220679D01*
X49676Y220672D01*
X49663Y220666D01*
X49639Y220641D01*
X49614Y220617D01*
X49552Y220549D01*
X49496Y220462D01*
X49490Y220456D01*
X49484Y220443D01*
X49471Y220412D01*
X49459Y220381D01*
X49447Y220338D01*
X49440Y220289D01*
X49428Y220233D01*
Y220177D01*
Y220171D01*
Y220159D01*
Y220140D01*
X49434Y220122D01*
X49440Y220053D01*
X49465Y219973D01*
X49496Y219886D01*
X49552Y219793D01*
X49620Y219707D01*
X49670Y219670D01*
X49719Y219633D01*
X49731Y219626D01*
X49756Y219608D01*
X49812Y219589D01*
X49880Y219564D01*
X49973Y219533D01*
X50084Y219515D01*
X50220Y219496D01*
X50381Y219490D01*
X50474D01*
X50517Y219496D01*
X50573D01*
X50691Y219509D01*
X50815Y219533D01*
X50945Y219558D01*
X51062Y219602D01*
X51112Y219626D01*
X51155Y219657D01*
X51161Y219664D01*
X51186Y219688D01*
X51217Y219732D01*
X51254Y219781D01*
X51297Y219849D01*
X51328Y219936D01*
X51353Y220029D01*
X51359Y220140D01*
Y220146D01*
Y220152D01*
Y220190D01*
X51353Y220245D01*
X51341Y220313D01*
X51316Y220388D01*
X51291Y220462D01*
X51248Y220536D01*
X51192Y220598D01*
X51186Y220604D01*
X51161Y220623D01*
X51124Y220654D01*
X51068Y220685D01*
X51000Y220722D01*
X50914Y220759D01*
X50815Y220796D01*
X50697Y220827D01*
X50982Y221743D01*
X50988D01*
X51000Y221737D01*
D02*
G37*
G36*
X-6546Y69104D02*
X-8799D01*
X-8793Y69091D01*
X-8768Y69067D01*
X-8737Y69017D01*
X-8694Y68961D01*
X-8650Y68893D01*
X-8601Y68813D01*
X-8551Y68732D01*
X-8508Y68652D01*
X-8502Y68639D01*
X-8489Y68615D01*
X-8471Y68565D01*
X-8446Y68503D01*
X-8415Y68423D01*
X-8378Y68336D01*
X-8347Y68231D01*
X-8310Y68113D01*
X-9077D01*
Y68120D01*
X-9083Y68132D01*
X-9096Y68157D01*
X-9102Y68194D01*
X-9121Y68231D01*
X-9139Y68281D01*
X-9183Y68386D01*
X-9238Y68503D01*
X-9300Y68627D01*
X-9368Y68751D01*
X-9449Y68856D01*
Y68862D01*
X-9461Y68869D01*
X-9486Y68900D01*
X-9535Y68949D01*
X-9604Y69011D01*
X-9678Y69079D01*
X-9771Y69147D01*
X-9876Y69215D01*
X-9994Y69277D01*
Y70057D01*
X-6546D01*
Y69104D01*
D02*
G37*
G36*
Y66541D02*
X-9133D01*
X-6546Y65879D01*
Y65099D01*
X-9133Y64443D01*
X-6546D01*
Y63582D01*
X-9938D01*
Y64963D01*
X-7870Y65489D01*
X-9938Y66021D01*
Y67401D01*
X-6546D01*
Y66541D01*
D02*
G37*
G36*
Y74638D02*
X-8799D01*
X-8793Y74625D01*
X-8768Y74600D01*
X-8737Y74551D01*
X-8694Y74495D01*
X-8650Y74427D01*
X-8601Y74347D01*
X-8551Y74266D01*
X-8508Y74186D01*
X-8502Y74173D01*
X-8489Y74149D01*
X-8471Y74099D01*
X-8446Y74037D01*
X-8415Y73957D01*
X-8378Y73870D01*
X-8347Y73765D01*
X-8310Y73647D01*
X-9077D01*
Y73653D01*
X-9083Y73666D01*
X-9096Y73691D01*
X-9102Y73728D01*
X-9121Y73765D01*
X-9139Y73814D01*
X-9183Y73920D01*
X-9238Y74037D01*
X-9300Y74161D01*
X-9368Y74285D01*
X-9449Y74390D01*
Y74396D01*
X-9461Y74402D01*
X-9486Y74433D01*
X-9535Y74483D01*
X-9604Y74545D01*
X-9678Y74613D01*
X-9771Y74681D01*
X-9876Y74749D01*
X-9994Y74811D01*
Y75591D01*
X-6546D01*
Y74638D01*
D02*
G37*
G36*
X-5951Y70862D02*
X-6187D01*
Y73282D01*
X-5951D01*
Y70862D01*
D02*
G37*
G36*
X10088Y73561D02*
X10070D01*
X10045Y73567D01*
X10020Y73573D01*
X9983Y73579D01*
X9940Y73585D01*
X9834Y73616D01*
X9717Y73654D01*
X9587Y73703D01*
X9444Y73771D01*
X9308Y73852D01*
X9302Y73858D01*
X9290Y73864D01*
X9271Y73876D01*
X9240Y73901D01*
X9209Y73932D01*
X9166Y73963D01*
X9116Y74013D01*
X9061Y74062D01*
X8999Y74118D01*
X8931Y74186D01*
X8863Y74260D01*
X8782Y74347D01*
X8702Y74440D01*
X8615Y74545D01*
X8528Y74656D01*
X8435Y74780D01*
X8429Y74786D01*
X8423Y74799D01*
X8405Y74817D01*
X8386Y74848D01*
X8330Y74916D01*
X8262Y75003D01*
X8182Y75090D01*
X8107Y75182D01*
X8033Y75257D01*
X7996Y75288D01*
X7965Y75312D01*
X7959Y75319D01*
X7940Y75331D01*
X7909Y75349D01*
X7866Y75374D01*
X7823Y75393D01*
X7767Y75411D01*
X7717Y75424D01*
X7662Y75430D01*
X7637D01*
X7606Y75424D01*
X7569Y75418D01*
X7525Y75399D01*
X7482Y75380D01*
X7439Y75349D01*
X7396Y75312D01*
X7389Y75306D01*
X7377Y75294D01*
X7358Y75269D01*
X7340Y75232D01*
X7321Y75189D01*
X7303Y75139D01*
X7290Y75083D01*
X7284Y75021D01*
Y75015D01*
Y74990D01*
X7290Y74960D01*
X7297Y74916D01*
X7315Y74873D01*
X7334Y74823D01*
X7365Y74774D01*
X7402Y74724D01*
X7408Y74718D01*
X7420Y74706D01*
X7451Y74687D01*
X7495Y74662D01*
X7550Y74638D01*
X7618Y74613D01*
X7699Y74594D01*
X7798Y74576D01*
X7724Y73629D01*
X7705D01*
X7687Y73635D01*
X7655Y73641D01*
X7587Y73654D01*
X7495Y73672D01*
X7396Y73703D01*
X7297Y73734D01*
X7198Y73777D01*
X7105Y73827D01*
X7092Y73833D01*
X7068Y73852D01*
X7030Y73889D01*
X6981Y73938D01*
X6925Y73994D01*
X6869Y74068D01*
X6814Y74149D01*
X6764Y74248D01*
Y74254D01*
X6758Y74260D01*
X6746Y74297D01*
X6727Y74359D01*
X6702Y74446D01*
X6678Y74551D01*
X6659Y74681D01*
X6647Y74830D01*
X6640Y74997D01*
Y75003D01*
Y75021D01*
Y75046D01*
Y75077D01*
X6647Y75121D01*
Y75170D01*
X6653Y75281D01*
X6671Y75405D01*
X6690Y75535D01*
X6721Y75659D01*
X6758Y75770D01*
Y75777D01*
X6764Y75783D01*
X6777Y75814D01*
X6808Y75870D01*
X6845Y75931D01*
X6894Y75999D01*
X6950Y76074D01*
X7024Y76148D01*
X7105Y76210D01*
X7117Y76216D01*
X7148Y76235D01*
X7191Y76259D01*
X7259Y76290D01*
X7334Y76321D01*
X7427Y76346D01*
X7525Y76365D01*
X7631Y76371D01*
X7680D01*
X7742Y76358D01*
X7823Y76346D01*
X7909Y76328D01*
X8015Y76290D01*
X8120Y76247D01*
X8225Y76185D01*
X8237Y76179D01*
X8275Y76148D01*
X8330Y76105D01*
X8405Y76037D01*
X8497Y75944D01*
X8547Y75888D01*
X8603Y75832D01*
X8658Y75764D01*
X8720Y75690D01*
X8782Y75609D01*
X8844Y75523D01*
X8850Y75511D01*
X8875Y75480D01*
X8912Y75430D01*
X8955Y75368D01*
X8999Y75306D01*
X9042Y75238D01*
X9085Y75182D01*
X9123Y75139D01*
X9129Y75133D01*
X9135Y75121D01*
X9154Y75102D01*
X9172Y75077D01*
X9240Y75009D01*
X9321Y74916D01*
Y76396D01*
X10088D01*
Y73561D01*
D02*
G37*
G36*
Y66721D02*
X7501D01*
X10088Y66058D01*
Y65278D01*
X7501Y64622D01*
X10088D01*
Y63762D01*
X6696D01*
Y65142D01*
X8764Y65668D01*
X6696Y66201D01*
Y67581D01*
X10088D01*
Y66721D01*
D02*
G37*
G36*
X49348Y224863D02*
X49354Y224851D01*
X49372Y224832D01*
X49397Y224807D01*
X49465Y224739D01*
X49552Y224659D01*
X49651Y224560D01*
X49775Y224461D01*
X49905Y224356D01*
X50041Y224263D01*
X50047Y224256D01*
X50059Y224250D01*
X50084Y224238D01*
X50121Y224213D01*
X50165Y224188D01*
X50214Y224164D01*
X50276Y224133D01*
X50338Y224096D01*
X50412Y224058D01*
X50493Y224021D01*
X50666Y223947D01*
X50858Y223873D01*
X51062Y223805D01*
X51068D01*
X51081Y223798D01*
X51105Y223792D01*
X51136Y223780D01*
X51180Y223774D01*
X51229Y223761D01*
X51285Y223743D01*
X51353Y223730D01*
X51427Y223718D01*
X51502Y223699D01*
X51681Y223675D01*
X51873Y223644D01*
X52090Y223625D01*
Y222684D01*
X52077D01*
X52053Y222690D01*
X52009Y222697D01*
X51954Y222703D01*
X51879Y222715D01*
X51799Y222727D01*
X51706Y222746D01*
X51607Y222765D01*
X51495Y222789D01*
X51384Y222814D01*
X51155Y222876D01*
X50920Y222944D01*
X50808Y222988D01*
X50703Y223031D01*
X50697D01*
X50678Y223043D01*
X50647Y223056D01*
X50604Y223074D01*
X50555Y223105D01*
X50493Y223136D01*
X50419Y223173D01*
X50338Y223217D01*
X50251Y223266D01*
X50159Y223322D01*
X50059Y223384D01*
X49954Y223452D01*
X49849Y223526D01*
X49731Y223606D01*
X49614Y223693D01*
X49496Y223786D01*
Y222115D01*
X48698D01*
Y224869D01*
X49341D01*
X49348Y224863D01*
D02*
G37*
G36*
X10683Y71041D02*
X10447D01*
Y73462D01*
X10683D01*
Y71041D01*
D02*
G37*
G36*
X10088Y69283D02*
X7835D01*
X7841Y69271D01*
X7866Y69246D01*
X7897Y69197D01*
X7940Y69141D01*
X7984Y69073D01*
X8033Y68992D01*
X8083Y68912D01*
X8126Y68831D01*
X8132Y68819D01*
X8145Y68794D01*
X8163Y68745D01*
X8188Y68683D01*
X8219Y68602D01*
X8256Y68516D01*
X8287Y68410D01*
X8324Y68293D01*
X7557D01*
Y68299D01*
X7550Y68312D01*
X7538Y68336D01*
X7532Y68373D01*
X7513Y68410D01*
X7495Y68460D01*
X7451Y68565D01*
X7396Y68683D01*
X7334Y68807D01*
X7266Y68931D01*
X7185Y69036D01*
Y69042D01*
X7173Y69048D01*
X7148Y69079D01*
X7098Y69129D01*
X7030Y69191D01*
X6956Y69259D01*
X6863Y69327D01*
X6758Y69395D01*
X6640Y69457D01*
Y70237D01*
X10088D01*
Y69283D01*
D02*
G37*
G36*
X-6867Y265339D02*
X-9120D01*
X-9114Y265326D01*
X-9089Y265302D01*
X-9058Y265252D01*
X-9015Y265196D01*
X-8971Y265128D01*
X-8922Y265048D01*
X-8873Y264967D01*
X-8829Y264887D01*
X-8823Y264875D01*
X-8811Y264850D01*
X-8792Y264800D01*
X-8767Y264738D01*
X-8736Y264658D01*
X-8699Y264571D01*
X-8668Y264466D01*
X-8631Y264349D01*
X-9399D01*
Y264355D01*
X-9405Y264367D01*
X-9417Y264392D01*
X-9423Y264429D01*
X-9442Y264466D01*
X-9461Y264516D01*
X-9504Y264621D01*
X-9560Y264738D01*
X-9622Y264862D01*
X-9690Y264986D01*
X-9770Y265091D01*
Y265097D01*
X-9782Y265104D01*
X-9807Y265135D01*
X-9857Y265184D01*
X-9925Y265246D01*
X-9999Y265314D01*
X-10092Y265382D01*
X-10197Y265450D01*
X-10315Y265512D01*
Y266292D01*
X-6867D01*
Y265339D01*
D02*
G37*
G36*
X80980Y270680D02*
X80992Y270686D01*
X81017Y270711D01*
X81067Y270742D01*
X81122Y270785D01*
X81191Y270829D01*
X81271Y270878D01*
X81351Y270928D01*
X81432Y270971D01*
X81444Y270977D01*
X81469Y270989D01*
X81519Y271008D01*
X81580Y271033D01*
X81661Y271064D01*
X81748Y271101D01*
X81853Y271132D01*
X81970Y271169D01*
Y270401D01*
X81964D01*
X81952Y270395D01*
X81927Y270383D01*
X81890Y270377D01*
X81853Y270358D01*
X81803Y270339D01*
X81698Y270296D01*
X81580Y270240D01*
X81457Y270179D01*
X81333Y270110D01*
X81228Y270030D01*
X81221D01*
X81215Y270018D01*
X81184Y269993D01*
X81135Y269943D01*
X81073Y269875D01*
X81005Y269801D01*
X80937Y269708D01*
X80869Y269603D01*
X80807Y269485D01*
X80027D01*
Y272933D01*
X80980D01*
Y270680D01*
D02*
G37*
G36*
X45298Y266420D02*
X43045D01*
X43051Y266408D01*
X43076Y266383D01*
X43107Y266334D01*
X43150Y266278D01*
X43194Y266210D01*
X43243Y266129D01*
X43293Y266049D01*
X43336Y265968D01*
X43342Y265956D01*
X43355Y265931D01*
X43373Y265882D01*
X43398Y265820D01*
X43429Y265739D01*
X43466Y265653D01*
X43497Y265547D01*
X43534Y265430D01*
X42767D01*
Y265436D01*
X42761Y265448D01*
X42748Y265473D01*
X42742Y265510D01*
X42723Y265547D01*
X42705Y265597D01*
X42661Y265702D01*
X42606Y265820D01*
X42544Y265944D01*
X42476Y266067D01*
X42395Y266173D01*
Y266179D01*
X42383Y266185D01*
X42358Y266216D01*
X42309Y266266D01*
X42241Y266327D01*
X42166Y266395D01*
X42073Y266464D01*
X41968Y266532D01*
X41851Y266594D01*
Y267373D01*
X45298D01*
Y266420D01*
D02*
G37*
G36*
X79074Y272927D02*
Y272915D01*
X79067Y272890D01*
X79061Y272865D01*
X79055Y272828D01*
X79049Y272784D01*
X79018Y272679D01*
X78981Y272562D01*
X78931Y272432D01*
X78863Y272289D01*
X78783Y272153D01*
X78776Y272147D01*
X78770Y272135D01*
X78758Y272116D01*
X78733Y272085D01*
X78702Y272054D01*
X78671Y272011D01*
X78622Y271961D01*
X78572Y271905D01*
X78516Y271844D01*
X78448Y271776D01*
X78374Y271708D01*
X78287Y271627D01*
X78194Y271547D01*
X78089Y271460D01*
X77978Y271373D01*
X77854Y271280D01*
X77848Y271274D01*
X77836Y271268D01*
X77817Y271249D01*
X77786Y271231D01*
X77718Y271175D01*
X77631Y271107D01*
X77545Y271026D01*
X77452Y270952D01*
X77377Y270878D01*
X77346Y270841D01*
X77322Y270810D01*
X77315Y270804D01*
X77303Y270785D01*
X77285Y270754D01*
X77260Y270711D01*
X77241Y270668D01*
X77223Y270612D01*
X77210Y270562D01*
X77204Y270507D01*
Y270500D01*
Y270482D01*
X77210Y270451D01*
X77217Y270414D01*
X77235Y270370D01*
X77254Y270327D01*
X77285Y270284D01*
X77322Y270240D01*
X77328Y270234D01*
X77340Y270222D01*
X77365Y270203D01*
X77402Y270185D01*
X77446Y270166D01*
X77495Y270148D01*
X77551Y270135D01*
X77613Y270129D01*
X77644D01*
X77675Y270135D01*
X77718Y270141D01*
X77761Y270160D01*
X77811Y270179D01*
X77860Y270210D01*
X77910Y270247D01*
X77916Y270253D01*
X77928Y270265D01*
X77947Y270296D01*
X77972Y270339D01*
X77996Y270395D01*
X78021Y270463D01*
X78040Y270544D01*
X78058Y270643D01*
X79005Y270568D01*
Y270562D01*
Y270550D01*
X78999Y270531D01*
X78993Y270500D01*
X78981Y270432D01*
X78962Y270339D01*
X78931Y270240D01*
X78900Y270141D01*
X78857Y270042D01*
X78807Y269950D01*
X78801Y269937D01*
X78783Y269912D01*
X78745Y269875D01*
X78696Y269826D01*
X78640Y269770D01*
X78566Y269714D01*
X78485Y269659D01*
X78386Y269609D01*
X78380D01*
X78374Y269603D01*
X78337Y269590D01*
X78275Y269572D01*
X78188Y269547D01*
X78083Y269522D01*
X77953Y269504D01*
X77804Y269491D01*
X77637Y269485D01*
X77557D01*
X77514Y269491D01*
X77464D01*
X77353Y269498D01*
X77229Y269516D01*
X77099Y269535D01*
X76975Y269566D01*
X76864Y269603D01*
X76858D01*
X76851Y269609D01*
X76820Y269621D01*
X76765Y269652D01*
X76703Y269689D01*
X76635Y269739D01*
X76560Y269795D01*
X76486Y269869D01*
X76424Y269950D01*
X76418Y269962D01*
X76399Y269993D01*
X76375Y270036D01*
X76344Y270104D01*
X76313Y270179D01*
X76288Y270271D01*
X76269Y270370D01*
X76263Y270476D01*
Y270482D01*
Y270488D01*
Y270507D01*
Y270525D01*
X76276Y270587D01*
X76288Y270668D01*
X76307Y270754D01*
X76344Y270859D01*
X76387Y270965D01*
X76449Y271070D01*
X76455Y271082D01*
X76486Y271119D01*
X76529Y271175D01*
X76597Y271249D01*
X76690Y271342D01*
X76746Y271392D01*
X76802Y271447D01*
X76870Y271503D01*
X76944Y271565D01*
X77025Y271627D01*
X77111Y271689D01*
X77124Y271695D01*
X77155Y271720D01*
X77204Y271757D01*
X77266Y271800D01*
X77328Y271844D01*
X77396Y271887D01*
X77452Y271930D01*
X77495Y271967D01*
X77501Y271974D01*
X77514Y271980D01*
X77532Y271998D01*
X77557Y272017D01*
X77625Y272085D01*
X77718Y272165D01*
X76239D01*
Y272933D01*
X79074D01*
Y272927D01*
D02*
G37*
G36*
X-29059Y230424D02*
X-29047Y230430D01*
X-29022Y230455D01*
X-28973Y230486D01*
X-28917Y230529D01*
X-28849Y230573D01*
X-28768Y230622D01*
X-28688Y230672D01*
X-28607Y230715D01*
X-28595Y230721D01*
X-28570Y230733D01*
X-28521Y230752D01*
X-28459Y230777D01*
X-28378Y230808D01*
X-28292Y230845D01*
X-28187Y230876D01*
X-28069Y230913D01*
Y230145D01*
X-28075D01*
X-28087Y230139D01*
X-28112Y230127D01*
X-28149Y230121D01*
X-28187Y230102D01*
X-28236Y230084D01*
X-28341Y230040D01*
X-28459Y229984D01*
X-28583Y229923D01*
X-28706Y229854D01*
X-28812Y229774D01*
X-28818D01*
X-28824Y229762D01*
X-28855Y229737D01*
X-28905Y229687D01*
X-28967Y229619D01*
X-29035Y229545D01*
X-29103Y229452D01*
X-29171Y229347D01*
X-29233Y229229D01*
X-30013D01*
Y232677D01*
X-29059D01*
Y230424D01*
D02*
G37*
G36*
X-25834Y232727D02*
X-25785D01*
X-25723Y232720D01*
X-25655Y232714D01*
X-25512Y232696D01*
X-25358Y232665D01*
X-25209Y232628D01*
X-25067Y232578D01*
X-25061D01*
X-25054Y232572D01*
X-25036Y232559D01*
X-25011Y232547D01*
X-24943Y232504D01*
X-24862Y232448D01*
X-24770Y232368D01*
X-24665Y232275D01*
X-24565Y232157D01*
X-24466Y232015D01*
Y232009D01*
X-24454Y231996D01*
X-24442Y231972D01*
X-24429Y231941D01*
X-24411Y231903D01*
X-24386Y231854D01*
X-24361Y231798D01*
X-24343Y231730D01*
X-24318Y231662D01*
X-24293Y231581D01*
X-24274Y231495D01*
X-24250Y231402D01*
X-24237Y231303D01*
X-24225Y231198D01*
X-24213Y230975D01*
Y230962D01*
Y230938D01*
X-24219Y230894D01*
Y230839D01*
X-24225Y230764D01*
X-24237Y230684D01*
X-24250Y230597D01*
X-24268Y230498D01*
X-24293Y230393D01*
X-24324Y230288D01*
X-24355Y230183D01*
X-24398Y230071D01*
X-24454Y229966D01*
X-24510Y229867D01*
X-24578Y229768D01*
X-24658Y229681D01*
X-24665Y229675D01*
X-24677Y229663D01*
X-24708Y229638D01*
X-24739Y229613D01*
X-24788Y229576D01*
X-24844Y229539D01*
X-24906Y229496D01*
X-24986Y229452D01*
X-25067Y229415D01*
X-25166Y229372D01*
X-25271Y229335D01*
X-25383Y229297D01*
X-25506Y229273D01*
X-25636Y229248D01*
X-25779Y229236D01*
X-25927Y229229D01*
X-25989D01*
X-26033Y229236D01*
X-26088D01*
X-26150Y229242D01*
X-26218Y229248D01*
X-26292Y229260D01*
X-26460Y229291D01*
X-26627Y229341D01*
X-26788Y229403D01*
X-26862Y229446D01*
X-26936Y229489D01*
X-26942D01*
X-26955Y229502D01*
X-26973Y229514D01*
X-26998Y229539D01*
X-27029Y229564D01*
X-27066Y229601D01*
X-27103Y229638D01*
X-27147Y229687D01*
X-27190Y229737D01*
X-27233Y229799D01*
X-27283Y229861D01*
X-27326Y229935D01*
X-27369Y230015D01*
X-27413Y230096D01*
X-27450Y230189D01*
X-27487Y230288D01*
X-26559Y230492D01*
Y230486D01*
X-26552Y230467D01*
X-26540Y230436D01*
X-26528Y230405D01*
X-26491Y230331D01*
X-26472Y230300D01*
X-26453Y230269D01*
X-26447Y230263D01*
X-26441Y230251D01*
X-26416Y230226D01*
X-26392Y230201D01*
X-26323Y230139D01*
X-26237Y230084D01*
X-26230Y230077D01*
X-26218Y230071D01*
X-26187Y230059D01*
X-26156Y230046D01*
X-26113Y230034D01*
X-26063Y230028D01*
X-26008Y230015D01*
X-25915D01*
X-25896Y230022D01*
X-25828Y230028D01*
X-25748Y230053D01*
X-25661Y230084D01*
X-25568Y230139D01*
X-25482Y230207D01*
X-25444Y230257D01*
X-25407Y230306D01*
X-25401Y230319D01*
X-25383Y230344D01*
X-25364Y230399D01*
X-25339Y230467D01*
X-25308Y230560D01*
X-25290Y230672D01*
X-25271Y230808D01*
X-25265Y230969D01*
Y230975D01*
Y230994D01*
Y231024D01*
Y231062D01*
X-25271Y231105D01*
Y231161D01*
X-25284Y231278D01*
X-25308Y231402D01*
X-25333Y231532D01*
X-25376Y231650D01*
X-25401Y231699D01*
X-25432Y231743D01*
X-25438Y231749D01*
X-25463Y231773D01*
X-25506Y231804D01*
X-25556Y231841D01*
X-25624Y231885D01*
X-25711Y231916D01*
X-25803Y231941D01*
X-25915Y231947D01*
X-25964D01*
X-26020Y231941D01*
X-26088Y231928D01*
X-26162Y231903D01*
X-26237Y231879D01*
X-26311Y231835D01*
X-26373Y231780D01*
X-26379Y231773D01*
X-26398Y231749D01*
X-26429Y231712D01*
X-26460Y231656D01*
X-26497Y231588D01*
X-26534Y231501D01*
X-26571Y231402D01*
X-26602Y231284D01*
X-27518Y231569D01*
Y231575D01*
X-27512Y231588D01*
X-27506Y231606D01*
X-27499Y231631D01*
X-27481Y231705D01*
X-27444Y231792D01*
X-27407Y231897D01*
X-27351Y232002D01*
X-27295Y232108D01*
X-27221Y232213D01*
X-27215Y232225D01*
X-27184Y232256D01*
X-27141Y232300D01*
X-27085Y232362D01*
X-27011Y232423D01*
X-26930Y232485D01*
X-26831Y232547D01*
X-26726Y232603D01*
X-26719D01*
X-26713Y232609D01*
X-26695Y232615D01*
X-26676Y232622D01*
X-26608Y232646D01*
X-26522Y232665D01*
X-26416Y232689D01*
X-26286Y232714D01*
X-26138Y232727D01*
X-25977Y232733D01*
X-25884D01*
X-25834Y232727D01*
D02*
G37*
G36*
X-32328D02*
X-32278D01*
X-32179Y232720D01*
X-32061Y232708D01*
X-31938Y232689D01*
X-31820Y232665D01*
X-31709Y232628D01*
X-31696Y232622D01*
X-31665Y232609D01*
X-31616Y232584D01*
X-31554Y232547D01*
X-31486Y232504D01*
X-31412Y232448D01*
X-31337Y232386D01*
X-31269Y232312D01*
X-31263Y232300D01*
X-31238Y232275D01*
X-31207Y232231D01*
X-31170Y232170D01*
X-31127Y232089D01*
X-31090Y232002D01*
X-31046Y231897D01*
X-31009Y231786D01*
X-31950Y231656D01*
Y231668D01*
X-31962Y231699D01*
X-31975Y231749D01*
X-31993Y231811D01*
X-32043Y231941D01*
X-32080Y232002D01*
X-32117Y232052D01*
X-32123Y232058D01*
X-32136Y232070D01*
X-32167Y232083D01*
X-32198Y232101D01*
X-32241Y232126D01*
X-32297Y232139D01*
X-32352Y232151D01*
X-32421Y232157D01*
X-32452D01*
X-32489Y232151D01*
X-32532Y232139D01*
X-32581Y232126D01*
X-32637Y232101D01*
X-32687Y232064D01*
X-32736Y232021D01*
X-32742Y232015D01*
X-32755Y231996D01*
X-32780Y231965D01*
X-32804Y231922D01*
X-32823Y231873D01*
X-32848Y231804D01*
X-32860Y231730D01*
X-32866Y231650D01*
Y231637D01*
Y231612D01*
X-32860Y231569D01*
X-32854Y231513D01*
X-32835Y231458D01*
X-32817Y231396D01*
X-32786Y231340D01*
X-32742Y231284D01*
X-32736Y231278D01*
X-32718Y231266D01*
X-32693Y231241D01*
X-32656Y231216D01*
X-32606Y231198D01*
X-32550Y231173D01*
X-32482Y231161D01*
X-32408Y231154D01*
X-32365D01*
X-32328Y231161D01*
X-32284Y231167D01*
X-32235Y231179D01*
X-32173Y231192D01*
X-32105Y231210D01*
X-32148Y230542D01*
X-32192D01*
X-32235Y230548D01*
X-32303D01*
X-32340Y230542D01*
X-32383Y230535D01*
X-32427Y230523D01*
X-32482Y230498D01*
X-32532Y230473D01*
X-32581Y230436D01*
X-32588Y230430D01*
X-32600Y230418D01*
X-32625Y230393D01*
X-32650Y230356D01*
X-32668Y230319D01*
X-32693Y230269D01*
X-32705Y230213D01*
X-32711Y230158D01*
Y230152D01*
Y230133D01*
X-32705Y230102D01*
X-32699Y230071D01*
X-32687Y230028D01*
X-32674Y229991D01*
X-32650Y229947D01*
X-32619Y229910D01*
X-32612Y229904D01*
X-32600Y229898D01*
X-32581Y229879D01*
X-32550Y229861D01*
X-32513Y229848D01*
X-32470Y229830D01*
X-32421Y229824D01*
X-32359Y229817D01*
X-32334D01*
X-32303Y229824D01*
X-32260Y229830D01*
X-32216Y229842D01*
X-32173Y229861D01*
X-32130Y229886D01*
X-32086Y229923D01*
X-32080Y229929D01*
X-32068Y229941D01*
X-32055Y229966D01*
X-32031Y230003D01*
X-32012Y230053D01*
X-31987Y230108D01*
X-31969Y230183D01*
X-31950Y230269D01*
X-31059Y230115D01*
Y230108D01*
X-31065Y230096D01*
X-31071Y230071D01*
X-31077Y230046D01*
X-31096Y230009D01*
X-31108Y229966D01*
X-31152Y229873D01*
X-31207Y229768D01*
X-31282Y229656D01*
X-31368Y229551D01*
X-31480Y229458D01*
X-31486D01*
X-31492Y229446D01*
X-31511Y229440D01*
X-31542Y229421D01*
X-31572Y229403D01*
X-31610Y229384D01*
X-31659Y229365D01*
X-31715Y229341D01*
X-31771Y229322D01*
X-31839Y229304D01*
X-31913Y229285D01*
X-31993Y229267D01*
X-32080Y229248D01*
X-32173Y229242D01*
X-32377Y229229D01*
X-32439D01*
X-32489Y229236D01*
X-32544D01*
X-32606Y229242D01*
X-32674Y229248D01*
X-32749Y229260D01*
X-32910Y229291D01*
X-33064Y229335D01*
X-33219Y229397D01*
X-33281Y229434D01*
X-33343Y229477D01*
X-33349D01*
X-33355Y229489D01*
X-33392Y229520D01*
X-33436Y229576D01*
X-33491Y229650D01*
X-33547Y229737D01*
X-33597Y229842D01*
X-33628Y229966D01*
X-33634Y230034D01*
X-33640Y230102D01*
Y230115D01*
Y230139D01*
X-33634Y230183D01*
X-33628Y230232D01*
X-33609Y230294D01*
X-33590Y230362D01*
X-33560Y230430D01*
X-33516Y230498D01*
X-33510Y230504D01*
X-33491Y230529D01*
X-33467Y230560D01*
X-33430Y230604D01*
X-33380Y230647D01*
X-33318Y230703D01*
X-33244Y230758D01*
X-33157Y230808D01*
X-33163D01*
X-33188Y230814D01*
X-33225Y230826D01*
X-33269Y230839D01*
X-33361Y230876D01*
X-33411Y230894D01*
X-33454Y230919D01*
X-33461Y230925D01*
X-33479Y230938D01*
X-33510Y230962D01*
X-33547Y230994D01*
X-33590Y231031D01*
X-33634Y231080D01*
X-33677Y231136D01*
X-33714Y231198D01*
X-33720Y231204D01*
X-33733Y231229D01*
X-33745Y231266D01*
X-33764Y231309D01*
X-33782Y231371D01*
X-33801Y231439D01*
X-33807Y231513D01*
X-33813Y231600D01*
Y231606D01*
Y231612D01*
Y231650D01*
X-33807Y231705D01*
X-33795Y231780D01*
X-33776Y231873D01*
X-33745Y231965D01*
X-33708Y232064D01*
X-33652Y232170D01*
X-33646Y232182D01*
X-33621Y232213D01*
X-33590Y232262D01*
X-33541Y232324D01*
X-33473Y232392D01*
X-33399Y232460D01*
X-33312Y232529D01*
X-33207Y232591D01*
X-33200D01*
X-33194Y232597D01*
X-33176Y232603D01*
X-33151Y232615D01*
X-33126Y232622D01*
X-33089Y232634D01*
X-33002Y232659D01*
X-32891Y232689D01*
X-32761Y232708D01*
X-32606Y232727D01*
X-32439Y232733D01*
X-32365D01*
X-32328Y232727D01*
D02*
G37*
G36*
X84205Y272983D02*
X84254D01*
X84316Y272976D01*
X84385Y272970D01*
X84527Y272952D01*
X84682Y272921D01*
X84830Y272884D01*
X84973Y272834D01*
X84979D01*
X84985Y272828D01*
X85004Y272815D01*
X85028Y272803D01*
X85096Y272760D01*
X85177Y272704D01*
X85270Y272624D01*
X85375Y272531D01*
X85474Y272413D01*
X85573Y272271D01*
Y272265D01*
X85585Y272252D01*
X85598Y272227D01*
X85610Y272197D01*
X85629Y272159D01*
X85654Y272110D01*
X85678Y272054D01*
X85697Y271986D01*
X85722Y271918D01*
X85746Y271837D01*
X85765Y271751D01*
X85790Y271658D01*
X85802Y271559D01*
X85814Y271454D01*
X85827Y271231D01*
Y271218D01*
Y271194D01*
X85821Y271150D01*
Y271095D01*
X85814Y271020D01*
X85802Y270940D01*
X85790Y270853D01*
X85771Y270754D01*
X85746Y270649D01*
X85715Y270544D01*
X85684Y270439D01*
X85641Y270327D01*
X85585Y270222D01*
X85530Y270123D01*
X85462Y270024D01*
X85381Y269937D01*
X85375Y269931D01*
X85362Y269918D01*
X85332Y269894D01*
X85301Y269869D01*
X85251Y269832D01*
X85195Y269795D01*
X85133Y269751D01*
X85053Y269708D01*
X84973Y269671D01*
X84873Y269628D01*
X84768Y269590D01*
X84657Y269553D01*
X84533Y269529D01*
X84403Y269504D01*
X84261Y269491D01*
X84112Y269485D01*
X84050D01*
X84007Y269491D01*
X83951D01*
X83889Y269498D01*
X83821Y269504D01*
X83747Y269516D01*
X83580Y269547D01*
X83413Y269597D01*
X83252Y269659D01*
X83178Y269702D01*
X83103Y269745D01*
X83097D01*
X83085Y269758D01*
X83066Y269770D01*
X83041Y269795D01*
X83010Y269819D01*
X82973Y269857D01*
X82936Y269894D01*
X82893Y269943D01*
X82849Y269993D01*
X82806Y270055D01*
X82757Y270117D01*
X82713Y270191D01*
X82670Y270271D01*
X82626Y270352D01*
X82589Y270445D01*
X82552Y270544D01*
X83481Y270748D01*
Y270742D01*
X83487Y270723D01*
X83499Y270692D01*
X83512Y270661D01*
X83549Y270587D01*
X83567Y270556D01*
X83586Y270525D01*
X83592Y270519D01*
X83598Y270507D01*
X83623Y270482D01*
X83648Y270457D01*
X83716Y270395D01*
X83803Y270339D01*
X83809Y270333D01*
X83821Y270327D01*
X83852Y270315D01*
X83883Y270302D01*
X83926Y270290D01*
X83976Y270284D01*
X84032Y270271D01*
X84124D01*
X84143Y270278D01*
X84211Y270284D01*
X84292Y270308D01*
X84378Y270339D01*
X84471Y270395D01*
X84558Y270463D01*
X84595Y270513D01*
X84632Y270562D01*
X84638Y270575D01*
X84657Y270599D01*
X84675Y270655D01*
X84700Y270723D01*
X84731Y270816D01*
X84750Y270928D01*
X84768Y271064D01*
X84775Y271225D01*
Y271231D01*
Y271249D01*
Y271280D01*
Y271318D01*
X84768Y271361D01*
Y271416D01*
X84756Y271534D01*
X84731Y271658D01*
X84706Y271788D01*
X84663Y271905D01*
X84638Y271955D01*
X84607Y271998D01*
X84601Y272005D01*
X84576Y272029D01*
X84533Y272060D01*
X84484Y272097D01*
X84416Y272141D01*
X84329Y272172D01*
X84236Y272197D01*
X84124Y272203D01*
X84075D01*
X84019Y272197D01*
X83951Y272184D01*
X83877Y272159D01*
X83803Y272135D01*
X83728Y272091D01*
X83666Y272036D01*
X83660Y272029D01*
X83642Y272005D01*
X83611Y271967D01*
X83580Y271912D01*
X83543Y271844D01*
X83505Y271757D01*
X83468Y271658D01*
X83437Y271540D01*
X82521Y271825D01*
Y271831D01*
X82528Y271844D01*
X82534Y271862D01*
X82540Y271887D01*
X82559Y271961D01*
X82596Y272048D01*
X82633Y272153D01*
X82688Y272258D01*
X82744Y272364D01*
X82818Y272469D01*
X82825Y272481D01*
X82856Y272512D01*
X82899Y272555D01*
X82955Y272617D01*
X83029Y272679D01*
X83109Y272741D01*
X83208Y272803D01*
X83314Y272859D01*
X83320D01*
X83326Y272865D01*
X83345Y272871D01*
X83363Y272877D01*
X83431Y272902D01*
X83518Y272921D01*
X83623Y272945D01*
X83753Y272970D01*
X83902Y272983D01*
X84063Y272989D01*
X84155D01*
X84205Y272983D01*
D02*
G37*
G36*
X5072Y197024D02*
X4119D01*
Y199278D01*
X4106Y199271D01*
X4082Y199247D01*
X4032Y199216D01*
X3977Y199172D01*
X3908Y199129D01*
X3828Y199080D01*
X3748Y199030D01*
X3667Y198987D01*
X3655Y198980D01*
X3630Y198968D01*
X3580Y198950D01*
X3518Y198925D01*
X3438Y198894D01*
X3351Y198857D01*
X3246Y198826D01*
X3128Y198789D01*
Y199556D01*
X3135D01*
X3147Y199562D01*
X3172Y199575D01*
X3209Y199581D01*
X3246Y199600D01*
X3296Y199618D01*
X3401Y199661D01*
X3518Y199717D01*
X3642Y199779D01*
X3766Y199847D01*
X3871Y199927D01*
X3878D01*
X3884Y199940D01*
X3915Y199965D01*
X3964Y200014D01*
X4026Y200082D01*
X4094Y200157D01*
X4162Y200249D01*
X4230Y200355D01*
X4292Y200472D01*
X5072D01*
Y197024D01*
D02*
G37*
G36*
X-2071Y200466D02*
X-2015D01*
X-1953Y200460D01*
X-1885Y200454D01*
X-1811Y200441D01*
X-1644Y200410D01*
X-1477Y200361D01*
X-1316Y200299D01*
X-1242Y200256D01*
X-1167Y200212D01*
X-1161D01*
X-1149Y200200D01*
X-1130Y200187D01*
X-1106Y200163D01*
X-1075Y200138D01*
X-1037Y200101D01*
X-1000Y200064D01*
X-957Y200014D01*
X-914Y199965D01*
X-870Y199903D01*
X-821Y199841D01*
X-777Y199767D01*
X-734Y199686D01*
X-691Y199606D01*
X-654Y199513D01*
X-617Y199414D01*
X-1545Y199209D01*
Y199216D01*
X-1551Y199234D01*
X-1564Y199265D01*
X-1576Y199296D01*
X-1613Y199370D01*
X-1632Y199401D01*
X-1650Y199432D01*
X-1656Y199439D01*
X-1663Y199451D01*
X-1687Y199476D01*
X-1712Y199500D01*
X-1780Y199562D01*
X-1867Y199618D01*
X-1873Y199624D01*
X-1885Y199630D01*
X-1916Y199643D01*
X-1947Y199655D01*
X-1991Y199668D01*
X-2040Y199674D01*
X-2096Y199686D01*
X-2189D01*
X-2207Y199680D01*
X-2275Y199674D01*
X-2356Y199649D01*
X-2442Y199618D01*
X-2535Y199562D01*
X-2622Y199494D01*
X-2659Y199445D01*
X-2696Y199395D01*
X-2702Y199383D01*
X-2721Y199358D01*
X-2740Y199302D01*
X-2764Y199234D01*
X-2795Y199141D01*
X-2814Y199030D01*
X-2833Y198894D01*
X-2839Y198733D01*
Y198727D01*
Y198708D01*
Y198677D01*
Y198640D01*
X-2833Y198597D01*
Y198541D01*
X-2820Y198423D01*
X-2795Y198300D01*
X-2771Y198170D01*
X-2727Y198052D01*
X-2702Y198002D01*
X-2672Y197959D01*
X-2665Y197953D01*
X-2641Y197928D01*
X-2597Y197897D01*
X-2548Y197860D01*
X-2480Y197817D01*
X-2393Y197786D01*
X-2300Y197761D01*
X-2189Y197755D01*
X-2139D01*
X-2083Y197761D01*
X-2015Y197773D01*
X-1941Y197798D01*
X-1867Y197823D01*
X-1793Y197866D01*
X-1731Y197922D01*
X-1725Y197928D01*
X-1706Y197953D01*
X-1675Y197990D01*
X-1644Y198046D01*
X-1607Y198114D01*
X-1570Y198201D01*
X-1533Y198300D01*
X-1502Y198417D01*
X-586Y198132D01*
Y198126D01*
X-592Y198114D01*
X-598Y198095D01*
X-604Y198071D01*
X-623Y197996D01*
X-660Y197910D01*
X-697Y197804D01*
X-753Y197699D01*
X-808Y197594D01*
X-883Y197489D01*
X-889Y197476D01*
X-920Y197445D01*
X-963Y197402D01*
X-1019Y197340D01*
X-1093Y197278D01*
X-1174Y197216D01*
X-1273Y197154D01*
X-1378Y197099D01*
X-1384D01*
X-1390Y197092D01*
X-1409Y197086D01*
X-1427Y197080D01*
X-1496Y197055D01*
X-1582Y197037D01*
X-1687Y197012D01*
X-1817Y196987D01*
X-1966Y196975D01*
X-2127Y196969D01*
X-2220D01*
X-2269Y196975D01*
X-2319D01*
X-2381Y196981D01*
X-2449Y196987D01*
X-2591Y197006D01*
X-2746Y197037D01*
X-2894Y197074D01*
X-3037Y197124D01*
X-3043D01*
X-3049Y197130D01*
X-3068Y197142D01*
X-3093Y197154D01*
X-3161Y197198D01*
X-3241Y197253D01*
X-3334Y197334D01*
X-3439Y197427D01*
X-3538Y197544D01*
X-3637Y197687D01*
Y197693D01*
X-3650Y197705D01*
X-3662Y197730D01*
X-3674Y197761D01*
X-3693Y197798D01*
X-3718Y197848D01*
X-3742Y197903D01*
X-3761Y197971D01*
X-3786Y198040D01*
X-3810Y198120D01*
X-3829Y198207D01*
X-3854Y198300D01*
X-3866Y198399D01*
X-3879Y198504D01*
X-3891Y198727D01*
Y198739D01*
Y198764D01*
X-3885Y198807D01*
Y198863D01*
X-3879Y198937D01*
X-3866Y199018D01*
X-3854Y199104D01*
X-3835Y199203D01*
X-3810Y199309D01*
X-3780Y199414D01*
X-3749Y199519D01*
X-3705Y199630D01*
X-3650Y199736D01*
X-3594Y199835D01*
X-3526Y199934D01*
X-3445Y200020D01*
X-3439Y200027D01*
X-3427Y200039D01*
X-3396Y200064D01*
X-3365Y200089D01*
X-3315Y200126D01*
X-3260Y200163D01*
X-3198Y200206D01*
X-3117Y200249D01*
X-3037Y200287D01*
X-2938Y200330D01*
X-2833Y200367D01*
X-2721Y200404D01*
X-2597Y200429D01*
X-2467Y200454D01*
X-2325Y200466D01*
X-2176Y200472D01*
X-2114D01*
X-2071Y200466D01*
D02*
G37*
G36*
X-16069Y253494D02*
X-16032D01*
X-15933Y253482D01*
X-15821Y253470D01*
X-15704Y253445D01*
X-15586Y253408D01*
X-15481Y253364D01*
X-15469Y253358D01*
X-15438Y253340D01*
X-15388Y253309D01*
X-15332Y253265D01*
X-15258Y253210D01*
X-15190Y253142D01*
X-15116Y253061D01*
X-15048Y252968D01*
X-15041Y252962D01*
X-15029Y252931D01*
X-15004Y252894D01*
X-14979Y252832D01*
X-14949Y252764D01*
X-14918Y252677D01*
X-14887Y252572D01*
X-14862Y252461D01*
Y252454D01*
Y252448D01*
X-14856Y252430D01*
X-14850Y252405D01*
X-14843Y252337D01*
X-14831Y252244D01*
X-14819Y252139D01*
X-14806Y252015D01*
X-14800Y251879D01*
X-14794Y251736D01*
Y251724D01*
Y251693D01*
Y251644D01*
X-14800Y251582D01*
X-14806Y251501D01*
X-14812Y251408D01*
X-14825Y251309D01*
X-14837Y251204D01*
X-14881Y250981D01*
X-14942Y250758D01*
X-14979Y250653D01*
X-15029Y250554D01*
X-15079Y250467D01*
X-15141Y250387D01*
X-15147Y250381D01*
X-15159Y250368D01*
X-15178Y250350D01*
X-15209Y250325D01*
X-15246Y250294D01*
X-15289Y250263D01*
X-15345Y250226D01*
X-15407Y250189D01*
X-15475Y250158D01*
X-15555Y250121D01*
X-15642Y250090D01*
X-15735Y250059D01*
X-15840Y250034D01*
X-15951Y250016D01*
X-16075Y250003D01*
X-16205Y249997D01*
X-16261D01*
X-16323Y250003D01*
X-16403Y250009D01*
X-16490Y250016D01*
X-16583Y250034D01*
X-16676Y250053D01*
X-16762Y250084D01*
X-16775Y250090D01*
X-16799Y250096D01*
X-16843Y250121D01*
X-16892Y250146D01*
X-16948Y250177D01*
X-17010Y250214D01*
X-17065Y250257D01*
X-17121Y250307D01*
X-17127Y250313D01*
X-17146Y250331D01*
X-17171Y250356D01*
X-17202Y250393D01*
X-17239Y250430D01*
X-17276Y250480D01*
X-17344Y250591D01*
X-17350Y250598D01*
X-17357Y250616D01*
X-17375Y250647D01*
X-17394Y250690D01*
X-17412Y250740D01*
X-17431Y250802D01*
X-17456Y250864D01*
X-17474Y250938D01*
Y250944D01*
X-17480Y250957D01*
X-17487Y250975D01*
X-17493Y251006D01*
X-17499Y251037D01*
X-17505Y251080D01*
X-17524Y251179D01*
X-17542Y251297D01*
X-17561Y251427D01*
X-17567Y251575D01*
X-17573Y251724D01*
Y251736D01*
Y251767D01*
Y251811D01*
X-17567Y251873D01*
X-17561Y251953D01*
X-17555Y252040D01*
X-17548Y252133D01*
X-17536Y252238D01*
X-17499Y252461D01*
X-17443Y252683D01*
X-17406Y252789D01*
X-17363Y252894D01*
X-17313Y252987D01*
X-17257Y253074D01*
X-17251Y253080D01*
X-17245Y253092D01*
X-17226Y253111D01*
X-17196Y253142D01*
X-17158Y253172D01*
X-17115Y253210D01*
X-17065Y253247D01*
X-17004Y253284D01*
X-16936Y253327D01*
X-16855Y253364D01*
X-16768Y253401D01*
X-16669Y253432D01*
X-16564Y253464D01*
X-16446Y253482D01*
X-16317Y253494D01*
X-16180Y253501D01*
X-16106D01*
X-16069Y253494D01*
D02*
G37*
G36*
X1909Y197024D02*
X956D01*
Y199278D01*
X943Y199271D01*
X919Y199247D01*
X869Y199216D01*
X813Y199172D01*
X745Y199129D01*
X665Y199080D01*
X584Y199030D01*
X504Y198987D01*
X491Y198980D01*
X467Y198968D01*
X417Y198950D01*
X355Y198925D01*
X275Y198894D01*
X188Y198857D01*
X83Y198826D01*
X-35Y198789D01*
Y199556D01*
X-28D01*
X-16Y199562D01*
X9Y199575D01*
X46Y199581D01*
X83Y199600D01*
X132Y199618D01*
X238Y199661D01*
X355Y199717D01*
X479Y199779D01*
X603Y199847D01*
X708Y199927D01*
X714D01*
X721Y199940D01*
X752Y199965D01*
X801Y200014D01*
X863Y200082D01*
X931Y200157D01*
X999Y200249D01*
X1067Y200355D01*
X1129Y200472D01*
X1909D01*
Y197024D01*
D02*
G37*
G36*
X-8427Y270074D02*
X-8353Y270068D01*
X-8266Y270062D01*
X-8167Y270049D01*
X-8062Y270031D01*
X-7845Y269988D01*
X-7734Y269957D01*
X-7622Y269913D01*
X-7517Y269870D01*
X-7412Y269820D01*
X-7319Y269759D01*
X-7232Y269690D01*
X-7226Y269684D01*
X-7214Y269672D01*
X-7195Y269653D01*
X-7164Y269622D01*
X-7133Y269579D01*
X-7102Y269536D01*
X-7059Y269480D01*
X-7022Y269412D01*
X-6985Y269344D01*
X-6947Y269263D01*
X-6910Y269177D01*
X-6879Y269078D01*
X-6848Y268979D01*
X-6830Y268867D01*
X-6817Y268749D01*
X-6811Y268626D01*
Y268619D01*
Y268607D01*
Y268589D01*
Y268558D01*
X-6817Y268483D01*
X-6824Y268390D01*
X-6836Y268291D01*
X-6848Y268180D01*
X-6873Y268075D01*
X-6904Y267982D01*
X-6910Y267970D01*
X-6923Y267945D01*
X-6941Y267901D01*
X-6972Y267846D01*
X-7009Y267790D01*
X-7059Y267722D01*
X-7114Y267660D01*
X-7176Y267598D01*
X-7183Y267592D01*
X-7207Y267573D01*
X-7251Y267543D01*
X-7300Y267512D01*
X-7368Y267474D01*
X-7443Y267431D01*
X-7529Y267394D01*
X-7628Y267363D01*
X-7752Y268298D01*
X-7746D01*
X-7721Y268304D01*
X-7684Y268310D01*
X-7641Y268322D01*
X-7554Y268360D01*
X-7511Y268384D01*
X-7474Y268415D01*
X-7467Y268422D01*
X-7461Y268434D01*
X-7449Y268452D01*
X-7436Y268477D01*
X-7406Y268545D01*
X-7399Y268589D01*
X-7393Y268632D01*
Y268644D01*
X-7399Y268669D01*
X-7406Y268712D01*
X-7424Y268762D01*
X-7449Y268818D01*
X-7486Y268880D01*
X-7542Y268935D01*
X-7616Y268985D01*
X-7622Y268991D01*
X-7653Y269003D01*
X-7703Y269016D01*
X-7734Y269028D01*
X-7771Y269040D01*
X-7814Y269047D01*
X-7870Y269059D01*
X-7925Y269071D01*
X-7993Y269084D01*
X-8068Y269096D01*
X-8148Y269109D01*
X-8235Y269115D01*
X-8334Y269127D01*
X-8328Y269121D01*
X-8303Y269096D01*
X-8272Y269065D01*
X-8235Y269016D01*
X-8198Y268966D01*
X-8155Y268904D01*
X-8117Y268842D01*
X-8080Y268774D01*
X-8074Y268768D01*
X-8068Y268743D01*
X-8055Y268706D01*
X-8043Y268657D01*
X-8025Y268601D01*
X-8012Y268527D01*
X-8006Y268452D01*
X-8000Y268366D01*
Y268360D01*
Y268347D01*
Y268322D01*
X-8006Y268291D01*
X-8012Y268254D01*
X-8018Y268205D01*
X-8043Y268100D01*
X-8080Y267982D01*
X-8136Y267852D01*
X-8173Y267784D01*
X-8216Y267722D01*
X-8266Y267660D01*
X-8322Y267598D01*
X-8328Y267592D01*
X-8334Y267586D01*
X-8353Y267567D01*
X-8377Y267549D01*
X-8414Y267524D01*
X-8452Y267499D01*
X-8495Y267474D01*
X-8544Y267443D01*
X-8662Y267388D01*
X-8804Y267338D01*
X-8959Y267301D01*
X-9046Y267295D01*
X-9139Y267289D01*
X-9194D01*
X-9256Y267295D01*
X-9343Y267307D01*
X-9436Y267326D01*
X-9541Y267357D01*
X-9646Y267394D01*
X-9752Y267443D01*
X-9758D01*
X-9764Y267450D01*
X-9795Y267474D01*
X-9844Y267512D01*
X-9906Y267561D01*
X-9974Y267623D01*
X-10049Y267697D01*
X-10117Y267784D01*
X-10172Y267883D01*
Y267889D01*
X-10179Y267895D01*
X-10197Y267933D01*
X-10216Y267994D01*
X-10247Y268075D01*
X-10271Y268180D01*
X-10290Y268298D01*
X-10309Y268434D01*
X-10315Y268589D01*
Y268595D01*
Y268613D01*
Y268638D01*
Y268675D01*
X-10309Y268719D01*
Y268768D01*
X-10290Y268880D01*
X-10271Y269009D01*
X-10240Y269146D01*
X-10197Y269276D01*
X-10135Y269399D01*
Y269406D01*
X-10129Y269412D01*
X-10104Y269449D01*
X-10061Y269505D01*
X-9999Y269579D01*
X-9925Y269659D01*
X-9826Y269740D01*
X-9714Y269820D01*
X-9578Y269895D01*
X-9572D01*
X-9560Y269901D01*
X-9541Y269913D01*
X-9510Y269926D01*
X-9473Y269938D01*
X-9423Y269957D01*
X-9374Y269969D01*
X-9312Y269988D01*
X-9244Y270006D01*
X-9170Y270025D01*
X-9083Y270037D01*
X-8996Y270049D01*
X-8897Y270062D01*
X-8798Y270074D01*
X-8575Y270080D01*
X-8489D01*
X-8427Y270074D01*
D02*
G37*
G36*
X43949Y264681D02*
X44079Y264675D01*
X44221Y264662D01*
X44370Y264644D01*
X44512Y264619D01*
X44574Y264600D01*
X44636Y264582D01*
X44642D01*
X44649Y264576D01*
X44686Y264563D01*
X44741Y264532D01*
X44816Y264489D01*
X44896Y264433D01*
X44983Y264365D01*
X45069Y264272D01*
X45150Y264167D01*
Y264161D01*
X45156Y264155D01*
X45168Y264136D01*
X45181Y264111D01*
X45199Y264080D01*
X45212Y264043D01*
X45249Y263950D01*
X45292Y263839D01*
X45323Y263703D01*
X45348Y263542D01*
X45354Y263369D01*
Y263362D01*
Y263344D01*
Y263319D01*
Y263282D01*
X45348Y263239D01*
Y263189D01*
X45336Y263078D01*
X45323Y262948D01*
X45298Y262818D01*
X45261Y262688D01*
X45218Y262570D01*
X45212Y262558D01*
X45193Y262527D01*
X45162Y262471D01*
X45119Y262409D01*
X45057Y262341D01*
X44989Y262273D01*
X44908Y262199D01*
X44816Y262137D01*
X44809D01*
X44803Y262131D01*
X44766Y262112D01*
X44710Y262087D01*
X44630Y262056D01*
X44531Y262025D01*
X44419Y261994D01*
X44289Y261970D01*
X44147Y261957D01*
X44011Y262960D01*
X44091D01*
X44141Y262966D01*
X44252Y262979D01*
X44302Y262985D01*
X44351Y262997D01*
X44357D01*
X44370Y263003D01*
X44388Y263016D01*
X44413Y263028D01*
X44469Y263065D01*
X44519Y263121D01*
X44525Y263133D01*
X44537Y263164D01*
X44556Y263220D01*
X44562Y263294D01*
Y263300D01*
Y263325D01*
X44556Y263356D01*
X44543Y263393D01*
X44531Y263431D01*
X44506Y263474D01*
X44475Y263517D01*
X44432Y263548D01*
X44426Y263554D01*
X44407Y263560D01*
X44376Y263573D01*
X44327Y263591D01*
X44265Y263610D01*
X44190Y263622D01*
X44098Y263629D01*
X43992Y263635D01*
X41906D01*
Y264687D01*
X43893D01*
X43949Y264681D01*
D02*
G37*
G36*
X20026Y261591D02*
X19073D01*
Y263844D01*
X19060Y263838D01*
X19036Y263813D01*
X18986Y263783D01*
X18930Y263739D01*
X18862Y263696D01*
X18782Y263646D01*
X18701Y263597D01*
X18621Y263554D01*
X18609Y263547D01*
X18584Y263535D01*
X18534Y263516D01*
X18472Y263492D01*
X18392Y263461D01*
X18305Y263424D01*
X18200Y263393D01*
X18082Y263355D01*
Y264123D01*
X18089D01*
X18101Y264129D01*
X18126Y264142D01*
X18163Y264148D01*
X18200Y264166D01*
X18250Y264185D01*
X18355Y264228D01*
X18472Y264284D01*
X18596Y264346D01*
X18720Y264414D01*
X18825Y264494D01*
X18831D01*
X18838Y264507D01*
X18869Y264532D01*
X18918Y264581D01*
X18980Y264649D01*
X19048Y264723D01*
X19116Y264816D01*
X19184Y264922D01*
X19246Y265039D01*
X20026D01*
Y261591D01*
D02*
G37*
%LPC*%
G36*
X-9139Y269090D02*
X-9182D01*
X-9232Y269084D01*
X-9293Y269071D01*
X-9362Y269053D01*
X-9436Y269028D01*
X-9504Y268997D01*
X-9566Y268948D01*
X-9572Y268941D01*
X-9590Y268923D01*
X-9615Y268892D01*
X-9646Y268855D01*
X-9677Y268805D01*
X-9702Y268749D01*
X-9720Y268688D01*
X-9727Y268613D01*
Y268607D01*
Y268582D01*
X-9720Y268545D01*
X-9708Y268508D01*
X-9690Y268459D01*
X-9665Y268403D01*
X-9634Y268353D01*
X-9584Y268304D01*
X-9578Y268298D01*
X-9560Y268285D01*
X-9522Y268267D01*
X-9479Y268248D01*
X-9417Y268223D01*
X-9349Y268205D01*
X-9262Y268192D01*
X-9163Y268186D01*
X-9114D01*
X-9064Y268192D01*
X-9003Y268205D01*
X-8934Y268217D01*
X-8860Y268236D01*
X-8792Y268267D01*
X-8730Y268310D01*
X-8724Y268316D01*
X-8705Y268335D01*
X-8681Y268360D01*
X-8656Y268397D01*
X-8631Y268446D01*
X-8606Y268502D01*
X-8588Y268564D01*
X-8582Y268632D01*
Y268638D01*
Y268663D01*
X-8588Y268700D01*
X-8600Y268749D01*
X-8619Y268799D01*
X-8643Y268855D01*
X-8674Y268911D01*
X-8724Y268960D01*
X-8730Y268966D01*
X-8749Y268979D01*
X-8786Y269003D01*
X-8829Y269028D01*
X-8885Y269047D01*
X-8959Y269071D01*
X-9046Y269084D01*
X-9139Y269090D01*
D02*
G37*
G36*
X1245Y183192D02*
X1177D01*
X1146Y183186D01*
X1109Y183180D01*
X1072Y183168D01*
X1028Y183149D01*
X991Y183124D01*
X954Y183087D01*
X948Y183081D01*
X942Y183069D01*
X923Y183038D01*
X904Y183000D01*
X892Y182945D01*
X874Y182877D01*
X867Y182790D01*
X861Y182691D01*
Y182233D01*
X1548D01*
Y182672D01*
Y182679D01*
Y182685D01*
Y182710D01*
X1542Y182734D01*
X1536Y182771D01*
X1530Y182821D01*
X1517Y182883D01*
X1505Y182951D01*
Y182957D01*
X1499Y182969D01*
X1493Y182988D01*
X1486Y183013D01*
X1455Y183069D01*
X1431Y183099D01*
X1400Y183124D01*
X1393Y183130D01*
X1381Y183137D01*
X1369Y183149D01*
X1344Y183161D01*
X1282Y183180D01*
X1245Y183192D01*
D02*
G37*
G36*
X19397Y189255D02*
X19366D01*
X19335Y189249D01*
X19298Y189242D01*
X19249Y189230D01*
X19205Y189205D01*
X19156Y189181D01*
X19113Y189143D01*
X19106Y189137D01*
X19094Y189125D01*
X19075Y189100D01*
X19057Y189069D01*
X19038Y189026D01*
X19020Y188976D01*
X19007Y188927D01*
X19001Y188865D01*
Y188859D01*
Y188834D01*
X19007Y188803D01*
X19014Y188766D01*
X19026Y188716D01*
X19051Y188673D01*
X19075Y188623D01*
X19113Y188580D01*
X19119Y188574D01*
X19131Y188561D01*
X19156Y188549D01*
X19187Y188531D01*
X19224Y188506D01*
X19273Y188493D01*
X19323Y188481D01*
X19385Y188475D01*
X19416D01*
X19447Y188481D01*
X19484Y188487D01*
X19527Y188500D01*
X19577Y188518D01*
X19620Y188543D01*
X19663Y188580D01*
X19670Y188586D01*
X19682Y188599D01*
X19694Y188623D01*
X19713Y188661D01*
X19738Y188704D01*
X19750Y188753D01*
X19762Y188809D01*
X19769Y188877D01*
Y188883D01*
Y188908D01*
X19762Y188933D01*
X19756Y188976D01*
X19744Y189020D01*
X19725Y189063D01*
X19701Y189106D01*
X19670Y189150D01*
X19663Y189156D01*
X19651Y189168D01*
X19626Y189181D01*
X19595Y189205D01*
X19558Y189224D01*
X19509Y189236D01*
X19459Y189249D01*
X19397Y189255D01*
D02*
G37*
G36*
X-9188Y262640D02*
X-9256D01*
X-9287Y262634D01*
X-9324Y262628D01*
X-9362Y262615D01*
X-9405Y262597D01*
X-9442Y262572D01*
X-9479Y262535D01*
X-9485Y262529D01*
X-9492Y262516D01*
X-9510Y262485D01*
X-9529Y262448D01*
X-9541Y262392D01*
X-9560Y262324D01*
X-9566Y262238D01*
X-9572Y262139D01*
Y261681D01*
X-8885D01*
Y262120D01*
Y262126D01*
Y262132D01*
Y262157D01*
X-8891Y262182D01*
X-8897Y262219D01*
X-8903Y262269D01*
X-8916Y262331D01*
X-8928Y262399D01*
Y262405D01*
X-8934Y262417D01*
X-8941Y262436D01*
X-8947Y262460D01*
X-8978Y262516D01*
X-9003Y262547D01*
X-9033Y262572D01*
X-9040Y262578D01*
X-9052Y262584D01*
X-9064Y262597D01*
X-9089Y262609D01*
X-9151Y262628D01*
X-9188Y262640D01*
D02*
G37*
G36*
X20840Y189317D02*
X20802D01*
X20759Y189311D01*
X20709Y189298D01*
X20654Y189286D01*
X20592Y189261D01*
X20530Y189224D01*
X20474Y189181D01*
X20468Y189174D01*
X20449Y189156D01*
X20425Y189131D01*
X20400Y189088D01*
X20375Y189044D01*
X20350Y188989D01*
X20332Y188933D01*
X20326Y188865D01*
Y188859D01*
Y188834D01*
X20332Y188803D01*
X20344Y188760D01*
X20363Y188710D01*
X20388Y188661D01*
X20419Y188605D01*
X20468Y188555D01*
X20474Y188549D01*
X20493Y188537D01*
X20524Y188512D01*
X20567Y188493D01*
X20617Y188469D01*
X20685Y188444D01*
X20753Y188432D01*
X20840Y188425D01*
X20877D01*
X20920Y188432D01*
X20969Y188444D01*
X21031Y188456D01*
X21093Y188481D01*
X21155Y188518D01*
X21211Y188561D01*
X21217Y188568D01*
X21229Y188586D01*
X21254Y188611D01*
X21279Y188654D01*
X21304Y188698D01*
X21328Y188747D01*
X21341Y188809D01*
X21347Y188871D01*
Y188877D01*
Y188902D01*
X21341Y188933D01*
X21328Y188976D01*
X21310Y189026D01*
X21285Y189075D01*
X21254Y189131D01*
X21205Y189181D01*
X21199Y189187D01*
X21180Y189199D01*
X21149Y189224D01*
X21106Y189249D01*
X21050Y189273D01*
X20988Y189298D01*
X20920Y189311D01*
X20840Y189317D01*
D02*
G37*
G36*
X19552Y182811D02*
X19484D01*
X19453Y182805D01*
X19416Y182799D01*
X19379Y182786D01*
X19335Y182768D01*
X19298Y182743D01*
X19261Y182706D01*
X19255Y182700D01*
X19249Y182687D01*
X19230Y182656D01*
X19211Y182619D01*
X19199Y182563D01*
X19181Y182495D01*
X19174Y182409D01*
X19168Y182310D01*
Y181851D01*
X19855D01*
Y182291D01*
Y182297D01*
Y182303D01*
Y182328D01*
X19849Y182353D01*
X19843Y182390D01*
X19837Y182440D01*
X19824Y182501D01*
X19812Y182570D01*
Y182576D01*
X19806Y182588D01*
X19800Y182607D01*
X19793Y182632D01*
X19762Y182687D01*
X19738Y182718D01*
X19707Y182743D01*
X19701Y182749D01*
X19688Y182755D01*
X19676Y182768D01*
X19651Y182780D01*
X19589Y182799D01*
X19552Y182811D01*
D02*
G37*
G36*
X10328Y182420D02*
X10260D01*
X10229Y182414D01*
X10192Y182408D01*
X10154Y182396D01*
X10111Y182377D01*
X10074Y182352D01*
X10037Y182315D01*
X10031Y182309D01*
X10025Y182297D01*
X10006Y182266D01*
X9987Y182229D01*
X9975Y182173D01*
X9956Y182105D01*
X9950Y182018D01*
X9944Y181919D01*
Y181461D01*
X10631D01*
Y181900D01*
Y181907D01*
Y181913D01*
Y181938D01*
X10625Y181962D01*
X10619Y182000D01*
X10613Y182049D01*
X10600Y182111D01*
X10588Y182179D01*
Y182185D01*
X10582Y182198D01*
X10576Y182216D01*
X10569Y182241D01*
X10538Y182297D01*
X10514Y182327D01*
X10483Y182352D01*
X10476Y182359D01*
X10464Y182365D01*
X10452Y182377D01*
X10427Y182389D01*
X10365Y182408D01*
X10328Y182420D01*
D02*
G37*
G36*
X-41486Y259052D02*
X-41944D01*
Y258365D01*
X-41467D01*
X-41442Y258371D01*
X-41405Y258377D01*
X-41356Y258383D01*
X-41294Y258396D01*
X-41226Y258408D01*
X-41220D01*
X-41207Y258414D01*
X-41189Y258421D01*
X-41164Y258427D01*
X-41108Y258458D01*
X-41077Y258483D01*
X-41052Y258513D01*
X-41046Y258520D01*
X-41040Y258532D01*
X-41028Y258544D01*
X-41015Y258569D01*
X-40997Y258631D01*
X-40984Y258668D01*
Y258712D01*
Y258718D01*
Y258736D01*
X-40991Y258767D01*
X-40997Y258804D01*
X-41009Y258841D01*
X-41028Y258885D01*
X-41052Y258922D01*
X-41090Y258959D01*
X-41096Y258965D01*
X-41108Y258972D01*
X-41139Y258990D01*
X-41176Y259009D01*
X-41232Y259021D01*
X-41300Y259040D01*
X-41387Y259046D01*
X-41486Y259052D01*
D02*
G37*
G36*
X22428Y264414D02*
X22415D01*
X22391Y264408D01*
X22347Y264402D01*
X22298Y264383D01*
X22242Y264358D01*
X22186Y264315D01*
X22131Y264253D01*
X22087Y264173D01*
X22081Y264160D01*
X22075Y264148D01*
X22069Y264123D01*
X22063Y264098D01*
X22056Y264067D01*
X22044Y264024D01*
X22038Y263974D01*
X22026Y263919D01*
X22013Y263857D01*
X22007Y263783D01*
X22001Y263708D01*
X21994Y263615D01*
X21988Y263523D01*
X21982Y263417D01*
Y263300D01*
Y263294D01*
Y263269D01*
Y263238D01*
Y263194D01*
X21988Y263145D01*
Y263083D01*
X21994Y262947D01*
X22007Y262798D01*
X22032Y262650D01*
X22044Y262582D01*
X22056Y262520D01*
X22075Y262464D01*
X22094Y262415D01*
X22100Y262402D01*
X22118Y262378D01*
X22143Y262340D01*
X22180Y262297D01*
X22230Y262254D01*
X22285Y262216D01*
X22354Y262192D01*
X22428Y262179D01*
X22453D01*
X22483Y262186D01*
X22514Y262192D01*
X22558Y262204D01*
X22595Y262223D01*
X22638Y262247D01*
X22682Y262278D01*
X22688Y262285D01*
X22700Y262297D01*
X22719Y262322D01*
X22743Y262353D01*
X22768Y262402D01*
X22793Y262452D01*
X22818Y262520D01*
X22836Y262594D01*
Y262607D01*
X22842Y262637D01*
X22855Y262687D01*
X22867Y262761D01*
X22873Y262854D01*
X22886Y262972D01*
X22892Y263108D01*
Y263269D01*
Y263275D01*
Y263300D01*
Y263331D01*
Y263380D01*
X22886Y263430D01*
Y263498D01*
X22880Y263634D01*
X22861Y263789D01*
X22842Y263937D01*
X22830Y264005D01*
X22812Y264073D01*
X22793Y264129D01*
X22774Y264179D01*
X22768Y264191D01*
X22750Y264216D01*
X22725Y264253D01*
X22688Y264296D01*
X22638Y264340D01*
X22576Y264377D01*
X22508Y264402D01*
X22428Y264414D01*
D02*
G37*
G36*
X16336Y298679D02*
X16305D01*
X16281Y298673D01*
X16219Y298667D01*
X16144Y298654D01*
X16064Y298623D01*
X15977Y298586D01*
X15891Y298537D01*
X15816Y298462D01*
X15810Y298450D01*
X15785Y298419D01*
X15773Y298394D01*
X15755Y298363D01*
X15736Y298326D01*
X15717Y298283D01*
X15705Y298233D01*
X15686Y298178D01*
X15668Y298110D01*
X15655Y298042D01*
X15643Y297961D01*
X15631Y297874D01*
X15624Y297781D01*
Y297676D01*
Y297670D01*
Y297658D01*
Y297633D01*
Y297596D01*
X15631Y297559D01*
X15637Y297515D01*
X15649Y297410D01*
X15674Y297299D01*
X15705Y297181D01*
X15755Y297070D01*
X15823Y296977D01*
X15829Y296964D01*
X15860Y296940D01*
X15903Y296909D01*
X15959Y296865D01*
X16033Y296822D01*
X16126Y296791D01*
X16231Y296766D01*
X16349Y296754D01*
X16361D01*
X16398Y296760D01*
X16460Y296766D01*
X16528Y296785D01*
X16609Y296810D01*
X16695Y296853D01*
X16782Y296909D01*
X16856Y296983D01*
X16862Y296995D01*
X16887Y297026D01*
X16918Y297082D01*
X16949Y297156D01*
X16968Y297206D01*
X16986Y297262D01*
X17005Y297323D01*
X17017Y297385D01*
X17030Y297460D01*
X17042Y297540D01*
X17048Y297627D01*
Y297720D01*
Y297726D01*
Y297744D01*
Y297769D01*
X17042Y297800D01*
Y297843D01*
X17036Y297893D01*
X17023Y298004D01*
X17005Y298122D01*
X16968Y298246D01*
X16924Y298363D01*
X16893Y298413D01*
X16862Y298456D01*
X16856Y298469D01*
X16825Y298493D01*
X16782Y298524D01*
X16726Y298568D01*
X16652Y298611D01*
X16559Y298642D01*
X16454Y298667D01*
X16336Y298679D01*
D02*
G37*
G36*
X20595D02*
X20019D01*
X19970Y298673D01*
X19914Y298667D01*
X19846Y298654D01*
X19784Y298642D01*
X19728Y298617D01*
X19679Y298586D01*
X19673Y298580D01*
X19660Y298568D01*
X19642Y298549D01*
X19623Y298518D01*
X19605Y298481D01*
X19586Y298431D01*
X19574Y298382D01*
X19568Y298326D01*
Y298320D01*
Y298301D01*
X19574Y298277D01*
X19580Y298239D01*
X19592Y298202D01*
X19617Y298159D01*
X19642Y298122D01*
X19679Y298085D01*
X19685Y298079D01*
X19697Y298072D01*
X19728Y298054D01*
X19772Y298035D01*
X19821Y298023D01*
X19889Y298004D01*
X19970Y297998D01*
X20069Y297992D01*
X20595D01*
Y298679D01*
D02*
G37*
G36*
X15873Y264296D02*
X15415D01*
Y263609D01*
X15891D01*
X15916Y263615D01*
X15953Y263622D01*
X16003Y263628D01*
X16064Y263640D01*
X16133Y263653D01*
X16139D01*
X16151Y263659D01*
X16170Y263665D01*
X16195Y263671D01*
X16250Y263702D01*
X16281Y263727D01*
X16306Y263758D01*
X16312Y263764D01*
X16318Y263776D01*
X16331Y263789D01*
X16343Y263813D01*
X16362Y263876D01*
X16374Y263913D01*
Y263956D01*
Y263962D01*
Y263981D01*
X16368Y264012D01*
X16362Y264049D01*
X16349Y264086D01*
X16331Y264129D01*
X16306Y264166D01*
X16269Y264204D01*
X16263Y264210D01*
X16250Y264216D01*
X16219Y264234D01*
X16182Y264253D01*
X16126Y264265D01*
X16058Y264284D01*
X15972Y264290D01*
X15873Y264296D01*
D02*
G37*
G36*
X33219Y246287D02*
X33182D01*
X33138Y246281D01*
X33089Y246268D01*
X33027Y246256D01*
X32965Y246231D01*
X32903Y246194D01*
X32847Y246150D01*
X32841Y246144D01*
X32829Y246126D01*
X32804Y246101D01*
X32779Y246058D01*
X32754Y246014D01*
X32730Y245965D01*
X32717Y245903D01*
X32711Y245841D01*
Y245835D01*
Y245810D01*
X32717Y245779D01*
X32730Y245736D01*
X32748Y245686D01*
X32773Y245637D01*
X32804Y245581D01*
X32854Y245532D01*
X32860Y245525D01*
X32878Y245513D01*
X32909Y245488D01*
X32953Y245463D01*
X33008Y245439D01*
X33070Y245414D01*
X33138Y245402D01*
X33219Y245395D01*
X33256D01*
X33299Y245402D01*
X33349Y245414D01*
X33404Y245426D01*
X33466Y245451D01*
X33528Y245488D01*
X33584Y245532D01*
X33590Y245538D01*
X33609Y245556D01*
X33634Y245581D01*
X33658Y245624D01*
X33683Y245668D01*
X33708Y245723D01*
X33726Y245779D01*
X33733Y245847D01*
Y245853D01*
Y245878D01*
X33726Y245909D01*
X33714Y245952D01*
X33695Y246002D01*
X33671Y246052D01*
X33640Y246107D01*
X33590Y246157D01*
X33584Y246163D01*
X33565Y246175D01*
X33535Y246200D01*
X33491Y246219D01*
X33442Y246243D01*
X33373Y246268D01*
X33305Y246281D01*
X33219Y246287D01*
D02*
G37*
G36*
X34673Y246237D02*
X34642D01*
X34611Y246231D01*
X34574Y246225D01*
X34531Y246212D01*
X34481Y246194D01*
X34438Y246169D01*
X34395Y246132D01*
X34389Y246126D01*
X34376Y246113D01*
X34364Y246089D01*
X34345Y246052D01*
X34321Y246008D01*
X34308Y245959D01*
X34296Y245903D01*
X34290Y245835D01*
Y245829D01*
Y245804D01*
X34296Y245779D01*
X34302Y245736D01*
X34314Y245692D01*
X34333Y245649D01*
X34358Y245606D01*
X34389Y245562D01*
X34395Y245556D01*
X34407Y245544D01*
X34432Y245532D01*
X34463Y245507D01*
X34500Y245488D01*
X34550Y245476D01*
X34599Y245463D01*
X34661Y245457D01*
X34692D01*
X34723Y245463D01*
X34760Y245470D01*
X34810Y245482D01*
X34853Y245507D01*
X34903Y245532D01*
X34946Y245569D01*
X34952Y245575D01*
X34964Y245587D01*
X34983Y245612D01*
X35002Y245643D01*
X35020Y245686D01*
X35039Y245736D01*
X35051Y245785D01*
X35057Y245847D01*
Y245853D01*
Y245878D01*
X35051Y245909D01*
X35045Y245946D01*
X35032Y245996D01*
X35008Y246039D01*
X34983Y246089D01*
X34946Y246132D01*
X34940Y246138D01*
X34927Y246150D01*
X34903Y246163D01*
X34872Y246181D01*
X34834Y246206D01*
X34785Y246219D01*
X34735Y246231D01*
X34673Y246237D01*
D02*
G37*
G36*
X-16174Y252857D02*
X-16199D01*
X-16230Y252851D01*
X-16261Y252845D01*
X-16304Y252832D01*
X-16341Y252814D01*
X-16385Y252789D01*
X-16428Y252758D01*
X-16434Y252752D01*
X-16446Y252739D01*
X-16465Y252714D01*
X-16490Y252683D01*
X-16515Y252634D01*
X-16539Y252585D01*
X-16564Y252516D01*
X-16583Y252442D01*
Y252430D01*
X-16589Y252399D01*
X-16601Y252349D01*
X-16614Y252275D01*
X-16620Y252182D01*
X-16632Y252064D01*
X-16638Y251928D01*
Y251767D01*
Y251761D01*
Y251736D01*
Y251706D01*
Y251656D01*
X-16632Y251606D01*
Y251538D01*
X-16626Y251402D01*
X-16608Y251247D01*
X-16589Y251099D01*
X-16577Y251031D01*
X-16558Y250963D01*
X-16539Y250907D01*
X-16521Y250857D01*
X-16515Y250845D01*
X-16496Y250820D01*
X-16471Y250783D01*
X-16434Y250740D01*
X-16385Y250696D01*
X-16323Y250659D01*
X-16255Y250635D01*
X-16174Y250622D01*
X-16162D01*
X-16137Y250628D01*
X-16094Y250635D01*
X-16044Y250653D01*
X-15989Y250678D01*
X-15933Y250721D01*
X-15877Y250783D01*
X-15834Y250864D01*
X-15827Y250876D01*
X-15821Y250888D01*
X-15815Y250913D01*
X-15809Y250938D01*
X-15803Y250969D01*
X-15790Y251012D01*
X-15784Y251062D01*
X-15772Y251117D01*
X-15759Y251179D01*
X-15753Y251254D01*
X-15747Y251328D01*
X-15741Y251421D01*
X-15735Y251514D01*
X-15729Y251619D01*
Y251736D01*
Y251743D01*
Y251767D01*
Y251798D01*
Y251842D01*
X-15735Y251891D01*
Y251953D01*
X-15741Y252089D01*
X-15753Y252238D01*
X-15778Y252386D01*
X-15790Y252454D01*
X-15803Y252516D01*
X-15821Y252572D01*
X-15840Y252622D01*
X-15846Y252634D01*
X-15865Y252659D01*
X-15889Y252696D01*
X-15927Y252739D01*
X-15976Y252783D01*
X-16032Y252820D01*
X-16100Y252845D01*
X-16174Y252857D01*
D02*
G37*
G36*
X-22333Y239823D02*
X-22382D01*
X-22432Y239817D01*
X-22494Y239805D01*
X-22562Y239792D01*
X-22636Y239774D01*
X-22704Y239743D01*
X-22766Y239700D01*
X-22772Y239693D01*
X-22791Y239675D01*
X-22816Y239650D01*
X-22840Y239613D01*
X-22865Y239563D01*
X-22890Y239508D01*
X-22908Y239446D01*
X-22915Y239378D01*
Y239371D01*
Y239347D01*
X-22908Y239310D01*
X-22896Y239260D01*
X-22877Y239211D01*
X-22853Y239155D01*
X-22822Y239099D01*
X-22772Y239050D01*
X-22766Y239043D01*
X-22747Y239031D01*
X-22710Y239006D01*
X-22667Y238981D01*
X-22611Y238963D01*
X-22537Y238938D01*
X-22450Y238926D01*
X-22357Y238919D01*
X-22314D01*
X-22264Y238926D01*
X-22203Y238938D01*
X-22135Y238957D01*
X-22060Y238981D01*
X-21992Y239012D01*
X-21930Y239062D01*
X-21924Y239068D01*
X-21905Y239087D01*
X-21881Y239118D01*
X-21850Y239155D01*
X-21819Y239204D01*
X-21794Y239260D01*
X-21776Y239322D01*
X-21769Y239396D01*
Y239402D01*
Y239427D01*
X-21776Y239464D01*
X-21788Y239501D01*
X-21806Y239551D01*
X-21831Y239607D01*
X-21862Y239656D01*
X-21912Y239706D01*
X-21918Y239712D01*
X-21937Y239724D01*
X-21974Y239743D01*
X-22017Y239761D01*
X-22079Y239786D01*
X-22147Y239805D01*
X-22234Y239817D01*
X-22333Y239823D01*
D02*
G37*
G36*
X-15952Y182368D02*
X-16020D01*
X-16051Y182362D01*
X-16088Y182355D01*
X-16125Y182343D01*
X-16168Y182325D01*
X-16206Y182300D01*
X-16243Y182263D01*
X-16249Y182256D01*
X-16255Y182244D01*
X-16274Y182213D01*
X-16292Y182176D01*
X-16305Y182120D01*
X-16323Y182052D01*
X-16329Y181965D01*
X-16335Y181866D01*
Y181408D01*
X-15648D01*
Y181848D01*
Y181854D01*
Y181860D01*
Y181885D01*
X-15655Y181910D01*
X-15661Y181947D01*
X-15667Y181996D01*
X-15679Y182058D01*
X-15692Y182126D01*
Y182133D01*
X-15698Y182145D01*
X-15704Y182164D01*
X-15710Y182188D01*
X-15741Y182244D01*
X-15766Y182275D01*
X-15797Y182300D01*
X-15803Y182306D01*
X-15815Y182312D01*
X-15828Y182325D01*
X-15853Y182337D01*
X-15914Y182355D01*
X-15952Y182368D01*
D02*
G37*
G36*
X-14992Y188669D02*
X-16063D01*
X-14992Y187753D01*
Y188669D01*
D02*
G37*
G36*
X2477Y189778D02*
X2427D01*
X2378Y189772D01*
X2316Y189760D01*
X2248Y189748D01*
X2173Y189723D01*
X2105Y189686D01*
X2043Y189642D01*
X2037Y189636D01*
X2019Y189618D01*
X1994Y189593D01*
X1963Y189556D01*
X1938Y189506D01*
X1913Y189450D01*
X1895Y189389D01*
X1889Y189320D01*
Y189314D01*
Y189289D01*
X1895Y189252D01*
X1907Y189203D01*
X1926Y189153D01*
X1951Y189098D01*
X1988Y189042D01*
X2037Y188986D01*
X2043Y188980D01*
X2062Y188968D01*
X2099Y188943D01*
X2142Y188924D01*
X2198Y188900D01*
X2272Y188875D01*
X2353Y188862D01*
X2452Y188856D01*
X2495D01*
X2545Y188862D01*
X2607Y188875D01*
X2675Y188887D01*
X2749Y188912D01*
X2817Y188949D01*
X2879Y188992D01*
X2885Y188999D01*
X2904Y189017D01*
X2929Y189048D01*
X2953Y189091D01*
X2984Y189141D01*
X3009Y189197D01*
X3028Y189265D01*
X3034Y189339D01*
Y189345D01*
Y189370D01*
X3028Y189407D01*
X3015Y189450D01*
X3003Y189494D01*
X2978Y189550D01*
X2941Y189599D01*
X2898Y189648D01*
X2891Y189655D01*
X2873Y189667D01*
X2836Y189692D01*
X2792Y189717D01*
X2730Y189735D01*
X2662Y189760D01*
X2576Y189772D01*
X2477Y189778D01*
D02*
G37*
G36*
X-7613Y183005D02*
X-7682D01*
X-7712Y182999D01*
X-7750Y182992D01*
X-7787Y182980D01*
X-7830Y182961D01*
X-7867Y182937D01*
X-7904Y182899D01*
X-7910Y182893D01*
X-7917Y182881D01*
X-7935Y182850D01*
X-7954Y182813D01*
X-7966Y182757D01*
X-7985Y182689D01*
X-7991Y182602D01*
X-7997Y182503D01*
Y182045D01*
X-7310D01*
Y182485D01*
Y182491D01*
Y182497D01*
Y182522D01*
X-7316Y182547D01*
X-7322Y182584D01*
X-7329Y182633D01*
X-7341Y182695D01*
X-7353Y182763D01*
Y182770D01*
X-7360Y182782D01*
X-7366Y182800D01*
X-7372Y182825D01*
X-7403Y182881D01*
X-7428Y182912D01*
X-7459Y182937D01*
X-7465Y182943D01*
X-7477Y182949D01*
X-7490Y182961D01*
X-7514Y182974D01*
X-7576Y182992D01*
X-7613Y183005D01*
D02*
G37*
G36*
X-24936Y182811D02*
X-25004D01*
X-25035Y182805D01*
X-25072Y182799D01*
X-25109Y182786D01*
X-25153Y182768D01*
X-25190Y182743D01*
X-25227Y182706D01*
X-25233Y182700D01*
X-25240Y182687D01*
X-25258Y182656D01*
X-25277Y182619D01*
X-25289Y182563D01*
X-25308Y182495D01*
X-25314Y182409D01*
X-25320Y182310D01*
Y181852D01*
X-24633D01*
Y182291D01*
Y182297D01*
Y182303D01*
Y182328D01*
X-24639Y182353D01*
X-24645Y182390D01*
X-24652Y182440D01*
X-24664Y182501D01*
X-24676Y182570D01*
Y182576D01*
X-24682Y182588D01*
X-24689Y182607D01*
X-24695Y182632D01*
X-24726Y182687D01*
X-24750Y182718D01*
X-24781Y182743D01*
X-24788Y182749D01*
X-24800Y182755D01*
X-24812Y182768D01*
X-24837Y182780D01*
X-24899Y182799D01*
X-24936Y182811D01*
D02*
G37*
G36*
X20595Y297348D02*
X20100D01*
X20056Y297342D01*
X20001Y297336D01*
X19889Y297311D01*
X19840Y297292D01*
X19796Y297268D01*
X19790Y297262D01*
X19778Y297249D01*
X19766Y297231D01*
X19747Y297206D01*
X19728Y297169D01*
X19710Y297125D01*
X19704Y297076D01*
X19697Y297020D01*
Y297014D01*
Y296995D01*
X19704Y296971D01*
X19710Y296933D01*
X19722Y296896D01*
X19741Y296859D01*
X19766Y296822D01*
X19796Y296791D01*
X19803Y296785D01*
X19815Y296779D01*
X19840Y296766D01*
X19877Y296748D01*
X19920Y296729D01*
X19976Y296717D01*
X20050Y296711D01*
X20131Y296704D01*
X20595D01*
Y297348D01*
D02*
G37*
G36*
X12387Y298679D02*
X12356D01*
X12331Y298673D01*
X12269Y298667D01*
X12195Y298654D01*
X12115Y298623D01*
X12028Y298586D01*
X11941Y298537D01*
X11867Y298462D01*
X11861Y298450D01*
X11836Y298419D01*
X11824Y298394D01*
X11805Y298363D01*
X11787Y298326D01*
X11768Y298283D01*
X11756Y298233D01*
X11737Y298178D01*
X11719Y298110D01*
X11706Y298042D01*
X11694Y297961D01*
X11681Y297874D01*
X11675Y297781D01*
Y297676D01*
Y297670D01*
Y297658D01*
Y297633D01*
Y297596D01*
X11681Y297559D01*
X11688Y297515D01*
X11700Y297410D01*
X11725Y297299D01*
X11756Y297181D01*
X11805Y297070D01*
X11873Y296977D01*
X11880Y296964D01*
X11910Y296940D01*
X11954Y296909D01*
X12009Y296865D01*
X12084Y296822D01*
X12177Y296791D01*
X12282Y296766D01*
X12399Y296754D01*
X12412D01*
X12449Y296760D01*
X12511Y296766D01*
X12579Y296785D01*
X12660Y296810D01*
X12746Y296853D01*
X12833Y296909D01*
X12907Y296983D01*
X12913Y296995D01*
X12938Y297026D01*
X12969Y297082D01*
X13000Y297156D01*
X13018Y297206D01*
X13037Y297262D01*
X13056Y297323D01*
X13068Y297385D01*
X13080Y297460D01*
X13093Y297540D01*
X13099Y297627D01*
Y297720D01*
Y297726D01*
Y297744D01*
Y297769D01*
X13093Y297800D01*
Y297843D01*
X13087Y297893D01*
X13074Y298004D01*
X13056Y298122D01*
X13018Y298246D01*
X12975Y298363D01*
X12944Y298413D01*
X12913Y298456D01*
X12907Y298469D01*
X12876Y298493D01*
X12833Y298524D01*
X12777Y298568D01*
X12703Y298611D01*
X12610Y298642D01*
X12505Y298667D01*
X12387Y298679D01*
D02*
G37*
G36*
X-74146Y237514D02*
X-74455D01*
X-74511Y237508D01*
X-74585D01*
X-74660Y237495D01*
X-74740Y237483D01*
X-74808Y237470D01*
X-74870Y237446D01*
X-74876Y237439D01*
X-74895Y237433D01*
X-74920Y237415D01*
X-74951Y237384D01*
X-74988Y237353D01*
X-75025Y237309D01*
X-75062Y237254D01*
X-75093Y237192D01*
X-75099Y237186D01*
X-75105Y237155D01*
X-75118Y237111D01*
X-75136Y237049D01*
X-75149Y236969D01*
X-75161Y236864D01*
X-75167Y236746D01*
X-75173Y236604D01*
Y236597D01*
Y236579D01*
Y236554D01*
Y236517D01*
X-75167Y236474D01*
Y236424D01*
X-75149Y236307D01*
X-75130Y236189D01*
X-75099Y236065D01*
X-75056Y235954D01*
X-75025Y235910D01*
X-74994Y235867D01*
X-74988Y235861D01*
X-74957Y235836D01*
X-74914Y235805D01*
X-74852Y235762D01*
X-74771Y235725D01*
X-74672Y235694D01*
X-74548Y235669D01*
X-74406Y235663D01*
X-74146D01*
Y237514D01*
D02*
G37*
G36*
X5417Y298821D02*
X5392D01*
X5362Y298815D01*
X5331Y298809D01*
X5287Y298797D01*
X5250Y298778D01*
X5207Y298753D01*
X5163Y298722D01*
X5157Y298716D01*
X5145Y298704D01*
X5126Y298679D01*
X5102Y298648D01*
X5077Y298599D01*
X5052Y298549D01*
X5027Y298481D01*
X5009Y298407D01*
Y298394D01*
X5002Y298363D01*
X4990Y298314D01*
X4978Y298239D01*
X4972Y298147D01*
X4959Y298029D01*
X4953Y297893D01*
Y297732D01*
Y297726D01*
Y297701D01*
Y297670D01*
Y297621D01*
X4959Y297571D01*
Y297503D01*
X4965Y297367D01*
X4984Y297212D01*
X5002Y297063D01*
X5015Y296995D01*
X5033Y296927D01*
X5052Y296871D01*
X5071Y296822D01*
X5077Y296810D01*
X5095Y296785D01*
X5120Y296748D01*
X5157Y296704D01*
X5207Y296661D01*
X5269Y296624D01*
X5337Y296599D01*
X5417Y296587D01*
X5429D01*
X5454Y296593D01*
X5498Y296599D01*
X5547Y296618D01*
X5603Y296642D01*
X5659Y296686D01*
X5714Y296748D01*
X5758Y296828D01*
X5764Y296841D01*
X5770Y296853D01*
X5776Y296878D01*
X5782Y296902D01*
X5789Y296933D01*
X5801Y296977D01*
X5807Y297026D01*
X5819Y297082D01*
X5832Y297144D01*
X5838Y297218D01*
X5844Y297292D01*
X5850Y297385D01*
X5857Y297478D01*
X5863Y297583D01*
Y297701D01*
Y297707D01*
Y297732D01*
Y297763D01*
Y297806D01*
X5857Y297856D01*
Y297918D01*
X5850Y298054D01*
X5838Y298202D01*
X5813Y298351D01*
X5801Y298419D01*
X5789Y298481D01*
X5770Y298537D01*
X5751Y298586D01*
X5745Y298599D01*
X5727Y298623D01*
X5702Y298660D01*
X5665Y298704D01*
X5615Y298747D01*
X5559Y298784D01*
X5491Y298809D01*
X5417Y298821D01*
D02*
G37*
%LPD*%
D24*
X37703Y143799D02*
G03*
X37703Y143799I-793J0D01*
G01*
X-66535Y240256D02*
Y243012D01*
X-62598Y238681D02*
X-59646D01*
Y244587D01*
X-62598D02*
X-59646D01*
X-73425Y238681D02*
X-70472D01*
X-73425D02*
Y244587D01*
X-70472D01*
X41831Y130905D02*
Y131496D01*
Y142323D02*
Y142913D01*
X48720Y130905D02*
Y131496D01*
Y142323D02*
Y142913D01*
X47244D02*
X48720D01*
X41831D02*
X43307D01*
X41831Y130905D02*
X43307D01*
X47244D02*
X48720D01*
X95177Y151378D02*
X97933D01*
X93602Y144488D02*
Y147441D01*
Y144488D02*
X99508D01*
Y147441D01*
X93602Y155315D02*
Y158268D01*
X99508D01*
Y155315D02*
Y158268D01*
X119390Y170768D02*
X123130D01*
Y174311D01*
X129035D01*
X87303Y185925D02*
X121358D01*
X85532Y170768D02*
X89272D01*
X79626Y174311D02*
X85532D01*
Y170768D02*
Y174311D01*
X103937Y210433D02*
Y213189D01*
X97047Y214764D02*
X100000D01*
X97047Y208858D02*
Y214764D01*
Y208858D02*
X100000D01*
X107874Y214764D02*
X110827D01*
Y208858D02*
Y214764D01*
X107874Y208858D02*
X110827D01*
X94095Y199902D02*
Y202658D01*
X87205Y204232D02*
X90158D01*
X87205Y198327D02*
Y204232D01*
Y198327D02*
X90158D01*
X98032Y204232D02*
X100984D01*
Y198327D02*
Y204232D01*
X98032Y198327D02*
X100984D01*
X-98228Y220669D02*
Y223425D01*
X-94291Y219094D02*
X-91339D01*
Y225000D01*
X-94291D02*
X-91339D01*
X-105118Y219094D02*
X-102165D01*
X-105118D02*
Y225000D01*
X-102165D01*
X-86811Y171850D02*
X-83071D01*
Y175394D01*
X-77165D01*
X-118898Y187008D02*
X-84842D01*
X-120669Y171850D02*
X-116929D01*
X-126575Y175394D02*
X-120669D01*
Y171850D02*
Y175394D01*
X-88189Y205709D02*
X-85433D01*
X-83858Y209646D02*
Y212598D01*
X-89764D02*
X-83858D01*
X-89764Y209646D02*
Y212598D01*
X-83858Y198819D02*
Y201772D01*
X-89764Y198819D02*
X-83858D01*
X-89764D02*
Y201772D01*
X-108661Y206201D02*
X-105905D01*
X-104331Y210138D02*
Y213090D01*
X-110236D02*
X-104331D01*
X-110236Y210138D02*
Y213090D01*
X-104331Y199311D02*
Y202264D01*
X-110236Y199311D02*
X-104331D01*
X-110236D02*
Y202264D01*
X-88484Y240748D02*
Y243504D01*
X-84547Y239173D02*
X-81595D01*
Y245079D01*
X-84547D02*
X-81595D01*
X-95374Y239173D02*
X-92421D01*
X-95374D02*
Y245079D01*
X-92421D01*
X-28445Y281988D02*
Y284744D01*
X-35335Y286319D02*
X-32382D01*
X-35335Y280413D02*
Y286319D01*
Y280413D02*
X-32382D01*
X-24508Y286319D02*
X-21555D01*
Y280413D02*
Y286319D01*
X-24508Y280413D02*
X-21555D01*
X81890Y321555D02*
Y374311D01*
X26772Y321555D02*
Y374311D01*
X-87402Y321555D02*
Y374311D01*
X-32283Y321555D02*
Y374311D01*
X26772D02*
X81890D01*
X-87402D02*
X-32283D01*
X85827Y315256D02*
Y321555D01*
X-91339Y315256D02*
Y321555D01*
X85827D01*
X-91339Y315256D02*
X85827D01*
X-2362Y283661D02*
Y286417D01*
X1575Y282087D02*
X4528D01*
Y287992D01*
X1575D02*
X4528D01*
X-9252Y282087D02*
X-6299D01*
X-9252D02*
Y287992D01*
X-6299D01*
X65551Y137500D02*
X68307D01*
X63976Y130610D02*
Y133563D01*
Y130610D02*
X69882D01*
Y133563D01*
X63976Y141437D02*
Y144390D01*
X69882D01*
Y141437D02*
Y144390D01*
X30118Y137992D02*
X32874D01*
X28543Y131102D02*
Y134055D01*
Y131102D02*
X34449D01*
Y134055D01*
X28543Y141929D02*
Y144882D01*
X34449D01*
Y141929D02*
Y144882D01*
X33957Y176279D02*
Y179035D01*
X37894Y174705D02*
X40846D01*
Y180610D01*
X37894D02*
X40846D01*
X27067Y174705D02*
X30020D01*
X27067D02*
Y180610D01*
X30020D01*
X-6890Y106890D02*
X-5118D01*
X-6890D02*
Y108661D01*
X4921Y106890D02*
X6693D01*
Y108661D01*
Y118701D02*
Y120472D01*
X4921D02*
X6693D01*
X-6890D02*
X-5118D01*
X-6890Y118701D02*
Y120472D01*
X-119488Y115551D02*
X-104921D01*
X-104035Y124902D02*
Y131693D01*
X-120374D02*
X-104035D01*
X-120374Y124902D02*
Y131693D01*
Y99410D02*
Y106693D01*
Y99410D02*
X-104035D01*
Y106693D01*
X104823Y116240D02*
X119390D01*
X120276Y125591D02*
Y132382D01*
X103937D02*
X120276D01*
X103937Y125591D02*
Y132382D01*
Y100098D02*
Y107382D01*
Y100098D02*
X120276D01*
Y107382D01*
X44193Y119587D02*
Y122343D01*
X48130Y118012D02*
X51083D01*
Y123917D01*
X48130D02*
X51083D01*
X37303Y118012D02*
X40256D01*
X37303D02*
Y123917D01*
X40256D01*
X13287Y137795D02*
X16043D01*
X17618Y141732D02*
Y144685D01*
X11713D02*
X17618D01*
X11713Y141732D02*
Y144685D01*
X17618Y130905D02*
Y133858D01*
X11713Y130905D02*
X17618D01*
X11713D02*
Y133858D01*
X21654Y138091D02*
X24409D01*
X20079Y131201D02*
Y134153D01*
Y131201D02*
X25984D01*
Y134153D01*
X20079Y142028D02*
Y144980D01*
X25984D01*
Y142028D02*
Y144980D01*
X-4232Y137894D02*
X-1476D01*
X98Y141831D02*
Y144783D01*
X-5807D02*
X98D01*
X-5807Y141831D02*
Y144783D01*
X98Y131004D02*
Y133957D01*
X-5807Y131004D02*
X98D01*
X-5807D02*
Y133957D01*
X4724Y137795D02*
X7480D01*
X3150Y130905D02*
Y133858D01*
Y130905D02*
X9055D01*
Y133858D01*
X3150Y141732D02*
Y144685D01*
X9055D01*
Y141732D02*
Y144685D01*
X17126Y211024D02*
Y234646D01*
X-6496Y211024D02*
X17126D01*
X-6496D02*
Y234646D01*
X17126D01*
X46260Y267913D02*
X72441D01*
X46260Y253937D02*
X72441D01*
Y267913D01*
X46260Y253937D02*
Y267913D01*
X-3740Y265256D02*
X-984D01*
X591Y269193D02*
Y272146D01*
X-5315D02*
X591D01*
X-5315Y269193D02*
Y272146D01*
X591Y258366D02*
Y261319D01*
X-5315Y258366D02*
X591D01*
X-5315D02*
Y261319D01*
X18996Y172539D02*
X21752D01*
X17421Y165650D02*
Y168602D01*
Y165650D02*
X23327D01*
Y168602D01*
X17421Y176476D02*
Y179429D01*
X23327D01*
Y176476D02*
Y179429D01*
X9744Y172146D02*
X12500D01*
X8169Y165256D02*
Y168209D01*
Y165256D02*
X14075D01*
Y168209D01*
X8169Y176083D02*
Y179035D01*
X14075D01*
Y176083D02*
Y179035D01*
X492Y172539D02*
X3248D01*
X-1083Y165650D02*
Y168602D01*
Y165650D02*
X4823D01*
Y168602D01*
X-1083Y176476D02*
Y179429D01*
X4823D01*
Y176476D02*
Y179429D01*
X-8366Y172539D02*
X-5610D01*
X-9941Y165650D02*
Y168602D01*
Y165650D02*
X-4035D01*
Y168602D01*
X-9941Y176476D02*
Y179429D01*
X-4035D01*
Y176476D02*
Y179429D01*
X-16831Y171949D02*
X-14075D01*
X-18406Y165059D02*
Y168012D01*
Y165059D02*
X-12500D01*
Y168012D01*
X-18406Y175886D02*
Y178839D01*
X-12500D01*
Y175886D02*
Y178839D01*
X-25492Y172146D02*
X-22736D01*
X-27067Y165256D02*
Y168209D01*
Y165256D02*
X-21161D01*
Y168209D01*
X-27067Y176083D02*
Y179035D01*
X-21161D01*
Y176083D02*
Y179035D01*
X-23917Y256594D02*
Y259350D01*
X-30807Y260925D02*
X-27854D01*
X-30807Y255020D02*
Y260925D01*
Y255020D02*
X-27854D01*
X-19980Y260925D02*
X-17028D01*
Y255020D02*
Y260925D01*
X-19980Y255020D02*
X-17028D01*
X19094Y255610D02*
Y258366D01*
X23031Y254035D02*
X25984D01*
Y259941D01*
X23031D02*
X25984D01*
X12205Y254035D02*
X15157D01*
X12205D02*
Y259941D01*
X15157D01*
X-21555Y234941D02*
X-18602D01*
Y240846D01*
X-21555D02*
X-18602D01*
X-32382Y234941D02*
X-29429D01*
X-32382D02*
Y240846D01*
X-29429D01*
X-25492Y236516D02*
Y239272D01*
X67028Y271260D02*
Y274016D01*
X60138Y275591D02*
X63090D01*
X60138Y269685D02*
Y275591D01*
Y269685D02*
X63090D01*
X70965Y275591D02*
X73917D01*
Y269685D02*
Y275591D01*
X70965Y269685D02*
X73917D01*
X21654Y195669D02*
X24606D01*
Y201575D01*
X21654D02*
X24606D01*
X10827Y195669D02*
X13780D01*
X10827D02*
Y201575D01*
X13780D01*
X17717Y197244D02*
Y200000D01*
X-10236Y245472D02*
Y248228D01*
X-6299Y243898D02*
X-3347D01*
Y249803D01*
X-6299D02*
X-3347D01*
X-17126Y243898D02*
X-14173D01*
X-17126D02*
Y249803D01*
X-14173D01*
X-25787Y219390D02*
Y222342D01*
Y219390D02*
X-19882D01*
Y222342D01*
X-25787Y230217D02*
Y233169D01*
X-19882D01*
Y230217D02*
Y233169D01*
X-24213Y226279D02*
X-21457D01*
X31299Y235138D02*
X34055D01*
X29724Y228248D02*
Y231201D01*
Y228248D02*
X35630D01*
Y231201D01*
X29724Y239075D02*
Y242028D01*
X35630D01*
Y239075D02*
Y242028D01*
X40650Y214469D02*
Y217421D01*
Y214469D02*
X46555D01*
Y217421D01*
X40650Y225295D02*
Y228248D01*
X46555D01*
Y225295D02*
Y228248D01*
X42224Y221358D02*
X44980D01*
X3937Y94488D02*
X125984D01*
X3937Y47244D02*
Y94488D01*
Y47244D02*
X125984D01*
X-125984D02*
X-3937D01*
Y94488D01*
X-125984D02*
X-3937D01*
X34055Y167323D02*
Y170079D01*
X27165Y171653D02*
X30118D01*
X27165Y165748D02*
Y171653D01*
Y165748D02*
X30118D01*
X37992Y171653D02*
X40945D01*
Y165748D02*
Y171653D01*
X37992Y165748D02*
X40945D01*
D30*
X95893Y306684D02*
G03*
X95885Y306690I-110J-163D01*
G01*
X95894Y306684D02*
G03*
X95885Y306690I-111J-162D01*
G01*
X88685Y311078D02*
G03*
X88677Y311083I-103J-168D01*
G01*
X102884Y301953D02*
G03*
X102876Y301958I-118J-158D01*
G01*
X102884Y301953D02*
G03*
X102875Y301959I-118J-158D01*
G01*
X81269Y315128D02*
G03*
X81267Y315129I-87J-177D01*
G01*
X81276Y315124D02*
G03*
X81269Y315128I-94J-173D01*
G01*
X81276Y315124D02*
G03*
X81268Y315128I-94J-173D01*
G01*
X73682Y318813D02*
G03*
X73675Y318817I-85J-178D01*
G01*
X73684Y318812D02*
G03*
X73682Y318813I-87J-177D01*
G01*
X73683Y318813D02*
G03*
X73675Y318817I-86J-177D01*
G01*
X88685Y311078D02*
G03*
X88677Y311083I-103J-168D01*
G01*
X122397Y285840D02*
G03*
X122390Y285847I-139J-139D01*
G01*
X128366Y279872D02*
G03*
X128360Y279878I-145J-133D01*
G01*
X128367Y279870D02*
G03*
X128366Y279872I-146J-132D01*
G01*
X122391Y285846D02*
G03*
X122390Y285847I-133J-145D01*
G01*
X122397Y285840D02*
G03*
X122391Y285846I-139J-139D01*
G01*
X134045Y273624D02*
G03*
X134038Y273631I-152J-125D01*
G01*
X128366Y279871D02*
G03*
X128360Y279878I-146J-132D01*
G01*
X109642Y296894D02*
G03*
X109634Y296899I-125J-152D01*
G01*
X109642Y296894D02*
G03*
X109634Y296899I-125J-152D01*
G01*
X116150Y291519D02*
G03*
X116144Y291525I-132J-146D01*
G01*
X116152Y291518D02*
G03*
X116150Y291519I-133J-145D01*
G01*
X116151Y291519D02*
G03*
X116144Y291525I-132J-146D01*
G01*
X25247Y333036D02*
G03*
X25236Y333038I-34J-194D01*
G01*
X25246Y333037D02*
G03*
X25236Y333038I-33J-194D01*
G01*
X16864Y334039D02*
G03*
X16855Y334040I-23J-196D01*
G01*
X33570Y331637D02*
G03*
X33561Y331638I-42J-192D01*
G01*
X33571Y331637D02*
G03*
X33570Y331637I-42J-192D01*
G01*
X33571Y331637D02*
G03*
X33560Y331639I-42J-192D01*
G01*
X8444Y334641D02*
G03*
X8433Y334642I-14J-196D01*
G01*
X8444Y334641D02*
G03*
X8434Y334642I-14J-196D01*
G01*
X6Y334842D02*
G03*
X-5Y334843I-6J-197D01*
G01*
X16864Y334039D02*
G03*
X16855Y334040I-23J-196D01*
G01*
X58013Y325086D02*
G03*
X58005Y325089I-68J-185D01*
G01*
X58015Y325086D02*
G03*
X58013Y325086I-69J-184D01*
G01*
X65923Y322136D02*
G03*
X65914Y322140I-78J-181D01*
G01*
X58014Y325086D02*
G03*
X58005Y325089I-69J-184D01*
G01*
X65915Y322139D02*
G03*
X65914Y322140I-69J-184D01*
G01*
X65923Y322136D02*
G03*
X65915Y322139I-78J-181D01*
G01*
X41819Y329842D02*
G03*
X41810Y329844I-51J-190D01*
G01*
X41820Y329842D02*
G03*
X41819Y329842I-51J-190D01*
G01*
X41819Y329842D02*
G03*
X41810Y329844I-51J-190D01*
G01*
X49973Y327657D02*
G03*
X49964Y327660I-60J-188D01*
G01*
X49964Y327659D02*
G03*
X49964Y327660I-51J-190D01*
G01*
X49973Y327657D02*
G03*
X49964Y327659I-60J-188D01*
G01*
X172364Y199291D02*
G03*
X172362Y199300I-192J-42D01*
G01*
X172364Y199290D02*
G03*
X172364Y199291I-192J-42D01*
G01*
X170179Y207445D02*
G03*
X170176Y207454I-190J-51D01*
G01*
X170179Y207444D02*
G03*
X170179Y207445I-190J-51D01*
G01*
X172362Y199299D02*
G03*
X172362Y199300I-190J-51D01*
G01*
X172364Y199291D02*
G03*
X172362Y199299I-192J-42D01*
G01*
X174158Y191041D02*
G03*
X174156Y191051I-194J-32D01*
G01*
X174158Y191042D02*
G03*
X174156Y191051I-194J-33D01*
G01*
X167609Y215485D02*
G03*
X167606Y215494I-188J-60D01*
G01*
X167606Y215494D02*
G03*
X167606Y215495I-185J-68D01*
G01*
X167609Y215485D02*
G03*
X167606Y215494I-188J-60D01*
G01*
X164659Y223395D02*
G03*
X164656Y223404I-184J-69D01*
G01*
X164659Y223394D02*
G03*
X164659Y223395I-185J-68D01*
G01*
X170179Y207445D02*
G03*
X170176Y207454I-190J-51D01*
G01*
X177162Y165914D02*
G03*
X177161Y165924I-197J-3D01*
G01*
X177162Y165910D02*
G03*
X177162Y165914I-197J0D01*
G01*
X176560Y174335D02*
G03*
X176559Y174344I-196J-14D01*
G01*
X177162Y165915D02*
G03*
X177161Y165924I-197J-5D01*
G01*
X177362Y157480D02*
G03*
X177362Y157485I-197J0D01*
G01*
X177362Y157480D02*
G03*
X177362Y157486I-197J0D01*
G01*
X177165Y157283D02*
G03*
X177362Y157480I0J197D01*
G01*
X177165Y157283D02*
G03*
X177362Y157480I0J197D01*
G01*
X175558Y182717D02*
G03*
X175556Y182726I-196J-23D01*
G01*
X176560Y174335D02*
G03*
X176559Y174344I-196J-14D01*
G01*
X175558Y182717D02*
G03*
X175556Y182727I-196J-23D01*
G01*
X149209Y253366D02*
G03*
X149203Y253375I-168J-103D01*
G01*
X149209Y253366D02*
G03*
X149204Y253374I-168J-103D01*
G01*
X144478Y260356D02*
G03*
X144472Y260364I-164J-109D01*
G01*
X153603Y246157D02*
G03*
X153598Y246165I-173J-94D01*
G01*
X153603Y246157D02*
G03*
X153598Y246165I-173J-94D01*
G01*
X139419Y267115D02*
G03*
X139413Y267122I-158J-118D01*
G01*
X139419Y267115D02*
G03*
X139413Y267122I-158J-118D01*
G01*
X134039Y273631D02*
G03*
X134038Y273632I-146J-132D01*
G01*
X134045Y273624D02*
G03*
X134039Y273631I-152J-125D01*
G01*
X144478Y260357D02*
G03*
X144472Y260364I-163J-110D01*
G01*
X161333Y231163D02*
G03*
X161332Y231164I-178J-85D01*
G01*
X161336Y231155D02*
G03*
X161333Y231163I-181J-78D01*
G01*
X161336Y231155D02*
G03*
X161332Y231164I-181J-78D01*
G01*
X157648Y238749D02*
G03*
X157644Y238757I-177J-87D01*
G01*
X157648Y238747D02*
G03*
X157648Y238749I-178J-85D01*
G01*
X164659Y223395D02*
G03*
X164656Y223404I-184J-69D01*
G01*
X157648Y238748D02*
G03*
X157644Y238757I-177J-86D01*
G01*
X124016Y-197D02*
G03*
X124213Y0I0J197D01*
G01*
X124016Y-197D02*
G03*
X124213Y0I0J197D01*
G01*
X5Y334843D02*
G03*
X-6Y334842I-5J-197D01*
G01*
X-8433Y334642D02*
G03*
X-8444Y334641I3J-197D01*
G01*
X-8435Y334642D02*
G03*
X-8444Y334641I5J-197D01*
G01*
X-16855Y334040D02*
G03*
X-16864Y334039I14J-196D01*
G01*
X-16855Y334040D02*
G03*
X-16864Y334039I14J-196D01*
G01*
X-25237Y333038D02*
G03*
X-25246Y333037I23J-196D01*
G01*
X-25237Y333038D02*
G03*
X-25247Y333036I23J-196D01*
G01*
X-33560Y331639D02*
G03*
X-33571Y331637I32J-194D01*
G01*
X-33562Y331638D02*
G03*
X-33571Y331637I33J-194D01*
G01*
X-41810Y329844D02*
G03*
X-41819Y329842I42J-192D01*
G01*
X-41819Y329842D02*
G03*
X-41820Y329842I51J-190D01*
G01*
X-41810Y329844D02*
G03*
X-41819Y329842I42J-192D01*
G01*
X-49965Y327659D02*
G03*
X-49973Y327657I51J-190D01*
G01*
X-49964Y327660D02*
G03*
X-49965Y327659I51J-190D01*
G01*
X-49964Y327660D02*
G03*
X-49973Y327657I51J-190D01*
G01*
X-58005Y325089D02*
G03*
X-58014Y325086I60J-188D01*
G01*
X-58013Y325086D02*
G03*
X-58015Y325086I68J-185D01*
G01*
X-58005Y325089D02*
G03*
X-58013Y325086I60J-188D01*
G01*
X-65915Y322139D02*
G03*
X-65923Y322136I69J-184D01*
G01*
X-65914Y322140D02*
G03*
X-65915Y322139I68J-185D01*
G01*
X-65915Y322139D02*
G03*
X-65923Y322136I69J-184D01*
G01*
X-73675Y318817D02*
G03*
X-73683Y318813I78J-181D01*
G01*
X-73682Y318813D02*
G03*
X-73684Y318812I85J-178D01*
G01*
X-73675Y318817D02*
G03*
X-73682Y318813I78J-181D01*
G01*
X-81269Y315128D02*
G03*
X-81276Y315124I87J-177D01*
G01*
X-81267Y315129D02*
G03*
X-81269Y315128I85J-178D01*
G01*
X-81268Y315128D02*
G03*
X-81276Y315124I86J-177D01*
G01*
X-88677Y311083D02*
G03*
X-88685Y311078I94J-173D01*
G01*
X-88677Y311083D02*
G03*
X-88685Y311078I94J-173D01*
G01*
X-95885Y306689D02*
G03*
X-95893Y306684I103J-168D01*
G01*
X-95885Y306689D02*
G03*
X-95894Y306684I103J-168D01*
G01*
X-102875Y301959D02*
G03*
X-102884Y301953I109J-164D01*
G01*
X-102876Y301958D02*
G03*
X-102884Y301953I110J-163D01*
G01*
X-109634Y296899D02*
G03*
X-109642Y296894I118J-158D01*
G01*
X-109634Y296899D02*
G03*
X-109642Y296894I118J-158D01*
G01*
X-116144Y291525D02*
G03*
X-116151Y291519I125J-152D01*
G01*
X-116150Y291519D02*
G03*
X-116152Y291518I132J-146D01*
G01*
X-116144Y291525D02*
G03*
X-116150Y291519I125J-152D01*
G01*
X-122391Y285846D02*
G03*
X-122397Y285840I133J-145D01*
G01*
X-122390Y285847D02*
G03*
X-122391Y285846I132J-146D01*
G01*
X-122391Y285847D02*
G03*
X-122397Y285840I132J-146D01*
G01*
X-128360Y279878D02*
G03*
X-128366Y279871I139J-139D01*
G01*
X-128366Y279872D02*
G03*
X-128367Y279870I145J-133D01*
G01*
X-128360Y279878D02*
G03*
X-128366Y279872I139J-139D01*
G01*
X-134039Y273631D02*
G03*
X-134045Y273624I146J-132D01*
G01*
X-134038Y273632D02*
G03*
X-134039Y273631I145J-133D01*
G01*
X-134038Y273631D02*
G03*
X-134045Y273624I146J-132D01*
G01*
X-139413Y267122D02*
G03*
X-139419Y267115I152J-125D01*
G01*
X-139413Y267122D02*
G03*
X-139419Y267115I152J-125D01*
G01*
X-144472Y260364D02*
G03*
X-144478Y260357I158J-118D01*
G01*
X-144472Y260364D02*
G03*
X-144478Y260356I158J-118D01*
G01*
X-149203Y253375D02*
G03*
X-149209Y253366I162J-111D01*
G01*
X-149204Y253374D02*
G03*
X-149209Y253366I163J-110D01*
G01*
X-153598Y246165D02*
G03*
X-153603Y246157I168J-103D01*
G01*
X-153598Y246165D02*
G03*
X-153603Y246157I168J-103D01*
G01*
X-124213Y-0D02*
G03*
X-124016Y-197I197J0D01*
G01*
X-124213Y-0D02*
G03*
X-124016Y-197I197J0D01*
G01*
X-157644Y238756D02*
G03*
X-157648Y238748I173J-94D01*
G01*
X-157648Y238749D02*
G03*
X-157649Y238747I177J-87D01*
G01*
X-157644Y238756D02*
G03*
X-157648Y238749I173J-94D01*
G01*
X-161333Y231163D02*
G03*
X-161336Y231155I178J-85D01*
G01*
X-161332Y231164D02*
G03*
X-161333Y231163I177J-87D01*
G01*
X-161332Y231164D02*
G03*
X-161336Y231155I177J-86D01*
G01*
X-164656Y223404D02*
G03*
X-164659Y223395I181J-78D01*
G01*
X-164659Y223395D02*
G03*
X-164659Y223394I184J-69D01*
G01*
X-164656Y223404D02*
G03*
X-164659Y223395I181J-78D01*
G01*
X-167606Y215494D02*
G03*
X-167609Y215485I185J-68D01*
G01*
X-167606Y215495D02*
G03*
X-167606Y215494I184J-69D01*
G01*
X-167606Y215494D02*
G03*
X-167609Y215485I184J-69D01*
G01*
X-170177Y207453D02*
G03*
X-170179Y207445I188J-60D01*
G01*
X-170179Y207445D02*
G03*
X-170179Y207444I190J-51D01*
G01*
X-170177Y207453D02*
G03*
X-170179Y207445I188J-60D01*
G01*
X-172362Y199299D02*
G03*
X-172364Y199291I190J-51D01*
G01*
X-172362Y199300D02*
G03*
X-172362Y199299I190J-51D01*
G01*
X-172364Y199291D02*
G03*
X-172364Y199290I192J-42D01*
G01*
X-172362Y199300D02*
G03*
X-172364Y199291I190J-51D01*
G01*
X-174156Y191051D02*
G03*
X-174158Y191042I192J-42D01*
G01*
X-174156Y191051D02*
G03*
X-174158Y191041I192J-42D01*
G01*
X-175556Y182727D02*
G03*
X-175558Y182717I194J-34D01*
G01*
X-175556Y182726D02*
G03*
X-175558Y182717I194J-33D01*
G01*
X-176559Y174344D02*
G03*
X-176560Y174335I196J-23D01*
G01*
X-176559Y174344D02*
G03*
X-176560Y174335I196J-23D01*
G01*
X-177161Y165924D02*
G03*
X-177162Y165915I196J-14D01*
G01*
X-177161Y165924D02*
G03*
X-177162Y165914I196J-14D01*
G01*
X-177362Y157485D02*
G03*
X-177165Y157283I197J-5D01*
G01*
X-177362Y157486D02*
G03*
X-177165Y157283I197J-6D01*
G01*
X88685Y311078D02*
X95885Y306690D01*
X102884Y301953D02*
X109634Y296899D01*
X102875Y301959D02*
X102876Y301958D01*
X95894Y306684D02*
X102875Y301959D01*
X95893Y306684D02*
X95894Y306684D01*
X81268Y315128D02*
X81269Y315128D01*
X81267Y315129D02*
X81268Y315128D01*
X73684Y318812D02*
X81267Y315129D01*
X73683Y318813D02*
X73684Y318812D01*
X73682Y318813D02*
X73683Y318813D01*
X81276Y315124D02*
X88677Y311083D01*
X122397Y285840D02*
X128360Y279878D01*
X122390Y285847D02*
X122391Y285846D01*
X122390Y285847D02*
X122390Y285847D01*
X116152Y291518D02*
X122390Y285847D01*
X116151Y291519D02*
X116152Y291518D01*
X116150Y291519D02*
X116151Y291519D01*
X128366Y279872D02*
X128366Y279871D01*
X128367Y279870D01*
X134038Y273632D01*
X134038Y273631D01*
X134039Y273631D01*
X109642Y296894D02*
X116144Y291525D01*
X16864Y334039D02*
X25236Y333038D01*
X41810Y329844D02*
X41810Y329844D01*
X41810Y329844D02*
X41810Y329844D01*
X33571Y331637D02*
X41810Y329844D01*
X33571Y331637D02*
X33571Y331637D01*
X33570Y331637D02*
X33571Y331637D01*
X33560Y331639D02*
X33561Y331638D01*
X25247Y333036D02*
X33560Y331639D01*
X25246Y333037D02*
X25247Y333036D01*
X8433Y334642D02*
X8434Y334642D01*
X6Y334842D02*
X8433Y334642D01*
X5Y334843D02*
X6Y334842D01*
X8444Y334641D02*
X16855Y334040D01*
X65914Y322140D02*
X65915Y322139D01*
X65914Y322140D02*
X65914Y322140D01*
X58015Y325086D02*
X65914Y322140D01*
X58014Y325086D02*
X58015Y325086D01*
X58013Y325086D02*
X58014Y325086D01*
X49973Y327657D02*
X58005Y325089D01*
X65923Y322136D02*
X73675Y318817D01*
X49964Y327660D02*
X49964Y327659D01*
X49964Y327660D02*
X49964Y327660D01*
X41820Y329842D02*
X49964Y327660D01*
X41819Y329842D02*
X41820Y329842D01*
X41819Y329842D02*
X41819Y329842D01*
X172364Y199291D02*
X172364Y199291D01*
X172364Y199290D01*
X174156Y191051D01*
X174156Y191051D01*
X174156Y191051D01*
X170179Y207445D02*
X170179Y207445D01*
X170179Y207444D01*
X172362Y199300D01*
X172362Y199300D01*
X172362Y199299D01*
X174158Y191042D02*
X174158Y191041D01*
X175556Y182727D01*
X175556Y182726D01*
X164659Y223395D02*
X164659Y223395D01*
X164659Y223394D01*
X167606Y215495D01*
X167606Y215494D01*
X167606Y215494D01*
X167609Y215485D02*
X170176Y207454D01*
X177162Y165915D02*
X177162Y165914D01*
X177362Y157486D01*
X177362Y157485D01*
X176560Y174335D02*
X177161Y165924D01*
X175558Y182717D02*
X176559Y174344D01*
X124213Y157283D02*
X177165Y157283D01*
X144478Y260357D02*
X144478Y260356D01*
X149203Y253375D01*
X149204Y253374D01*
X149209Y253366D02*
X153598Y246165D01*
X134045Y273624D02*
X139413Y267122D01*
X139419Y267115D02*
X144472Y260364D01*
X157648Y238749D02*
X157648Y238748D01*
X157648Y238747D01*
X161332Y231164D01*
X161332Y231164D01*
X161333Y231163D01*
X161336Y231155D02*
X164656Y223404D01*
X153603Y246157D02*
X157644Y238757D01*
X124213Y0D02*
Y157283D01*
X-6Y334842D02*
X-5Y334843D01*
X-8433Y334642D02*
X-6Y334842D01*
X-8435Y334642D02*
X-8433Y334642D01*
X-16855Y334040D02*
X-8444Y334641D01*
X-25237Y333038D02*
X-16864Y334039D01*
X-25247Y333036D02*
X-25246Y333037D01*
X-33560Y331639D02*
X-25247Y333036D01*
X-33562Y331638D02*
X-33560Y331639D01*
X-41810Y329844D02*
X-33571Y331637D01*
X-41819Y329842D02*
X-41819Y329842D01*
X-41820Y329842D02*
X-41819Y329842D01*
X-49964Y327660D02*
X-41820Y329842D01*
X-49964Y327660D02*
X-49964Y327660D01*
X-49965Y327659D02*
X-49964Y327660D01*
X-58005Y325089D02*
X-49973Y327657D01*
X-58014Y325086D02*
X-58013Y325086D01*
X-58015Y325086D02*
X-58014Y325086D01*
X-65914Y322140D02*
X-58015Y325086D01*
X-65915Y322139D02*
X-65914Y322140D01*
X-65915Y322139D02*
X-65915Y322139D01*
X-73675Y318817D02*
X-65923Y322136D01*
X-73683Y318813D02*
X-73682Y318813D01*
X-73684Y318812D02*
X-73683Y318813D01*
X-81267Y315129D02*
X-73684Y318812D01*
X-81268Y315128D02*
X-81267Y315129D01*
X-81269Y315128D02*
X-81268Y315128D01*
X-88677Y311083D02*
X-81276Y315124D01*
X-95885Y306689D02*
X-88685Y311078D01*
X-95894Y306684D02*
X-95893Y306684D01*
X-102875Y301959D02*
X-95894Y306684D01*
X-102876Y301958D02*
X-102875Y301959D01*
X-109634Y296899D02*
X-102884Y301953D01*
X-116144Y291525D02*
X-109642Y296894D01*
X-116151Y291519D02*
X-116150Y291519D01*
X-116152Y291518D02*
X-116151Y291519D01*
X-122390Y285847D02*
X-116152Y291518D01*
X-122391Y285847D02*
X-122390Y285847D01*
X-122391Y285846D02*
X-122391Y285847D01*
X-128360Y279878D02*
X-122397Y285840D01*
X-128366Y279871D02*
X-128366Y279872D01*
X-128367Y279870D02*
X-128366Y279871D01*
X-134038Y273632D02*
X-128367Y279870D01*
X-134038Y273631D02*
X-134038Y273632D01*
X-134039Y273631D02*
X-134038Y273631D01*
X-139413Y267122D02*
X-134045Y273624D01*
X-144472Y260364D02*
X-139419Y267115D01*
X-144478Y260356D02*
X-144478Y260357D01*
X-149203Y253375D02*
X-144478Y260356D01*
X-149204Y253374D02*
X-149203Y253375D01*
X-153598Y246165D02*
X-149209Y253366D01*
X-124016Y-197D02*
X124016Y-197D01*
X-124213Y-0D02*
Y157283D01*
X-157644Y238756D02*
X-153603Y246157D01*
X-157648Y238748D02*
X-157648Y238749D01*
X-157649Y238747D02*
X-157648Y238748D01*
X-161332Y231164D02*
X-157649Y238747D01*
X-161332Y231164D02*
X-161332Y231164D01*
X-161333Y231163D02*
X-161332Y231164D01*
X-177165Y157283D02*
X-124213Y157283D01*
X-164656Y223404D02*
X-161336Y231155D01*
X-164659Y223395D02*
X-164659Y223395D01*
X-164659Y223394D02*
X-164659Y223395D01*
X-167606Y215495D02*
X-164659Y223394D01*
X-167606Y215494D02*
X-167606Y215495D01*
X-167606Y215494D02*
X-167606Y215494D01*
X-170177Y207453D02*
X-167609Y215485D01*
X-170179Y207445D02*
X-170179Y207445D01*
X-170179Y207444D02*
X-170179Y207445D01*
X-172362Y199300D02*
X-170179Y207444D01*
X-172362Y199300D02*
X-172362Y199300D01*
X-172362Y199299D02*
X-172362Y199300D01*
X-172364Y199291D02*
X-172364Y199291D01*
X-172364Y199290D02*
X-172364Y199291D01*
X-174156Y191051D02*
X-172364Y199290D01*
X-174156Y191051D02*
X-174156Y191051D01*
X-174156Y191051D02*
X-174156Y191051D01*
X-174158Y191041D02*
X-174158Y191042D01*
X-175556Y182727D02*
X-174158Y191041D01*
X-175556Y182726D02*
X-175556Y182727D01*
X-176559Y174344D02*
X-175558Y182717D01*
X-177161Y165924D02*
X-176560Y174335D01*
X-177162Y165914D02*
X-177162Y165915D01*
X-177362Y157486D02*
X-177162Y165914D01*
X-177362Y157485D02*
X-177362Y157486D01*
D31*
X41810Y329844D02*
D03*
X174156Y191051D02*
D03*
X-174156Y191051D02*
D03*
D38*
X120965Y168504D02*
G03*
X120965Y168504I-492J0D01*
G01*
X-85236Y169587D02*
G03*
X-85236Y169587I-492J0D01*
G01*
X-8957Y119882D02*
G03*
X-8957Y119882I-492J0D01*
G01*
D39*
X-95571Y269587D02*
G03*
X-95571Y269587I-623J0D01*
G01*
X-14393Y242913D02*
G03*
X-14393Y242913I-1060J0D01*
G01*
X-72832Y247942D02*
Y253940D01*
X-69833D01*
X-68834Y252940D01*
Y250941D01*
X-69833Y249941D01*
X-72832D01*
X-70833D02*
X-68834Y247942D01*
X-62836D02*
X-66834D01*
X-62836Y251940D01*
Y252940D01*
X-63835Y253940D01*
X-65834D01*
X-66834Y252940D01*
X-60836D02*
X-59837Y253940D01*
X-57837D01*
X-56837Y252940D01*
Y248941D01*
X-57837Y247942D01*
X-59837D01*
X-60836Y248941D01*
Y252940D01*
X36053Y154514D02*
Y149515D01*
X37053Y148516D01*
X39052D01*
X40052Y149515D01*
Y154514D01*
X46050Y148516D02*
X42051D01*
X46050Y152515D01*
Y153514D01*
X45050Y154514D01*
X43051D01*
X42051Y153514D01*
X-9448Y132529D02*
Y127531D01*
X-8449Y126531D01*
X-6449D01*
X-5450Y127531D01*
Y132529D01*
X-3450Y126531D02*
X-1451D01*
X-2451D01*
Y132529D01*
X-3450Y131529D01*
X-8685Y291428D02*
Y297426D01*
X-5686D01*
X-4686Y296427D01*
Y294427D01*
X-5686Y293428D01*
X-8685D01*
X-6686D02*
X-4686Y291428D01*
X-2687D02*
X-688D01*
X-1687D01*
Y297426D01*
X-2687Y296427D01*
X6310Y291428D02*
X2311D01*
X6310Y295427D01*
Y296427D01*
X5310Y297426D01*
X3311D01*
X2311Y296427D01*
X-5202Y148226D02*
Y154224D01*
X-2203D01*
X-1203Y153224D01*
Y151225D01*
X-2203Y150225D01*
X-5202D01*
X-3202D02*
X-1203Y148226D01*
X797Y149226D02*
X1796Y148226D01*
X3796D01*
X4795Y149226D01*
Y153224D01*
X3796Y154224D01*
X1796D01*
X797Y153224D01*
Y152225D01*
X1796Y151225D01*
X4795D01*
X12287Y148045D02*
Y154043D01*
X15286D01*
X16285Y153043D01*
Y151044D01*
X15286Y150044D01*
X12287D01*
X14286D02*
X16285Y148045D01*
X18285Y153043D02*
X19284Y154043D01*
X21284D01*
X22283Y153043D01*
Y152044D01*
X21284Y151044D01*
X22283Y150044D01*
Y149045D01*
X21284Y148045D01*
X19284D01*
X18285Y149045D01*
Y150044D01*
X19284Y151044D01*
X18285Y152044D01*
Y153043D01*
X19284Y151044D02*
X21284D01*
X20659Y148350D02*
Y154348D01*
X23658D01*
X24658Y153348D01*
Y151349D01*
X23658Y150349D01*
X20659D01*
X22658D02*
X24658Y148350D01*
X26657Y154348D02*
X30656D01*
Y153348D01*
X26657Y149349D01*
Y148350D01*
X37866Y127305D02*
Y133304D01*
X40865D01*
X41865Y132304D01*
Y130305D01*
X40865Y129305D01*
X37866D01*
X39865D02*
X41865Y127305D01*
X47863Y133304D02*
X45864Y132304D01*
X43864Y130305D01*
Y128305D01*
X44864Y127305D01*
X46863D01*
X47863Y128305D01*
Y129305D01*
X46863Y130305D01*
X43864D01*
X104500Y135732D02*
Y141730D01*
X107499D01*
X108499Y140731D01*
Y138731D01*
X107499Y137732D01*
X104500D01*
X106499D02*
X108499Y135732D01*
X114497Y141730D02*
X110498D01*
Y138731D01*
X112497Y139731D01*
X113497D01*
X114497Y138731D01*
Y136732D01*
X113497Y135732D01*
X111498D01*
X110498Y136732D01*
X-119791Y135126D02*
Y141124D01*
X-116791D01*
X-115792Y140124D01*
Y138125D01*
X-116791Y137125D01*
X-119791D01*
X-117791D02*
X-115792Y135126D01*
X-110793D02*
Y141124D01*
X-113793Y138125D01*
X-109794D01*
X43996Y165059D02*
Y171057D01*
X46995D01*
X47995Y170057D01*
Y168058D01*
X46995Y167058D01*
X43996D01*
X45995D02*
X47995Y165059D01*
X49994Y170057D02*
X50994Y171057D01*
X52993D01*
X53993Y170057D01*
Y169058D01*
X52993Y168058D01*
X51994D01*
X52993D01*
X53993Y167058D01*
Y166059D01*
X52993Y165059D01*
X50994D01*
X49994Y166059D01*
X87772Y208630D02*
Y214628D01*
X90771D01*
X91770Y213628D01*
Y211629D01*
X90771Y210629D01*
X87772D01*
X89771D02*
X91770Y208630D01*
X97768D02*
X93770D01*
X97768Y212629D01*
Y213628D01*
X96769Y214628D01*
X94769D01*
X93770Y213628D01*
X99768Y207630D02*
X103767D01*
X109765Y208630D02*
X105766D01*
X109765Y212629D01*
Y213628D01*
X108765Y214628D01*
X106765D01*
X105766Y213628D01*
X-109612Y217483D02*
Y223481D01*
X-106613D01*
X-105613Y222482D01*
Y220482D01*
X-106613Y219483D01*
X-109612D01*
X-107613D02*
X-105613Y217483D01*
X-99615D02*
X-103614D01*
X-99615Y221482D01*
Y222482D01*
X-100615Y223481D01*
X-102614D01*
X-103614Y222482D01*
X-97616Y216484D02*
X-93617D01*
X-91618Y217483D02*
X-89618D01*
X-90618D01*
Y223481D01*
X-91618Y222482D01*
X97648Y219181D02*
Y225179D01*
X100647D01*
X101647Y224180D01*
Y222180D01*
X100647Y221181D01*
X97648D01*
X99647D02*
X101647Y219181D01*
X103646D02*
X105645D01*
X104646D01*
Y225179D01*
X103646Y224180D01*
X108644Y218181D02*
X112643D01*
X118641Y219181D02*
X114643D01*
X118641Y223180D01*
Y224180D01*
X117642Y225179D01*
X115642D01*
X114643Y224180D01*
X-89179Y216986D02*
Y222984D01*
X-86181D01*
X-85181Y221984D01*
Y219985D01*
X-86181Y218985D01*
X-89179D01*
X-87180D02*
X-85181Y216986D01*
X-83182D02*
X-81182D01*
X-82182D01*
Y222984D01*
X-83182Y221984D01*
X-78183Y215986D02*
X-74184D01*
X-72185Y216986D02*
X-70186D01*
X-71185D01*
Y222984D01*
X-72185Y221984D01*
X-91261Y377808D02*
Y383806D01*
X-89261Y381807D01*
X-87262Y383806D01*
Y377808D01*
X-81264D02*
X-85263D01*
X-81264Y381807D01*
Y382806D01*
X-82263Y383806D01*
X-84263D01*
X-85263Y382806D01*
X-97015Y279683D02*
Y273685D01*
Y276684D01*
X-93016D01*
Y279683D01*
Y273685D01*
X-87018D02*
X-91017D01*
X-87018Y277684D01*
Y278684D01*
X-88018Y279683D01*
X-90017D01*
X-91017Y278684D01*
X78008Y198407D02*
Y192409D01*
Y195408D01*
X82007D01*
Y198407D01*
Y192409D01*
X84006D02*
X86005D01*
X85006D01*
Y198407D01*
X84006Y197407D01*
X89004Y191409D02*
X93003D01*
X99001Y192409D02*
X95002D01*
X99001Y196407D01*
Y197407D01*
X98001Y198407D01*
X96002D01*
X95002Y197407D01*
X-128201Y199478D02*
Y193480D01*
Y196479D01*
X-124202D01*
Y199478D01*
Y193480D01*
X-122203D02*
X-120203D01*
X-121203D01*
Y199478D01*
X-122203Y198479D01*
X-117204Y192481D02*
X-113206D01*
X-111206Y193480D02*
X-109207D01*
X-110207D01*
Y199478D01*
X-111206Y198479D01*
X-90768Y253431D02*
X-91768Y254430D01*
X-93767D01*
X-94767Y253431D01*
Y249432D01*
X-93767Y248432D01*
X-91768D01*
X-90768Y249432D01*
X-88769Y248432D02*
X-86769D01*
X-87769D01*
Y254430D01*
X-88769Y253431D01*
X-80771Y248432D02*
Y254430D01*
X-83771Y251431D01*
X-79772D01*
X-30745Y294703D02*
X-31744Y295703D01*
X-33744D01*
X-34743Y294703D01*
Y290704D01*
X-33744Y289705D01*
X-31744D01*
X-30745Y290704D01*
X-24746Y295703D02*
X-26746Y294703D01*
X-28745Y292704D01*
Y290704D01*
X-27746Y289705D01*
X-25746D01*
X-24746Y290704D01*
Y291704D01*
X-25746Y292704D01*
X-28745D01*
X33138Y153286D02*
X32138Y154286D01*
X30139D01*
X29139Y153286D01*
Y149287D01*
X30139Y148287D01*
X32138D01*
X33138Y149287D01*
X39136Y154286D02*
X35137D01*
Y151286D01*
X37137Y152286D01*
X38137D01*
X39136Y151286D01*
Y149287D01*
X38137Y148287D01*
X36137D01*
X35137Y149287D01*
X68573Y152803D02*
X67574Y153803D01*
X65575D01*
X64575Y152803D01*
Y148804D01*
X65575Y147805D01*
X67574D01*
X68573Y148804D01*
X73572Y147805D02*
Y153803D01*
X70573Y150804D01*
X74572D01*
X7740Y153051D02*
X6740Y154051D01*
X4741D01*
X3741Y153051D01*
Y149052D01*
X4741Y148053D01*
X6740D01*
X7740Y149052D01*
X9739Y153051D02*
X10739Y154051D01*
X12738D01*
X13738Y153051D01*
Y152051D01*
X12738Y151052D01*
X11738D01*
X12738D01*
X13738Y150052D01*
Y149052D01*
X12738Y148053D01*
X10739D01*
X9739Y149052D01*
X31698Y188998D02*
X30698Y189998D01*
X28699D01*
X27699Y188998D01*
Y185000D01*
X28699Y184000D01*
X30698D01*
X31698Y185000D01*
X37696Y184000D02*
X33697D01*
X37696Y187999D01*
Y188998D01*
X36696Y189998D01*
X34697D01*
X33697Y188998D01*
X98204Y167626D02*
X97204Y168626D01*
X95205D01*
X94205Y167626D01*
Y163628D01*
X95205Y162628D01*
X97204D01*
X98204Y163628D01*
X100203Y162628D02*
X102202D01*
X101203D01*
Y168626D01*
X100203Y167626D01*
X105202Y161628D02*
X109200D01*
X115198Y162628D02*
X111200D01*
X115198Y166627D01*
Y167626D01*
X114199Y168626D01*
X112199D01*
X111200Y167626D01*
X-100519Y234413D02*
X-101518Y235413D01*
X-103518D01*
X-104517Y234413D01*
Y230415D01*
X-103518Y229415D01*
X-101518D01*
X-100519Y230415D01*
X-98519Y229415D02*
X-96520D01*
X-97520D01*
Y235413D01*
X-98519Y234413D01*
X-93521Y228415D02*
X-89522D01*
X-87523Y229415D02*
X-85523D01*
X-86523D01*
Y235413D01*
X-87523Y234413D01*
M02*
