M48
;Layer_Color=9474304
;FILE_FORMAT=2:5
INCH,LZ
;TYPE=PLATED
T1F00S00C0.00787
T2F00S00C0.00984
T3F00S00C0.01968
T4F00S00C0.02756
T5F00S00C0.03937
%
T01
X-0002264Y0111516
X0002067
Y0115847
X-0002264
T02
X-0117815Y0009154
X-0107972
X-009813
X-0088287
X-0093209Y0018996
X-0103051
X-0112894
X-0107972Y0028839
X-009813
X-0088287
X-0093209Y0038681
X-0103051
X-0112894
X-0107972Y0048524
X-009813
X-0088287
X-0117815
Y0028839
X-0078445
X-0068602
X-005876
X-0048917
X-0039075
X-0029232
X-001939
X-0014469Y0038681
X-0024311
X-0034154
X-0043996
X-0053838
X-0063681
X-005876Y0048524
X-0048917
X-0039075
X-0029232
X-001939
X-0009547
X0000295
X0010138
X0029823
X0039665
X0049508
X005935
X0064272Y0038681
X0054429
X0044587
X0034744
X0024902
X0029823Y0028839
X0039665
X0049508
X005935
X0064272Y0018996
X0054429
X0044587
X0034744
X0024902
X0015059
X0005217
X-0004626
X-0014469
X-0024311
X-0034154
X-0043996
X-0053838
X-0063681
X-0073524
X-0083366
X-0078445Y0009154
X-0068602
X-005876
X-0048917
X-0039075
X-0029232
X-001939
X-0009547
X0000295
X0010138
X001998
X0029823
X0039665
X0049508
X005935
X001998Y0028839
X-0068602Y0048524
X-0078445
X-0083366Y0038681
X0069193Y0048524
X0079036
X0088878
X0098721
X0108563
X0118405
X0113484Y0038681
X0103642
X0093799
X0083957
X0088878Y0028839
X0098721
X0108563
X0118405
X0113484Y0018996
X0103642
X0093799
X0083957
X0074114
X0079036Y0028839
X0069193
Y0009154
X0079036
X0088878
X0098721
X0108563
X0118405
X0113484Y0058366
X0103642
X0093799
X0083957
X0074114
X0079036Y0068209
X0088878
X0098721
X0108563
X0118405
X0113484Y0078051
X0103642
X0093799
X0083957
X0074114
X0079036Y0087894
X0088878
X0098721
X0108563
X0118405
X0113484Y0097736
X0103642
X0093799
X0083957
X0074114
X0069193Y0107579
X0074114Y0117421
X0083957
X0093799
X0103642
X0113484
X0098721Y0127264
X0103642Y0137106
X0093799
X0083957
X0074114
X0079036Y0146949
Y0166634
X0074114Y0176476
X0069193Y0186319
X0074114Y0196161
X0083957
X0093799
X0103642
X0113484
X0123327
X0133169
X0143012
X0152854
X0162697
X0167618Y0206004
X0157776
X0147933
X0138091
X0128248
X0118405Y0186319
X0133169Y0176476
X0128248Y0166634
X0147933
X0157776
X0167618
X0172539Y0176476
X0162697
X0152854
X0157776Y0186319
X0167618
X0147933
X0088878
X0093799Y0176476
X0098721Y0206004
X0088878
X0079036
X0069193
X0079036Y0127264
X0088878Y0107579
X0069193Y0087894
Y0068209
X0108563Y0146949
X0118405
X005935Y0127264
Y0107579
X0064272Y0097736
X0054429
X0044587
X0034744
X0024902
X0029823Y0107579
X0039665
X0044587Y0117421
X0029823Y0127264
Y0146949
X0010138
X0000295
X-001939
X-0029232
X-0039075
X-0048917
X-005876
X-0068602
X-0078445
X-0073524Y0137106
X-0063681
X-0053838
X-0043996
X-0034154
X-0029232Y0127264
X-001939
Y0107579
X-0009547
X-0004626Y0097736
X-0014469
X-0024311
X-0034154
X-0043996
X-0053838
X-0063681
X-0073524
X-0083366
X-0078445Y0087894
X-0068602
X-005876
X-0048917
X-0039075
X-0029232
X-001939
X-0009547
X-0014469Y0078051
X-0024311
X-0034154
X-0043996
X-0053838
X-0063681
X-0073524
X-0083366
X-0078445Y0068209
X-0068602
X-005876
X-0048917
X-0039075
X-0029232
X-001939
X-0009547
X0000295
X0010138
X001998
X0029823
X0034744Y0078051
X0024902
X0015059
X0005217
X0010138Y0087894
X001998
X0029823
X0039665
X0049508
X005935
X0064272Y0078051
X0054429
X005935Y0068209
X0049508
X0054429Y0058366
X0064272
X0044587
X0024902
X0015059
X0005217
X-0014469
X-0024311
X-0034154
X-0043996
X-0053838
X-0063681
X-0073524
X-0083366
Y0117421
X-0073524
X-0068602Y0107579
X-005876
X-0048917
X-0029232
X-0039075Y0127264
X-0048917
X-0043996Y0156791
X-0034154
X-0029232Y0166634
X-001939
Y0186319
X-0009547
X-0014469Y0196161
X-0009547Y0206004
X-001939
X-0029232
X-0039075
X-0048917
X-005876
X-0068602
X-0078445
X-0073524Y0196161
X-0063681
X-0053838
X-0043996
X-0034154
X-0029232Y0186319
X-0039075
X-0048917
X-005876
X-0068602
X-0063681Y0176476
X-0053838
X-0043996
X-0034154
X-0039075Y0166634
X-0048917
X-0053838Y0156791
X-0068602Y0166634
X-0078445
X-0073524Y0176476
X-0083366Y0196161
Y0137106
X0010138Y0107579
X0015059Y0176476
X0024902
X0054429
Y0196161
X0064272
X-0093209
X-0103051
X-009813Y0206004
X-0117815
X-0127657
X-01375
X-0147343
X-0157185
X-0167027
X-0162106Y0196161
X-0152264
X-0142421
X-0132579
X-0122736
X-0117815Y0186319
X-0112894Y0176476
X-0117815Y0166634
X-0127657
X-01375
X-0147343
X-0157185
X-0167027
X-0162106Y0176476
X-0152264
X-0142421
X-0132579
X-01375Y0186319
X-0147343
X-0157185
X-0167027
X-0088287
X-0093209Y0137106
X-0103051
X-009813Y0127264
X-0088287
X-0093209Y0117421
X-0103051
X-0112894
Y0097736
X-0103051
X-0093209
X-0088287Y0107579
X-009813
Y0087894
X-0088287
X-0093209Y0078051
X-0103051
X-0112894
X-0107972Y0087894
X-0117815
Y0068209
X-0107972
X-009813
X-0088287
X-0093209Y0058366
X-0103051
X-0112894
X-0107972Y0146949
X-0117815
X-0112894Y0156791
X-0103051Y0215846
X-009813Y0225689
X-0088287
X-0093209Y0235531
X-0103051
X-0112894
X-0122736
X-0132579
X-0142421
X-0152264
X-0147343Y0245374
X-01375
X-0127657
X-0117815
X-0107972
X-009813
X-0088287
Y0265059
X-009813
X-0107972
X-0117815
X-0127657
X-01375
X-0132579Y0255217
X-0122736
X-0112894
X-0103051
Y0274902
X-0093209
X-0088287Y0284744
X-009813
X-0107972
X-0117815
X-0112894Y0274902
X-0122736
X-0103051Y0294587
X-0093209
X-0088287Y0304429
X-0107972Y0225689
X-0117815
X-0127657
X-01375
X-0147343
X-0157185
X-0152264Y0215846
X-0142421
X-0132579
X-0122736
X-0162106
X-0142421Y0255217
X-0078445Y0265059
X-0073524Y0274902
X-0063681
X-0053838
X-0043996
X-0034154
X-0024311
X-001939Y0284744
X-0024311Y0294587
X-0034154
X-0043996
X-0053838
X-0063681
X-0073524
X-0083366
X-0078445Y0304429
X-0068602
X-005876
X-0048917
X-0039075
X-0029232
X-0024311Y0314272
X-0014469
X-0004626
X0005217
X0015059
X0024902
X0034744
X0044587
X0054429
X0064272
X005935Y0304429
X0049508
X0039665
X0029823
X001998
Y0324114
X0029823
X0039665
X0049508
X0054429Y0294587
Y0274902
X0044587
X0039665Y0284744
X0029823
X0024902Y0274902
X001998Y0265059
X0010138
Y0284744
X-0004626Y0294587
Y0274902
Y0255217
X-001939Y0245374
X-0029232
X-0039075
X-0048917
X-005876
X-0053838Y0255217
X-0063681
Y0235531
X-0053838
X-0048917Y0225689
X-0039075
X-0029232
X-001939
X-0034154Y0235531
Y0255217
X-0029232Y0265059
X-005876Y0284744
X-0068602
X-0078445
X-0083366Y0274902
X-0078445Y0245374
X-0073524Y0235531
X-0083366
X-0078445Y0225689
X-005876
X-0053838Y0314272
X-0043996
X-0034154
X-0029232Y0324114
X-001939
X-0009547
X0000295
X0010138
X-0039075
X-0048917
X-0063681Y0314272
X-0073524
X0039665Y0265059
X0044587Y0255217
X0034744
X0044587Y0235531
X0039665Y0225689
X005935
X0064272Y0235531
X0074114
X0083957
X0093799
X0103642
X0113484
X0123327
X0133169
X0143012
X0152854
X0157776Y0225689
X0147933
X0138091
X0128248
X0133169Y0215846
X0143012
X0152854
X0162697
X0123327
X0113484
X0103642
X0093799
X0083957
X0074114
X0079036Y0225689
X0088878
X0098721
X0108563
Y0245374
X0098721
X0088878
X0093799Y0255217
X0103642
X0113484
X0123327
X0133169
X0143012
X0147933Y0245374
X0138091
X0128248
Y0265059
X0138091
X0123327Y0274902
X0113484
X0103642
X0093799
X0083957
X0088878Y0284744
X0079036
X0083957Y0294587
X0093799
X0103642
X0108563Y0284744
X0118405
X0108563Y0265059
X0098721
X0088878
X0083957Y0255217
X0074114
X0069193Y0225689
X0074114Y0294587
X0079036Y0304429
X0088878
X0069193
X0074114Y0314272
T03
X0074508Y0150591
Y016063
X0092028Y0162992
X0116732Y0191535
X0045276Y0194193
X0031004Y0206299
X0052165Y0172539
X0026969Y0151772
X0011516Y0155807
X-0007283Y0157972
X-0011024Y0119587
X0002854Y0125591
X0036909Y0127854
X005Y0106693
X0045965Y0090748
X-0001083Y0090551
X-0036811Y0105905
X-0078642Y0127165
X-007559Y0208563
X-0093996Y0185138
X-0097047Y0159646
X-0092815Y0151575
X-0105709Y0143898
X-0085827Y0222047
X-0046161Y0236122
X-0030709Y0221161
X-0003297Y0227805
X0000787Y0218602
X0010728Y0215748
X0012697Y022441
X0009252Y0247835
X0024803Y0240846
X0034646Y0250098
X0052756Y023248
X0035925Y0215551
X0044685Y0282185
X0054035Y0289173
X0066043Y0282382
X0024803Y0299902
X0001969Y0295177
X-0024902Y0290059
X-0012402Y027559
X-0019882Y026624
T04
X004935Y0258425
Y0263425
X005435
X005935
X006435
Y0258425
X005935
X005435
X006935
Y0263425
T05
X-0093051Y0263189
X-0083051
X-0073051
X-0063051
M30
